<?xml version="1.0" standalone="no"?>
<!DOCTYPE svg PUBLIC "-//W3C//DTD SVG 1.1//EN" "http://www.w3.org/Graphics/SVG/1.1/DTD/svg11.dtd" >
<svg xmlns="http://www.w3.org/2000/svg" xmlns:xlink="http://www.w3.org/1999/xlink" version="1.1">
<metadata>
Created by FontForge 20190801 at Wed May  8 01:57:26 2019
 By www-data
Copyright (c) Olivier Gourvat - Mostardesign Studio, 2014. All rights reserved. |DCNT
</metadata>
<defs>
<font id="FilsonProMedium" horiz-adv-x="607" >
  <font-face 
    font-family="FilsonProMedium"
    font-weight="500"
    font-stretch="normal"
    units-per-em="1000"
    panose-1="2 0 0 0 0 0 0 0 0 0"
    ascent="723"
    descent="-277"
    x-height="506"
    cap-height="700"
    bbox="-245 -303 1356 1043"
    underline-thickness="50"
    underline-position="-200"
    unicode-range="U+000D-FB04"
  />
<missing-glyph horiz-adv-x="673" 
d="M100 0v701h473v-701h-473zM284 257h60q0 31 12 40q1 1 20 12.5t28 18t26.5 22t26.5 29t17 34t8 42.5q0 59 -44 94.5t-110 35.5q-73 0 -110 -34.5t-37 -76.5q0 -26 9 -46h63q-8 18 -8 44q0 25 21.5 41t57.5 16q42 0 66 -20t24 -54v-2q0 -33 -20 -56t-67 -52
q-31 -17 -37 -31t-6 -57zM266 144q0 -21 14 -35t34 -14q21 0 35.5 14t14.5 35q0 20 -14.5 34.5t-35.5 14.5q-20 0 -34 -14.5t-14 -34.5z" />
    <glyph glyph-name="f_f" unicode="ff" horiz-adv-x="772" 
d="M615 559v-53h123v-94h-123v-412h-125v412h-261v-412h-125v412h-75v94h75v34q0 56 15 95.5t41.5 59.5t55.5 29t64 9q66 0 104.5 -29.5t48.5 -77.5l-99 -36q-5 41 -49 41q-24 0 -40 -18.5t-16 -53.5v-53h261v34q0 56 15 95.5t41.5 59.5t55.5 29t64 9q77 0 116.5 -40
t39.5 -99q0 -14 -5 -28h-99q3 7 3 17q0 48 -50 48q-24 0 -40 -18.5t-16 -53.5z" />
    <glyph glyph-name="fi" unicode="fi" horiz-adv-x="670" 
d="M29 506h75v31q0 196 218 196q64 0 119.5 -30t76.5 -92l-59 -16l-59 -17q-9 26 -32 39.5t-46 13.5q-93 0 -93 -94v-31h369v-506h-123v412h-246v-412h-125v412h-75v94z" />
    <glyph glyph-name="fl" unicode="fl" horiz-adv-x="653" 
d="M104 412h-75v94h75v31q0 59 20 99.5t56.5 60.5t77 28t92.5 8q130 0 231 -66v-667h-123v606q-47 25 -116 25q-51 0 -82 -18.5t-31 -71.5v-35h123v-94h-123v-412h-125v412z" />
    <glyph glyph-name="f_f_i" unicode="ffi" horiz-adv-x="1056" 
d="M490 506v31q0 196 218 196q64 0 119.5 -30t76.5 -92l-59 -16l-59 -17q-9 26 -32 39.5t-46 13.5q-93 0 -93 -94v-31h369v-506h-123v412h-246v-412h-125v412h-261v-412h-125v412h-75v94h75v34q0 193 218 193q93 0 147 -70l-78 -68q-24 36 -69 36q-93 0 -93 -94v-31h261z
" />
    <glyph glyph-name="f_f_l" unicode="ffl" horiz-adv-x="1039" 
d="M615 412v-412h-125v412h-261v-412h-125v412h-75v94h75v34q0 193 218 193q93 0 147 -70l-78 -68q-24 36 -69 36q-93 0 -93 -94v-31h261v31q0 59 20 99.5t56.5 60.5t77 28t92.5 8q130 0 231 -66v-667h-123v606q-47 25 -116 25q-51 0 -82 -18.5t-31 -71.5v-35h123v-94h-123z
" />
    <glyph glyph-name="f_f_j" unicode="ffj" horiz-adv-x="1078" 
d="M883 -84v496h-268v-412h-125v412h-261v-412h-125v412h-75v94h75v34q0 193 218 193q93 0 147 -70l-78 -68q-24 36 -69 36q-93 0 -93 -94v-31h261v31q0 196 218 196q64 0 119.5 -30t76.5 -92l-59 -16l-59 -17q-9 26 -32 39.5t-46 13.5q-93 0 -93 -94v-31h391v-581
q0 -84 -48 -124.5t-119 -40.5q-78 0 -118.5 40t-40.5 100q0 26 7 41h103q-4 -11 -4 -29q0 -50 48 -50q23 0 36 15t13 39z" />
    <glyph glyph-name="f_j" unicode="fj" horiz-adv-x="692" 
d="M104 0v412h-75v94h75v31q0 196 218 196q64 0 119.5 -30t76.5 -92l-59 -16l-59 -17q-9 26 -32 39.5t-46 13.5q-93 0 -93 -94v-31h391v-581q0 -84 -48 -124.5t-119 -40.5q-78 0 -118.5 40t-40.5 100q0 26 7 41h103q-4 -11 -4 -29q0 -50 48 -50q23 0 36 15t13 39v496h-268
v-412h-125z" />
    <glyph glyph-name=".notdef" horiz-adv-x="673" 
d="M100 0v701h473v-701h-473zM284 257h60q0 31 12 40q1 1 20 12.5t28 18t26.5 22t26.5 29t17 34t8 42.5q0 59 -44 94.5t-110 35.5q-73 0 -110 -34.5t-37 -76.5q0 -26 9 -46h63q-8 18 -8 44q0 25 21.5 41t57.5 16q42 0 66 -20t24 -54v-2q0 -33 -20 -56t-67 -52
q-31 -17 -37 -31t-6 -57zM266 144q0 -21 14 -35t34 -14q21 0 35.5 14t14.5 35q0 20 -14.5 34.5t-35.5 14.5q-20 0 -34 -14.5t-14 -34.5z" />
    <glyph glyph-name=".null" horiz-adv-x="0" 
 />
    <glyph glyph-name="nonmarkingreturn" horiz-adv-x="333" 
 />
    <glyph glyph-name="NULL" horiz-adv-x="0" 
 />
    <glyph glyph-name="NULL" horiz-adv-x="0" 
 />
    <glyph glyph-name="CR" unicode="&#xd;" horiz-adv-x="250" 
 />
    <glyph glyph-name="space" unicode=" " horiz-adv-x="254" 
 />
    <glyph glyph-name="exclam" unicode="!" horiz-adv-x="274" 
d="M211 700v-15l-31 -459h-86l-31 459v15h148zM54 68q0 35 24 58t60 23t60 -23t24 -58q0 -34 -24.5 -56.5t-59.5 -22.5q-36 0 -60 22.5t-24 56.5z" />
    <glyph glyph-name="quotedbl" unicode="&#x22;" horiz-adv-x="456" 
d="M179 723l-21 -283h-82l-21 283h124zM401 723l-21 -283h-83l-21 283h125z" />
    <glyph glyph-name="numbersign" unicode="#" horiz-adv-x="762" 
d="M595 556h133l-22 -92h-133l-52 -210h134l-25 -93h-131l-41 -161h-104l41 161h-124l-41 -161h-102l40 161h-135l22 93h136l52 210h-135l25 92h135l36 144h101l-37 -144h127l34 144h104zM345 464l-52 -210h124l53 210h-125z" />
    <glyph glyph-name="dollar" unicode="$" horiz-adv-x="550" 
d="M251 -79v95q-86 6 -145.5 54t-71.5 122q19 5 55.5 13t53.5 12q8 -38 36.5 -62.5t71.5 -29.5v177q-107 36 -147 86t-40 110q0 76 52.5 124.5t134.5 57.5v98h62v-100q67 -8 113.5 -46t66.5 -100l-102 -43q-22 65 -78 79v-168l29 -10q84 -28 125 -78.5t41 -104.5
q0 -82 -54.5 -131.5t-140.5 -59.5v-95h-62zM387 201q0 26 -17.5 42.5t-56.5 36.5v-153q74 15 74 74zM184 498q0 -20 13 -37t54 -38v147q-67 -14 -67 -72z" />
    <glyph glyph-name="percent" unicode="%" horiz-adv-x="946" 
d="M229 0l389 700h92l-389 -700h-92zM34 528q0 77 54 130t133 53q80 0 133 -52.5t53 -130.5q0 -76 -53 -128.5t-133 -52.5q-79 0 -133 52.5t-54 128.5zM131 528q0 -41 26.5 -68t63.5 -27q39 0 65 26.5t26 68.5t-26 69.5t-65 27.5q-37 0 -63.5 -27.5t-26.5 -69.5zM539 170
q0 77 54 129.5t133 52.5q80 0 133 -52t53 -130q0 -76 -53 -128.5t-133 -52.5q-79 0 -133 52.5t-54 128.5zM636 170q0 -41 26.5 -68t63.5 -27q39 0 65 26.5t26 68.5t-26 69.5t-65 27.5q-37 0 -63.5 -27.5t-26.5 -69.5z" />
    <glyph glyph-name="ampersand" unicode="&#x26;" horiz-adv-x="795" 
d="M512 57l-17 19q-32 -42 -87 -64.5t-120 -22.5q-106 0 -178 53.5t-72 144.5q0 130 176 213q-71 69 -71 149q0 83 56 122.5t131 39.5q84 0 135.5 -47t51.5 -113q0 -53 -39 -100t-98 -77l110 -124l86 120h116v-20l-132 -180l41 -45q24 -28 63 -30q51 0 81 33l42 -83
q-54 -56 -129 -56q-78 0 -146 68zM424 159l-142 162q-49 -16 -85 -50t-36 -78q0 -45 37 -74t92 -29q78 0 134 69zM261 543q0 -47 54 -101q87 46 87 105q0 27 -18.5 48t-51.5 21q-30 0 -50.5 -20.5t-20.5 -52.5z" />
    <glyph glyph-name="quotesingle" unicode="'" horiz-adv-x="234" 
d="M179 723l-21 -283h-82l-21 283h124z" />
    <glyph glyph-name="parenleft" unicode="(" horiz-adv-x="325" 
d="M227 773l78 -47q-145 -218 -145 -450t145 -450l-78 -46q-36 38 -75 101.5t-75.5 174.5t-36.5 221q0 84 20.5 168t51.5 148t60 108.5t55 71.5z" />
    <glyph glyph-name="parenright" unicode=")" horiz-adv-x="325" 
d="M20 726l78 47q26 -27 55 -71.5t60 -108.5t51.5 -148t20.5 -168q0 -110 -36.5 -221t-75.5 -174.5t-75 -101.5l-78 46q145 218 145 450t-145 450z" />
    <glyph glyph-name="asterisk" unicode="*" horiz-adv-x="454" 
d="M151 360l-68 51l85 105l-131 37l27 83l126 -49l-8 136h89l-8 -136l127 49l27 -82l-131 -36l86 -107l-69 -50l-74 112z" />
    <glyph glyph-name="plus" unicode="+" horiz-adv-x="558" 
d="M332 71h-106v187h-188v101h188v186h106v-186h187v-101h-187v-187z" />
    <glyph glyph-name="comma" unicode="," horiz-adv-x="257" 
d="M65 -146l-26 45q40 14 64.5 47.5t24.5 65.5q-32 -6 -54.5 14t-22.5 48q-1 31 19.5 51.5t58.5 20.5q41 0 58.5 -29.5t17.5 -59.5q0 -66 -38 -125t-102 -78z" />
    <glyph glyph-name="hyphen" unicode="-" horiz-adv-x="478" 
d="M63 257v105h351v-105h-351z" />
    <glyph glyph-name="period" unicode="." horiz-adv-x="268" 
d="M50 68q0 35 24 58t60 23t60 -23t24 -58q0 -34 -24.5 -56.5t-59.5 -22.5q-36 0 -60 22.5t-24 56.5z" />
    <glyph glyph-name="slash" unicode="/" horiz-adv-x="544" 
d="M518 737l-383 -775h-109l382 775h110z" />
    <glyph glyph-name="zero" unicode="0" horiz-adv-x="711" 
d="M663 350q0 -153 -85 -257t-223 -104q-139 0 -223 103.5t-84 257.5t83.5 257.5t223.5 103.5q139 0 223.5 -103.5t84.5 -257.5zM539 350q0 110 -50 183t-134 73t-133.5 -73t-49.5 -183q0 -109 49.5 -182t133.5 -73t134 73t50 182z" />
    <glyph glyph-name="one" unicode="1" horiz-adv-x="393" 
d="M43 490l-31 99l242 111h67v-700h-124v554z" />
    <glyph glyph-name="two" unicode="2" horiz-adv-x="614" 
d="M411 252l-175 -153v-2q38 5 134 5h202v-102h-508l-14 78l279 254q96 81 96 157q0 54 -34.5 84.5t-93.5 30.5q-70 0 -100 -34t-30 -78h-123q0 35 13 70.5t40.5 70t79.5 56.5t120 22q114 0 182 -60t68 -161q0 -73 -36.5 -128t-99.5 -110z" />
    <glyph glyph-name="three" unicode="3" horiz-adv-x="616" 
d="M279 96q73 0 118 42t45 94q0 55 -41 91t-100 36q-57 0 -97 -26l-53 68l215 196h-302v103h481v-75l-201 -177q90 0 156.5 -62t66.5 -153q0 -104 -78.5 -174t-210.5 -70q-159 0 -249 82l66 80q82 -55 184 -55z" />
    <glyph glyph-name="four" unicode="4" horiz-adv-x="668" 
d="M168 285h203v224zM371 181h-349v78l392 441h81v-415h146v-104h-146v-181h-124v181z" />
    <glyph glyph-name="five" unicode="5" horiz-adv-x="612" 
d="M289 96q78 0 120 40t42 101q0 49 -39 87.5t-108 38.5q-95 0 -153 -51l-85 35l22 353h436v-103h-326l-13 -177h3q58 46 143 46q104 0 173.5 -67.5t69.5 -161.5q0 -112 -75 -180t-208 -68q-159 0 -249 82l65 80q78 -55 182 -55z" />
    <glyph glyph-name="six" unicode="6" horiz-adv-x="640" 
d="M355 603q-73 0 -126 -64.5t-57 -169.5h2q23 45 71.5 68.5t102.5 23.5q101 0 176.5 -64.5t75.5 -170.5q0 -103 -74.5 -170t-190.5 -67q-133 0 -209.5 94.5t-76.5 250.5q0 163 80 270t223 107q68 0 125.5 -24t93.5 -66l-78 -71q-48 53 -138 53zM332 359q-66 0 -106.5 -37
t-40.5 -92q0 -57 41.5 -95.5t104.5 -38.5q60 0 102 37t42 94q0 60 -40 96t-103 36z" />
    <glyph glyph-name="seven" unicode="7" horiz-adv-x="556" 
d="M30 597v103h513v-80l-334 -620h-139l331 597h-371z" />
    <glyph glyph-name="eight" unicode="8" horiz-adv-x="660" 
d="M328 411h4q61 0 94.5 31t33.5 72q0 39 -35.5 65.5t-94.5 26.5t-94 -26.5t-35 -65.5q0 -41 33 -72t94 -31zM334 323h-4q-77 0 -117.5 -33t-40.5 -81t44 -81t114 -33q71 0 115 33t44 81t-40.5 81t-114.5 33zM330 -11q-124 0 -204 61t-80 159q0 51 37 98.5t94 67.5
q-45 18 -73.5 57.5t-28.5 81.5q0 87 71.5 142t183.5 55t183.5 -55t71.5 -142q0 -42 -28 -81.5t-73 -57.5q57 -20 93.5 -67t36.5 -99q0 -98 -79.5 -159t-204.5 -61z" />
    <glyph glyph-name="nine" unicode="9" horiz-adv-x="639" 
d="M284 97q73 0 127 64.5t56 169.5h-2q-23 -45 -71.5 -68.5t-102.5 -23.5q-101 0 -176.5 64.5t-75.5 170.5q0 103 74.5 170t190.5 67q133 0 209.5 -94.5t76.5 -250.5q0 -164 -80 -270.5t-223 -106.5q-68 0 -125.5 24t-93.5 66l78 71q48 -53 138 -53zM307 341q66 0 106.5 37
t40.5 92q0 57 -41.5 95.5t-104.5 38.5q-60 0 -102 -37t-42 -94q0 -60 40 -96t103 -36z" />
    <glyph glyph-name="colon" unicode=":" horiz-adv-x="296" 
d="M64 68q0 35 24 58t60 23t60 -23t24 -58q0 -34 -24.5 -56.5t-59.5 -22.5q-36 0 -60 22.5t-24 56.5zM64 436q0 35 24 58t60 23t60 -23t24 -58q0 -34 -24.5 -56.5t-59.5 -22.5q-36 0 -60 22.5t-24 56.5z" />
    <glyph glyph-name="semicolon" unicode=";" horiz-adv-x="296" 
d="M64 436q0 35 24 58t60 23t60 -23t24 -58q0 -34 -24.5 -56.5t-59.5 -22.5q-36 0 -60 22.5t-24 56.5zM85 -143l-26 45q40 14 64.5 46.5t24.5 64.5q-34 -6 -56.5 14.5t-22.5 49.5q-2 32 19 53.5t61 21.5q42 0 60.5 -30t18.5 -62q0 -67 -39.5 -125.5t-103.5 -77.5z" />
    <glyph glyph-name="less" unicode="&#x3c;" horiz-adv-x="581" 
d="M34 325l477 201h12v-109l-362 -141l362 -141v-109h-12l-477 200v99z" />
    <glyph glyph-name="equal" unicode="=" horiz-adv-x="615" 
d="M548 149h-481v103h481v-103zM548 415h-481v102h481v-102z" />
    <glyph glyph-name="greater" unicode="&#x3e;" horiz-adv-x="582" 
d="M71 526l477 -201v-99l-477 -200h-12v109l362 141l-362 141v109h12z" />
    <glyph glyph-name="question" unicode="?" horiz-adv-x="533" 
d="M297 226h-114q0 61 10 84t58 53q64 39 92 70t28 75v2q0 44 -30.5 69.5t-82.5 25.5q-46 0 -75 -21.5t-29 -57.5q0 -20 9 -46h-118q-8 16 -10 43q0 31 11.5 62t36 60t70.5 47.5t107 18.5q103 0 169.5 -54.5t66.5 -145.5q0 -71 -45.5 -123.5t-124.5 -101.5q-29 -20 -29 -60z
M157 68q0 35 24 58t59 23q36 0 60.5 -23t24.5 -58q0 -34 -25 -56.5t-60 -22.5t-59 22.5t-24 56.5z" />
    <glyph glyph-name="at" unicode="@" horiz-adv-x="1025" 
d="M765 52q59 2 93 58t34 171q0 157 -105 258.5t-272 101.5t-277 -114t-110 -283q0 -170 103 -282.5t267 -112.5q119 0 200 40l37 -72q-106 -50 -237 -50q-203 0 -329 135t-126 342q0 206 134 342.5t338 136.5q206 0 334 -123t128 -319q0 -158 -56.5 -231t-155.5 -73
q-129 0 -134 121q-23 -40 -68 -60.5t-94 -20.5q-92 0 -152 66t-60 161q0 96 60 161t156 65q97 0 151 -75v65h91v-350q0 -29 14 -43.5t36 -14.5zM348 244q0 -62 38 -104t100 -42q60 0 98.5 39t38.5 105q0 64 -38.5 105.5t-100.5 41.5q-63 0 -99.5 -41.5t-36.5 -103.5z" />
    <glyph glyph-name="A" unicode="A" horiz-adv-x="692" 
d="M141 0h-132l270 700h133l272 -700h-131l-53 137h-308zM463 241l-117 329l-118 -329h235z" />
    <glyph glyph-name="B" unicode="B" horiz-adv-x="661" 
d="M586 514q0 -52 -32 -94t-93 -60q72 -9 115 -57.5t43 -111.5q0 -87 -66.5 -139t-174.5 -52h-288v700h257q105 0 172 -50t67 -136zM324 305h-106v-203h160q49 0 79.5 25t30.5 67q0 48 -38 79.5t-126 31.5zM218 398h87q80 0 115 31.5t35 77.5q0 43 -31 66.5t-77 23.5h-129
v-199z" />
    <glyph glyph-name="C" unicode="C" horiz-adv-x="689" 
d="M42 350q0 151 105 256t277 105q132 0 241 -82l-51 -96q-87 64 -189 64q-116 0 -184 -70.5t-68 -176.5t68 -176.5t184 -70.5q104 0 189 64l51 -97q-107 -81 -241 -81q-172 0 -277 105t-105 256z" />
    <glyph glyph-name="D" unicode="D" horiz-adv-x="743" 
d="M570 350q0 103 -66 175t-166 72h-120v-495h120q100 0 166 72.5t66 175.5zM701 350q0 -146 -103.5 -248t-259.5 -102h-248v699h248q156 0 259.5 -101.5t103.5 -247.5z" />
    <glyph glyph-name="E" unicode="E" horiz-adv-x="594" 
d="M545 0h-455v700h455v-103h-327v-203h285v-102h-285v-190h327v-102z" />
    <glyph glyph-name="F" unicode="F" horiz-adv-x="583" 
d="M218 0h-128v700h455v-103h-327v-203h285v-102h-285v-292z" />
    <glyph glyph-name="G" unicode="G" horiz-adv-x="736" 
d="M418 596q-112 0 -178.5 -73.5t-66.5 -174.5q0 -102 66.5 -172.5t179.5 -70.5q83 0 147 36v122h-187v102h305v-274q-111 -102 -267 -102q-160 0 -267.5 105t-107.5 255q0 151 106.5 256.5t266.5 105.5q141 0 254 -84l-58 -96q-95 65 -193 65z" />
    <glyph glyph-name="H" unicode="H" horiz-adv-x="732" 
d="M642 0h-128v283h-296v-283h-128v700h128v-315h296v315h128v-700z" />
    <glyph glyph-name="I" unicode="I" horiz-adv-x="308" 
d="M218 700v-700h-128v700h128z" />
    <glyph glyph-name="J" unicode="J" horiz-adv-x="663" 
d="M583 700v-387q0 -160 -74.5 -242t-214.5 -82q-70 0 -123 21.5t-83.5 58t-45.5 79.5t-15 90q0 61 27 101h119q-24 -47 -24 -93q0 -56 37 -101.5t107 -45.5q162 0 162 214v387h128z" />
    <glyph glyph-name="K" unicode="K" horiz-adv-x="649" 
d="M217 316v-316h-128v700h128v-332l227 332h133v-16l-238 -337l110 -166q39 -52 57 -67.5t47 -15.5q32 0 62 21q7 -14 46 -90q-51 -40 -128 -40q-114 0 -195 138z" />
    <glyph glyph-name="L" unicode="L" horiz-adv-x="554" 
d="M218 102h318v-102h-446v700h128v-598z" />
    <glyph glyph-name="M" unicode="M" horiz-adv-x="945" 
d="M516 8h-87l-200 481l-42 -489h-128l65 700h134l215 -515l214 515h134l66 -700h-128l-43 489z" />
    <glyph glyph-name="N" unicode="N" horiz-adv-x="751" 
d="M565 0l-347 472v-472h-128v700h97l346 -469v469h128v-700h-96z" />
    <glyph glyph-name="O" unicode="O" horiz-adv-x="814" 
d="M41 350q0 149 108 255t258 106t258 -106t108 -255t-108 -255t-258 -106t-258 106t-108 255zM171 350q0 -105 69 -175t167 -70t167 70t69 175t-69 175t-167 70t-167 -70t-69 -175z" />
    <glyph glyph-name="P" unicode="P" horiz-adv-x="635" 
d="M218 0h-128v700h294q101 0 160 -65t59 -160q0 -94 -58.5 -156.5t-160.5 -62.5h-166v-256zM218 357h146q50 0 79 32.5t29 86.5q0 55 -29 88t-79 33h-146v-240z" />
    <glyph glyph-name="Q" unicode="Q" horiz-adv-x="816" 
d="M172 350q0 -105 69 -175t167 -70t167 70t69 175t-69 175t-167 70t-167 -70t-69 -175zM482 -3q12 -89 112 -89q22 0 53.5 10t51.5 24l42 -90q-65 -49 -156 -49q-100 0 -157 55t-68 134q-134 18 -226.5 120t-92.5 238q0 149 108.5 255t258.5 106t258.5 -106t108.5 -255
q0 -128 -84.5 -227t-208.5 -126z" />
    <glyph glyph-name="R" unicode="R" horiz-adv-x="695" 
d="M217 359h154q50 0 79 32.5t29 84.5t-30 85t-78 33h-154v-235zM609 475q0 -78 -42 -135t-115 -76q12 -67 42.5 -115.5t81.5 -48.5q46 0 77 31l45 -88q-62 -54 -140 -54q-58 0 -102.5 29.5t-68.5 75.5t-36 86t-16 77h-118v-257h-128v700h302q100 0 159 -65.5t59 -159.5z
" />
    <glyph glyph-name="S" unicode="S" horiz-adv-x="585" 
d="M30 179l116 26q12 -46 50.5 -74.5t94.5 -28.5t91 24t35 65q0 60 -92 93l-90 31q-172 56 -172 197q0 90 67 144.5t165 54.5q87 0 147.5 -42t84.5 -118l-108 -45q-30 91 -124 91q-45 0 -74.5 -21.5t-29.5 -61.5q0 -58 83 -87l90 -33q94 -30 137 -84.5t43 -113.5
q0 -97 -72 -152t-178 -55q-102 0 -176 53t-88 137z" />
    <glyph glyph-name="T" unicode="T" horiz-adv-x="598" 
d="M20 700h558v-103h-216v-597h-128v597h-214v103z" />
    <glyph glyph-name="U" unicode="U" horiz-adv-x="728" 
d="M519 700h128v-438q0 -129 -81 -201t-202 -72q-122 0 -202.5 72t-80.5 201v438h128v-438q0 -78 44 -120.5t111 -42.5q66 0 110.5 42.5t44.5 120.5v438z" />
    <glyph glyph-name="V" unicode="V" horiz-adv-x="661" 
d="M392 0h-123q-40 117 -122 349.5t-123 350.5h133l174 -537l174 537h133z" />
    <glyph glyph-name="W" unicode="W" horiz-adv-x="993" 
d="M546 677l143 -458l149 481h129l-219 -700h-104l-147 475l-147 -475h-105l-219 700h129l149 -481l144 458h98z" />
    <glyph glyph-name="X" unicode="X" horiz-adv-x="692" 
d="M346 267l-197 -267h-148v12l272 358l-245 314v16h145l173 -232l173 232h145v-16l-245 -314l272 -358v-12h-148z" />
    <glyph glyph-name="Y" unicode="Y" horiz-adv-x="704" 
d="M351 400l189 300h143v-13l-267 -400v-287h-128v286l-267 401v13h143z" />
    <glyph glyph-name="Z" unicode="Z" horiz-adv-x="657" 
d="M626 102v-102h-597v88l403 509h-375v103h545v-89l-406 -509h430z" />
    <glyph glyph-name="bracketleft" unicode="[" horiz-adv-x="363" 
d="M69 -216v962h269v-97h-153v-768h153v-97h-269z" />
    <glyph glyph-name="backslash" unicode="\" horiz-adv-x="544" 
d="M409 -38l-383 775h110l382 -775h-109z" />
    <glyph glyph-name="bracketright" unicode="]" horiz-adv-x="363" 
d="M294 746v-962h-269v97h152v768h-152v97h269z" />
    <glyph glyph-name="asciicircum" unicode="^" horiz-adv-x="535" 
d="M494 350h-113l-114 245q-32 -61 -114 -245h-112l181 361h92z" />
    <glyph glyph-name="underscore" unicode="_" horiz-adv-x="712" 
d="M0 -162v104h712v-104h-712z" />
    <glyph glyph-name="grave" unicode="`" horiz-adv-x="532" 
d="M129 736h133l93 -161h-97z" />
    <glyph glyph-name="a" unicode="a" horiz-adv-x="651" 
d="M458 506h123v-506h-123v76q-56 -87 -173 -87q-110 0 -179 76.5t-69 189.5q0 111 68 186.5t181 75.5q112 0 172 -86v75zM161 254q0 -70 40.5 -116t108.5 -46q65 0 108 42t43 115q0 74 -42.5 119.5t-111.5 45.5q-67 0 -106.5 -46t-39.5 -114z" />
    <glyph glyph-name="b" unicode="b" horiz-adv-x="650" 
d="M613 255q0 -113 -69 -189.5t-179 -76.5q-117 0 -173 87v-76h-123v723h123v-292q60 86 172 86q113 0 181 -75.5t68 -186.5zM489 254q0 68 -39.5 114t-106.5 46q-68 0 -110.5 -45.5t-42.5 -119.5q0 -73 42.5 -115t107.5 -42q68 0 108.5 46t40.5 116z" />
    <glyph glyph-name="c" unicode="c" horiz-adv-x="538" 
d="M35 250q0 116 77 191.5t208 75.5q101 0 195 -68l-57 -88q-56 46 -132 46q-74 0 -120.5 -43t-46.5 -111t47 -111t120 -43q77 0 132 46l57 -87q-92 -69 -195 -69q-129 0 -207 74t-78 187z" />
    <glyph glyph-name="d" unicode="d" horiz-adv-x="651" 
d="M161 254q0 -70 40.5 -116t108.5 -46q65 0 107.5 42t42.5 115q0 74 -42.5 119.5t-111.5 45.5q-67 0 -106 -46t-39 -114zM458 723h123v-723h-123v76q-57 -87 -174 -87q-110 0 -178.5 76.5t-68.5 189.5q0 111 67.5 186.5t180.5 75.5q110 0 173 -86v292z" />
    <glyph glyph-name="e" unicode="e" horiz-adv-x="605" 
d="M485 155l70 -69q-87 -97 -229 -97q-132 0 -211.5 75.5t-79.5 186.5q0 113 79 189.5t198 76.5q111 0 188.5 -71.5t77.5 -209.5h-420q0 -62 47.5 -102.5t126.5 -40.5q85 0 153 62zM312 419q-48 0 -88.5 -23t-59.5 -77h288q-13 53 -53 76.5t-87 23.5z" />
    <glyph glyph-name="f" unicode="f" horiz-adv-x="386" 
d="M229 559v-53h123v-94h-123v-412h-125v412h-75v94h75v34q0 56 15 95.5t41.5 59.5t55.5 29t64 9q77 0 116.5 -40t39.5 -99q0 -14 -5 -28h-99q3 8 3 17q0 48 -50 48q-24 0 -40 -18.5t-16 -53.5z" />
    <glyph glyph-name="g" unicode="g" horiz-adv-x="650" 
d="M161 254q0 -70 40.5 -116t108.5 -46q65 0 108 42t43 115q0 74 -42.5 119.5t-111.5 45.5q-67 0 -106.5 -46t-39.5 -114zM83 -168q17 32 49 96q31 -27 75.5 -44t89.5 -17q71 0 116 36t45 113v59q-26 -40 -72.5 -63t-100.5 -23q-110 0 -179 76.5t-69 189.5q0 111 68 186.5
t181 75.5q112 0 172 -86v75h123v-451q0 -151 -71.5 -223t-197.5 -72q-139 0 -229 72z" />
    <glyph glyph-name="h" unicode="h" 
d="M70 0v723h123v-302q46 96 163 96q93 0 140.5 -62t47.5 -175v-280h-123v279q0 65 -26.5 99.5t-72.5 34.5q-51 0 -90 -40t-39 -120v-253h-123z" />
    <glyph glyph-name="i" unicode="i" horiz-adv-x="267" 
d="M195 0h-123v506h123v-506zM54 656q0 33 22.5 55.5t57.5 22.5t58.5 -22.5t23.5 -55.5t-23.5 -55t-58.5 -22t-57.5 22t-22.5 55z" />
    <glyph glyph-name="j" unicode="j" horiz-adv-x="305" 
d="M110 -84v590h123v-581q0 -84 -48 -124.5t-119 -40.5q-78 0 -118.5 40t-40.5 100q0 26 7 41h103q-4 -11 -4 -29q0 -50 48 -50q23 0 36 15t13 39zM91 656q0 33 22.5 55.5t57.5 22.5t58.5 -22.5t23.5 -55.5t-23.5 -55t-58.5 -22t-57.5 22t-22.5 55z" />
    <glyph glyph-name="k" unicode="k" horiz-adv-x="568" 
d="M192 297l159 209h136v-15l-176 -217l76 -118q22 -32 37.5 -44t41.5 -12q36 0 60 18l44 -85q-47 -44 -121 -44q-53 0 -88.5 24.5t-66.5 67.5l-102 164v-245h-123v723h123v-426z" />
    <glyph glyph-name="l" unicode="l" horiz-adv-x="267" 
d="M195 0h-123v723h123v-723z" />
    <glyph glyph-name="m" unicode="m" horiz-adv-x="917" 
d="M401 0v279q0 66 -24.5 100t-69.5 34q-47 0 -79.5 -38t-34.5 -116v-259h-123v506h123v-85q20 46 59.5 71t89.5 25q114 0 158 -95q47 95 166 95q188 0 188 -237v-280h-123v279q0 66 -24.5 100t-69.5 34q-47 0 -79.5 -38t-34.5 -116v-259h-122z" />
    <glyph glyph-name="n" unicode="n" 
d="M70 0v506h123v-85q46 96 164 96q93 0 140 -62t47 -175v-280h-123v279q0 65 -26 99.5t-72 34.5q-57 0 -93.5 -41.5t-36.5 -118.5v-253h-123z" />
    <glyph glyph-name="o" unicode="o" horiz-adv-x="619" 
d="M35 253q0 109 81.5 186.5t192.5 77.5t193 -78t82 -186q0 -109 -81.5 -186.5t-193.5 -77.5q-111 0 -192.5 77.5t-81.5 186.5zM159 253q0 -66 43.5 -112.5t106.5 -46.5q64 0 107.5 46.5t43.5 112.5t-43.5 112.5t-107.5 46.5q-63 0 -106.5 -46.5t-43.5 -112.5z" />
    <glyph glyph-name="p" unicode="p" horiz-adv-x="651" 
d="M193 -229h-123v735h123v-76q56 87 173 87q111 0 179.5 -76t68.5 -190q0 -111 -68 -186.5t-181 -75.5q-112 0 -172 86v-304zM490 252q0 70 -40.5 116t-108.5 46q-65 0 -108 -42t-43 -115t43 -119t111 -46q67 0 106.5 46t39.5 114z" />
    <glyph glyph-name="q" unicode="q" horiz-adv-x="648" 
d="M580 -229h-123v304q-63 -86 -173 -86q-113 0 -180.5 75.5t-67.5 186.5q0 114 68.5 190t178.5 76q117 0 174 -87v76h123v-735zM160 252q0 -68 39 -114t106 -46q69 0 112 46t43 119t-43 115t-108 42q-68 0 -108.5 -46t-40.5 -116z" />
    <glyph glyph-name="r" unicode="r" horiz-adv-x="384" 
d="M191 506v-112q11 60 51.5 91.5t86.5 31.5q16 0 42 -7v-121q-27 10 -58 10q-20 0 -38.5 -6.5t-38 -23t-31.5 -51.5t-12 -84v-234h-123v506h121z" />
    <glyph glyph-name="s" unicode="s" horiz-adv-x="462" 
d="M26 120l97 41q9 -36 39.5 -54.5t68.5 -18.5q31 0 53.5 12.5t22.5 40.5q0 31 -55 54l-74 28q-127 47 -127 141q0 69 52.5 111t132.5 42q137 0 177 -113l-99 -36q-16 52 -77 52q-26 0 -46 -14t-20 -39q0 -19 14 -30.5t39 -21.5l75 -27q73 -23 101 -63t28 -82
q0 -72 -57.5 -113t-140.5 -41q-70 0 -127 32t-77 99z" />
    <glyph glyph-name="t" unicode="t" horiz-adv-x="437" 
d="M222 641v-135h151v-94h-151v-265q0 -55 49 -55q23 0 36.5 14.5t13.5 37.5q0 27 -7 42h101q11 -23 11 -57q0 -60 -41 -100t-119 -40q-73 0 -120 39.5t-47 135.5v248h-79v94h85l22 135h95z" />
    <glyph glyph-name="u" unicode="u" 
d="M537 506v-506h-123v85q-46 -96 -163 -96q-93 0 -140.5 62t-47.5 175v280h123v-279q0 -130 98 -130q50 0 90 46t40 144v219h123z" />
    <glyph glyph-name="v" unicode="v" horiz-adv-x="571" 
d="M554 506l-204 -506h-129l-204 506h133l135 -369l136 369h133z" />
    <glyph glyph-name="w" unicode="w" horiz-adv-x="824" 
d="M262 167l103 325h93l104 -325l109 339h133l-182 -506h-110l-100 319l-101 -319h-109l-182 506h132z" />
    <glyph glyph-name="x" unicode="x" horiz-adv-x="588" 
d="M294 180l-144 -180h-142v12l209 250l-193 234v10h142l128 -163l128 163h142v-10l-193 -234l209 -250v-12h-142z" />
    <glyph glyph-name="y" unicode="y" horiz-adv-x="574" 
d="M291 159l132 347h138l-314 -735h-121l103 259l-215 476h139z" />
    <glyph glyph-name="z" unicode="z" horiz-adv-x="570" 
d="M538 98v-98h-508v74l313 335h-295v97h471v-74l-313 -334h332z" />
    <glyph glyph-name="braceleft" unicode="{" horiz-adv-x="350" 
d="M172 263v-6q34 -8 51 -32.5t17 -55.5q0 -34 -29.5 -114t-29.5 -121q0 -71 64 -71h6q56 5 69 6v-81q-72 -7 -90 -7q-69 0 -116.5 36t-47.5 107q0 57 38 163q29 82 29 105q0 8 -7 14.5t-19.5 10.5t-24 6t-25.5 4t-19 3v67l18 3t19 3.5t17.5 4t16.5 5t12 5.5t9 7.5t3 9.5
q0 14 -4 25q-5 21 -34 108.5t-29 134.5q0 71 47 107t117 36q18 0 90 -7v-81q-42 6 -75 6q-64 0 -64 -71q0 -41 29.5 -121t29.5 -114q0 -31 -17 -56t-51 -33v-6z" />
    <glyph glyph-name="bar" unicode="|" horiz-adv-x="221" 
d="M152 -229h-83v991h83v-991z" />
    <glyph glyph-name="braceright" unicode="}" horiz-adv-x="351" 
d="M179 257v6v6q-34 8 -51 33t-17 56q0 34 29.5 114t29.5 121q0 71 -64 71q-33 0 -75 -6v81q72 7 90 7q70 0 117 -36t47 -107q0 -47 -29 -134.5t-34 -108.5q-4 -11 -4 -25q0 -5 3 -9.5t9 -7.5t12 -5.5t16.5 -5t17.5 -4t19 -3.5l18 -3v-67q-5 -1 -19 -3t-25.5 -4t-24 -6
t-19.5 -10.5t-7 -14.5q0 -23 29 -105q38 -106 38 -163q0 -71 -47.5 -107t-116.5 -36q-18 0 -90 7v81q13 -1 69 -6h6q64 0 64 71q0 41 -29.5 121t-29.5 114q0 31 17 55.5t51 32.5z" />
    <glyph glyph-name="asciitilde" unicode="~" horiz-adv-x="596" 
d="M485 384l54 -69q-16 -45 -52.5 -72.5t-84.5 -27.5q-44 0 -106 36t-99 36q-65 0 -87 -58l-52 71q12 41 48.5 69.5t86.5 28.5q39 0 104.5 -36.5t99.5 -36.5q59 0 88 59z" />
    <glyph glyph-name="uni00A0" unicode="&#xa0;" horiz-adv-x="254" 
 />
    <glyph glyph-name="exclamdown" unicode="&#xa1;" horiz-adv-x="263" 
d="M205 -179v-15h-148v15l31 459h86zM48 438q0 34 24 56.5t60 22.5q35 0 59.5 -22.5t24.5 -56.5q0 -35 -24 -58t-60 -23t-60 23t-24 58z" />
    <glyph glyph-name="cent" unicode="&#xa2;" horiz-adv-x="565" 
d="M44 250q0 113 74 189t200 78l16 89h67l-17 -95q69 -12 138 -62l-57 -88q-43 35 -100 43l-56 -303q8 -3 29 -3q72 0 127 46l57 -87q-89 -68 -194 -68q-20 0 -39 3l-17 -97h-67l20 109q-86 26 -133.5 91.5t-47.5 154.5zM167 253q0 -90 79 -134l51 285q-59 -10 -94.5 -50.5
t-35.5 -100.5z" />
    <glyph glyph-name="sterling" unicode="&#xa3;" horiz-adv-x="637" 
d="M464 285h-160q11 -33 11 -70q0 -33 -15.5 -64.5t-46.5 -48.5v-5q48 5 123 5h219v-102h-556v102q91 3 123.5 33t32.5 77q0 30 -12 73h-124v65h99q-43 110 -43 162q0 88 68 143.5t169 55.5q58 0 103 -17.5t70.5 -46t38 -61t12.5 -65.5h-118q0 37 -27.5 60t-76.5 23
q-54 0 -84.5 -25.5t-30.5 -70.5q0 -56 42 -158h183v-65z" />
    <glyph glyph-name="currency" unicode="&#xa4;" horiz-adv-x="538" 
d="M268 229q38 0 65.5 28.5t27.5 68.5q0 42 -27 70t-66 28q-38 0 -65.5 -28.5t-27.5 -69.5q0 -40 27.5 -68.5t65.5 -28.5zM268 140q-52 0 -93 24l-59 -57l-66 68l56 55q-26 46 -26 97q0 49 25 92l-54 54l68 68l52 -53q44 26 97 26q54 0 98 -26l52 53l67 -68l-53 -54
q24 -45 24 -92q0 -53 -26 -97l57 -55l-67 -68l-58 57q-42 -24 -94 -24z" />
    <glyph glyph-name="yen" unicode="&#xa5;" horiz-adv-x="728" 
d="M609 147h-181v-147h-128v147h-182v69h182v68h-182v68h138l-225 335v13h147l186 -300l186 300h147v-13l-226 -335h138v-68h-181v-68h181v-69z" />
    <glyph glyph-name="brokenbar" unicode="&#xa6;" horiz-adv-x="233" 
d="M158 349h-83v414h83v-414zM158 -229h-83v414h83v-414z" />
    <glyph glyph-name="section" unicode="&#xa7;" horiz-adv-x="599" 
d="M41 -61l44 85q105 -80 217 -80q62 0 93.5 21.5t31.5 53.5q0 49 -96 72l-95 24q-92 25 -131.5 71t-39.5 94q0 83 89 131q-89 49 -89 131q0 75 68.5 122t164.5 47q116 0 222 -56l-47 -91q-92 47 -170 47q-52 0 -83.5 -17t-31.5 -49q0 -18 18.5 -37t64.5 -31l91 -23
q92 -24 139 -63t47 -102q0 -39 -20.5 -77.5t-60.5 -61.5q83 -47 83 -126q0 -77 -66.5 -128.5t-182.5 -51.5q-84 0 -151.5 26.5t-108.5 68.5zM431 272q0 53 -59 69l-124 30q-65 -27 -65 -82q0 -53 66 -69l113 -29q32 10 50 31.5t19 49.5z" />
    <glyph glyph-name="dieresis" unicode="&#xa8;" horiz-adv-x="649" 
d="M134 656q0 31 21.5 51.5t53.5 20.5t53.5 -20.5t21.5 -51.5q0 -30 -21.5 -50.5t-53.5 -20.5t-53.5 20.5t-21.5 50.5zM365 656q0 31 21 51.5t53 20.5t54 -20.5t22 -51.5q0 -30 -22 -50.5t-54 -20.5t-53 20.5t-21 50.5z" />
    <glyph glyph-name="copyright" unicode="&#xa9;" horiz-adv-x="798" 
d="M46 350q0 150 102 255.5t251 105.5t251 -105.5t102 -255.5t-102 -255.5t-251 -105.5t-251 105.5t-102 255.5zM112 350q0 -123 83.5 -209t203.5 -86q122 0 204.5 85.5t82.5 209.5q0 122 -83 208.5t-204 86.5q-120 0 -203.5 -86.5t-83.5 -208.5zM209 349q0 79 56 134
t145 55q62 0 131 -48l-38 -62q-43 31 -93 31q-54 0 -83 -32.5t-29 -76.5q0 -45 29 -77t83 -32q49 0 93 30l38 -62q-67 -47 -131 -47q-89 0 -145 54.5t-56 132.5z" />
    <glyph glyph-name="ordfeminine" unicode="&#xaa;" horiz-adv-x="502" 
d="M424 365h-95v50q-17 -27 -48 -41.5t-62 -14.5q-70 0 -112 50t-42 124t42 124t114 50q75 0 108 -56v49h95v-335zM330 532q0 40 -24 65t-62 25q-37 0 -59 -25.5t-22 -62.5q0 -39 22.5 -64.5t59.5 -25.5t60 23.5t25 64.5zM78 204v71h340v-71h-340z" />
    <glyph glyph-name="guillemotleft" unicode="&#xab;" horiz-adv-x="592" 
d="M283 288v22l193 221l71 -61l-148 -171l148 -169l-71 -62zM40 288v22l192 221l72 -61l-148 -171l147 -169l-71 -62z" />
    <glyph glyph-name="logicalnot" unicode="&#xac;" horiz-adv-x="623" 
d="M54 364v105h497v-277h-105v172h-392z" />
    <glyph glyph-name="uni00AD" unicode="&#xad;" horiz-adv-x="539" 
d="M65 274v105h409v-105h-409z" />
    <glyph glyph-name="registered" unicode="&#xae;" horiz-adv-x="798" 
d="M358 363h60q18 0 29 13.5t11 34.5q0 19 -11.5 36t-28.5 17h-60v-101zM544 411q0 -82 -72 -107q61 -100 77 -135h-90l-67 127h-34v-127h-85v363h155q54 0 85 -35t31 -86zM46 350q0 150 102 255.5t251 105.5t251 -105.5t102 -255.5t-102 -255.5t-251 -105.5t-251 105.5
t-102 255.5zM112 350q0 -124 82.5 -209.5t204.5 -85.5q120 0 203.5 86t83.5 209q0 122 -83.5 208.5t-203.5 86.5q-121 0 -204 -86.5t-83 -208.5z" />
    <glyph glyph-name="macron" unicode="&#xaf;" horiz-adv-x="557" 
d="M130 693h297v-90h-297v90z" />
    <glyph glyph-name="degree" unicode="&#xb0;" horiz-adv-x="422" 
d="M40 552q0 71 49.5 121t121.5 50t121.5 -49.5t49.5 -121.5q0 -70 -49.5 -119t-121.5 -49t-121.5 49t-49.5 119zM120 552q0 -40 26 -67t65 -27q41 0 66.5 27t25.5 67q0 42 -25.5 69.5t-66.5 27.5q-40 0 -65.5 -27.5t-25.5 -69.5z" />
    <glyph glyph-name="plusminus" unicode="&#xb1;" horiz-adv-x="618" 
d="M363 213h-108v144h-187v98h187v143h108v-143h186v-98h-186v-144zM549 58h-481v97h481v-97z" />
    <glyph glyph-name="twosuperior" unicode="&#xb2;" horiz-adv-x="332" 
d="M224 560l-71 -63q19 3 51 3h100v-63h-269l-8 45l145 127q42 35 42 71q0 47 -51 47q-29 0 -42.5 -16t-13.5 -37h-77q0 44 32.5 81.5t100.5 37.5q59 0 93.5 -31.5t34.5 -81.5q0 -64 -67 -120z" />
    <glyph glyph-name="threesuperior" unicode="&#xb3;" horiz-adv-x="329" 
d="M153 493q30 0 49 17.5t19 41.5q0 26 -19 43t-44 17q-26 0 -45 -10l-30 39l98 85h-145v61h253v-43l-94 -86q48 -5 76.5 -34.5t28.5 -71.5q0 -52 -40 -86.5t-108 -34.5q-81 0 -129 43l40 50q40 -31 90 -31z" />
    <glyph glyph-name="acute" unicode="&#xb4;" horiz-adv-x="532" 
d="M222 736h133l-130 -161h-96z" />
    <glyph glyph-name="mu" unicode="&#xb5;" horiz-adv-x="606" 
d="M66 -156v662h123v-290q0 -59 26 -91t72 -32q57 0 93.5 41.5t36.5 118.5v253h123v-506h-123v85q-46 -96 -164 -96q-35 0 -69 12v-157h-118z" />
    <glyph glyph-name="paragraph" unicode="&#xb6;" horiz-adv-x="662" 
d="M197 700h161v-14q-37 -29 -37 -84v-744h-82v511h-42q-69 0 -116.5 48t-47.5 117t47.5 117.5t116.5 48.5zM460 587v-729h-81v733q0 57 36.5 88.5t89.5 31.5q61 0 93.5 -30.5t32.5 -78.5q0 -11 -1 -16q-1 -13 -8 -32h-77q7 19 7 37q0 21 -13.5 32t-32.5 11q-20 0 -33 -12
t-13 -35z" />
    <glyph glyph-name="periodcentered" unicode="&#xb7;" horiz-adv-x="282" 
d="M57 278q0 34 24 57.5t59 23.5t60 -23.5t25 -57.5t-25 -57t-60 -23t-59 23t-24 57z" />
    <glyph glyph-name="cedilla" unicode="&#xb8;" horiz-adv-x="455" 
d="M215 9v14h59q47 -27 68.5 -63t21.5 -69q0 -59 -41 -87.5t-90 -28.5q-52 0 -89 31t-54 79l60 29q27 -56 72 -56q24 0 39 15t15 40q0 61 -61 96z" />
    <glyph glyph-name="onesuperior" unicode="&#xb9;" horiz-adv-x="227" 
d="M28 669l-20 59l133 59h44v-350h-80v265z" />
    <glyph glyph-name="ordmasculine" unicode="&#xba;" horiz-adv-x="490" 
d="M63 531q0 72 54 123t127 51t127 -51.5t54 -122.5q0 -72 -54 -124t-127 -52q-74 0 -127.5 51.5t-53.5 124.5zM161 530q0 -37 23.5 -62.5t59.5 -25.5q35 0 59 25.5t24 62.5t-24 63t-59 26q-36 0 -59.5 -26t-23.5 -63zM75 204v71h340v-71h-340z" />
    <glyph glyph-name="guillemotright" unicode="&#xbb;" horiz-adv-x="591" 
d="M309 310v-22l-193 -220l-71 62l148 169l-148 171l71 61zM552 310v-22l-192 -220l-71 62l147 169l-148 171l72 61z" />
    <glyph glyph-name="onequarter" unicode="&#xbc;" horiz-adv-x="837" 
d="M732 735l-547 -774h-92l546 774h93zM52 582l-20 59l133 59h44v-350h-80v265zM563 149h90v103zM650 90h-170v42l183 218h66v-201h71v-59h-71v-90h-79v90z" />
    <glyph glyph-name="onehalf" unicode="&#xbd;" horiz-adv-x="873" 
d="M732 735l-547 -774h-92l546 774h93zM52 582l-20 59l133 59h44v-350h-80v265zM753 123l-71 -63q19 3 51 3h100v-63h-269l-8 45l145 127q42 35 42 71q0 47 -51 47q-29 0 -42.5 -16t-13.5 -37h-77q0 44 32.5 81.5t100.5 37.5q59 0 93.5 -31.5t34.5 -81.5q0 -64 -67 -120z
" />
    <glyph glyph-name="threequarters" unicode="&#xbe;" horiz-adv-x="883" 
d="M781 735l-547 -774h-92l546 774h93zM612 149h90v103zM699 90h-170v42l183 218h66v-201h71v-59h-71v-90h-79v90zM167 406q30 0 49 17.5t19 41.5q0 26 -19 43t-44 17q-26 0 -45 -10l-30 39l98 85h-145v61h253v-43l-94 -86q48 -5 76.5 -34.5t28.5 -71.5q0 -52 -40 -86.5
t-108 -34.5q-81 0 -129 43l40 50q40 -31 90 -31z" />
    <glyph glyph-name="questiondown" unicode="&#xbf;" horiz-adv-x="524" 
d="M231 280h114q0 -61 -10 -84.5t-58 -52.5q-65 -40 -92.5 -70.5t-27.5 -74.5q0 -45 30.5 -71t82.5 -26q46 0 75 22t29 58q0 19 -9 45h118q8 -16 10 -42q0 -31 -11.5 -61.5t-35.5 -60t-70 -48t-108 -18.5q-103 0 -169.5 54.5t-66.5 144.5q0 70 45 122.5t125 102.5
q29 17 29 60zM373 438q0 -35 -24 -58t-60 -23t-60 23t-24 58q0 34 24.5 56.5t59.5 22.5q36 0 60 -22.5t24 -56.5z" />
    <glyph glyph-name="Agrave" unicode="&#xc0;" horiz-adv-x="692" 
d="M203 904h130l82 -147h-95zM141 0h-132l270 700h133l272 -700h-131l-53 137h-308zM463 241l-117 329l-118 -329h235z" />
    <glyph glyph-name="Aacute" unicode="&#xc1;" horiz-adv-x="692" 
d="M359 904h130l-117 -147h-96zM141 0h-132l270 700h133l272 -700h-131l-53 137h-308zM463 241l-117 329l-118 -329h235z" />
    <glyph glyph-name="Acircumflex" unicode="&#xc2;" horiz-adv-x="692" 
d="M284 904h124l105 -147h-89l-78 83l-78 -83h-89zM141 0h-132l270 700h133l272 -700h-131l-53 137h-308zM463 241l-117 329l-118 -329h235z" />
    <glyph glyph-name="Atilde" unicode="&#xc3;" horiz-adv-x="692" 
d="M456 904l59 -18q-16 -59 -38.5 -86t-62.5 -27q-28 0 -73 18.5t-59 18.5q-19 0 -29 -10t-22 -36l-59 18q16 59 38.5 86t62.5 27q28 0 73 -18.5t59 -18.5q19 0 29 10t22 36zM141 0h-132l270 700h133l272 -700h-131l-53 137h-308zM463 241l-117 329l-118 -329h235z" />
    <glyph glyph-name="Adieresis" unicode="&#xc4;" horiz-adv-x="692" 
d="M157 826q0 31 20.5 50t52.5 19t53 -19t21 -50q0 -30 -21 -48.5t-53 -18.5t-52.5 18.5t-20.5 48.5zM388 826q0 31 20.5 50t52.5 19t53 -19t21 -50q0 -30 -21 -48.5t-53 -18.5t-52.5 18.5t-20.5 48.5zM141 0h-132l270 700h133l272 -700h-131l-53 137h-308zM463 241
l-117 329l-118 -329h235z" />
    <glyph glyph-name="Aring" unicode="&#xc5;" horiz-adv-x="692" 
d="M141 0h-132l270 700h133l272 -700h-131l-53 137h-308zM463 241l-117 329l-118 -329h235zM231 852q0 47 32.5 76t81.5 29t82 -29t33 -76t-33 -75t-82 -28t-81.5 28t-32.5 75zM290 852q0 -23 15.5 -36t39.5 -13t39 13t15 36t-15 36t-39 13t-39.5 -13t-15.5 -36z" />
    <glyph glyph-name="AE" unicode="&#xc6;" horiz-adv-x="919" 
d="M-6 0l375 700h501v-103h-304v-214h267v-102h-267v-179h304v-102h-432v277h-163q-128 -243 -146 -277h-135zM324 378h114v204h-10z" />
    <glyph glyph-name="Ccedilla" unicode="&#xc7;" horiz-adv-x="689" 
d="M448 -10q44 -48 44 -99q0 -59 -41 -87.5t-90 -28.5q-52 0 -89.5 31t-53.5 79q10 5 30 14.5t29 14.5q27 -56 73 -56q23 0 38 15t15 40q0 45 -36 79q-149 18 -237 119t-88 239q0 151 105 256t277 105q132 0 241 -82l-51 -96q-87 64 -189 64q-116 0 -184 -70.5t-68 -176.5
t68 -176.5t184 -70.5q104 0 189 64l51 -97q-100 -75 -217 -80z" />
    <glyph glyph-name="Egrave" unicode="&#xc8;" horiz-adv-x="594" 
d="M545 0h-455v700h455v-103h-327v-203h285v-102h-285v-190h327v-102zM168 904h130l82 -147h-95z" />
    <glyph glyph-name="Eacute" unicode="&#xc9;" horiz-adv-x="594" 
d="M545 0h-455v700h455v-103h-327v-203h285v-102h-285v-190h327v-102zM315 904h130l-117 -147h-96z" />
    <glyph glyph-name="Ecircumflex" unicode="&#xca;" horiz-adv-x="594" 
d="M545 0h-455v700h455v-103h-327v-203h285v-102h-285v-190h327v-102zM247 904h124l105 -147h-89l-78 83l-78 -83h-89z" />
    <glyph glyph-name="Edieresis" unicode="&#xcb;" horiz-adv-x="594" 
d="M545 0h-455v700h455v-103h-327v-203h285v-102h-285v-190h327v-102zM118 826q0 31 20.5 50t52.5 19t53 -19t21 -50q0 -30 -21 -48.5t-53 -18.5t-52.5 18.5t-20.5 48.5zM349 826q0 31 20.5 50t52.5 19t53 -19t21 -50q0 -30 -21 -48.5t-53 -18.5t-52.5 18.5t-20.5 48.5z" />
    <glyph glyph-name="Igrave" unicode="&#xcc;" horiz-adv-x="308" 
d="M11 904h130l82 -147h-95zM218 700v-700h-128v700h128z" />
    <glyph glyph-name="Iacute" unicode="&#xcd;" horiz-adv-x="308" 
d="M169 904h130l-117 -147h-96zM218 700v-700h-128v700h128z" />
    <glyph glyph-name="Icircumflex" unicode="&#xce;" horiz-adv-x="308" 
d="M93 904h124l105 -147h-89l-78 83l-78 -83h-89zM218 700v-700h-128v700h128z" />
    <glyph glyph-name="Idieresis" unicode="&#xcf;" horiz-adv-x="308" 
d="M-34 826q0 31 20.5 50t52.5 19t53 -19t21 -50q0 -30 -21 -48.5t-53 -18.5t-52.5 18.5t-20.5 48.5zM197 826q0 31 20.5 50t52.5 19t53 -19t21 -50q0 -30 -21 -48.5t-53 -18.5t-52.5 18.5t-20.5 48.5zM218 700v-700h-128v700h128z" />
    <glyph glyph-name="Eth" unicode="&#xd0;" horiz-adv-x="743" 
d="M27 303v89h63v307h248q156 0 259.5 -101.5t103.5 -247.5t-103.5 -248t-259.5 -102h-248v303h-63zM570 350q0 103 -66 175t-166 72h-120v-205h172v-89h-172v-201h120q100 0 166 72.5t66 175.5z" />
    <glyph glyph-name="Ntilde" unicode="&#xd1;" horiz-adv-x="751" 
d="M485 904l60 -18q-16 -59 -39 -86t-63 -27q-26 0 -72 18.5t-60 18.5q-19 0 -29.5 -10t-20.5 -36l-60 18q16 59 39 86t63 27q26 0 72 -18.5t60 -18.5q19 0 29.5 10t20.5 36zM565 0l-347 472v-472h-128v700h97l346 -469v469h128v-700h-96z" />
    <glyph glyph-name="Ograve" unicode="&#xd2;" horiz-adv-x="814" 
d="M249 904h130l83 -147h-96zM41 350q0 149 108 255t258 106t258 -106t108 -255t-108 -255t-258 -106t-258 106t-108 255zM171 350q0 -105 69 -175t167 -70t167 70t69 175t-69 175t-167 70t-167 -70t-69 -175z" />
    <glyph glyph-name="Oacute" unicode="&#xd3;" horiz-adv-x="814" 
d="M422 904h130l-117 -147h-95zM41 350q0 149 108 255t258 106t258 -106t108 -255t-108 -255t-258 -106t-258 106t-108 255zM171 350q0 -105 69 -175t167 -70t167 70t69 175t-69 175t-167 70t-167 -70t-69 -175z" />
    <glyph glyph-name="Ocircumflex" unicode="&#xd4;" horiz-adv-x="814" 
d="M344 904h125l105 -147h-89l-78 83l-78 -83h-89zM41 350q0 149 108 255t258 106t258 -106t108 -255t-108 -255t-258 -106t-258 106t-108 255zM171 350q0 -105 69 -175t167 -70t167 70t69 175t-69 175t-167 70t-167 -70t-69 -175z" />
    <glyph glyph-name="Otilde" unicode="&#xd5;" horiz-adv-x="814" 
d="M519 904l60 -18q-16 -59 -39 -86t-63 -27q-26 0 -72 18.5t-60 18.5q-19 0 -29.5 -10t-20.5 -36l-60 18q16 59 39 86t63 27q26 0 72 -18.5t60 -18.5q19 0 29.5 10t20.5 36zM41 350q0 149 108 255t258 106t258 -106t108 -255t-108 -255t-258 -106t-258 106t-108 255z
M171 350q0 -105 69 -175t167 -70t167 70t69 175t-69 175t-167 70t-167 -70t-69 -175z" />
    <glyph glyph-name="Odieresis" unicode="&#xd6;" horiz-adv-x="814" 
d="M217 826q0 31 21 50t53 19t53 -19t21 -50q0 -30 -21 -48.5t-53 -18.5t-53 18.5t-21 48.5zM448 826q0 31 20.5 50t52.5 19q33 0 54 -19.5t21 -49.5t-21 -48.5t-54 -18.5q-32 0 -52.5 18.5t-20.5 48.5zM41 350q0 149 108 255t258 106t258 -106t108 -255t-108 -255
t-258 -106t-258 106t-108 255zM171 350q0 -105 69 -175t167 -70t167 70t69 175t-69 175t-167 70t-167 -70t-69 -175z" />
    <glyph glyph-name="multiply" unicode="&#xd7;" horiz-adv-x="533" 
d="M482 168l-75 -75l-143 143l-143 -144l-71 72l143 143l-142 142l75 75l142 -142l143 143l72 -72l-144 -142z" />
    <glyph glyph-name="Oslash" unicode="&#xd8;" horiz-adv-x="814" 
d="M197 -48l-70 48l48 71q-134 114 -134 279q0 149 108 255t258 106q90 0 171 -43l50 75l70 -48l-51 -75q126 -111 126 -270q0 -149 -108 -255t-258 -106q-85 0 -160 36zM171 350q0 -108 72 -178l268 398q-47 25 -104 25q-98 0 -167 -70t-69 -175zM643 350q0 97 -64 168
l-265 -394q42 -19 93 -19q98 0 167 70t69 175z" />
    <glyph glyph-name="Ugrave" unicode="&#xd9;" horiz-adv-x="728" 
d="M228 904h130l83 -147h-96zM519 700h128v-438q0 -129 -81 -201t-202 -72q-122 0 -202.5 72t-80.5 201v438h128v-438q0 -78 44 -120.5t111 -42.5q66 0 110.5 42.5t44.5 120.5v438z" />
    <glyph glyph-name="Uacute" unicode="&#xda;" horiz-adv-x="728" 
d="M363 904h130l-117 -147h-96zM519 700h128v-438q0 -129 -81 -201t-202 -72q-122 0 -202.5 72t-80.5 201v438h128v-438q0 -78 44 -120.5t111 -42.5q66 0 110.5 42.5t44.5 120.5v438z" />
    <glyph glyph-name="Ucircumflex" unicode="&#xdb;" horiz-adv-x="728" 
d="M301 904h125l105 -147h-89l-78 83l-78 -83h-89zM519 700h128v-438q0 -129 -81 -201t-202 -72q-122 0 -202.5 72t-80.5 201v438h128v-438q0 -78 44 -120.5t111 -42.5q66 0 110.5 42.5t44.5 120.5v438z" />
    <glyph glyph-name="Udieresis" unicode="&#xdc;" horiz-adv-x="728" 
d="M174 826q0 31 21 50t53 19t53 -19t21 -50q0 -30 -21 -48.5t-53 -18.5t-53 18.5t-21 48.5zM405 826q0 31 20.5 50t52.5 19q33 0 54 -19.5t21 -49.5t-21 -48.5t-54 -18.5q-32 0 -52.5 18.5t-20.5 48.5zM519 700h128v-438q0 -129 -81 -201t-202 -72q-122 0 -202.5 72
t-80.5 201v438h128v-438q0 -78 44 -120.5t111 -42.5q66 0 110.5 42.5t44.5 120.5v438z" />
    <glyph glyph-name="Yacute" unicode="&#xdd;" horiz-adv-x="704" 
d="M358 904h130l-117 -147h-95zM351 400l189 300h143v-13l-267 -400v-287h-128v286l-267 401v13h143z" />
    <glyph glyph-name="Thorn" unicode="&#xde;" horiz-adv-x="636" 
d="M217 156v-156h-127v700h127v-156h214q75 0 125.5 -58t50.5 -136t-50.5 -136t-129.5 -58h-210zM217 259h170q44 0 66.5 26.5t22.5 64.5q0 92 -89 92h-170v-183z" />
    <glyph glyph-name="germandbls" unicode="&#xdf;" horiz-adv-x="608" 
d="M336 0h-59q-9 46 -22 102h81q52 0 83 29.5t31 73.5q0 55 -50.5 94t-134.5 39l-21 84q73 5 108.5 34.5t35.5 74.5q0 44 -26.5 66.5t-72.5 22.5q-42 0 -68.5 -31t-26.5 -79v-510h-124v510q0 106 59 162.5t163 56.5t162 -51t58 -139q0 -50 -27.5 -88.5t-79.5 -56.5
q75 -12 122 -64.5t47 -127.5q0 -89 -65.5 -145.5t-172.5 -56.5z" />
    <glyph glyph-name="agrave" unicode="&#xe0;" horiz-adv-x="650" 
d="M457 506h123v-506h-123v76q-56 -87 -173 -87q-110 0 -179 76.5t-69 189.5q0 111 68 186.5t181 75.5q112 0 172 -86v75zM160 254q0 -70 40.5 -116t108.5 -46q65 0 108 42t43 115q0 74 -43 119.5t-111 45.5q-67 0 -106.5 -46t-39.5 -114zM153 736h133l93 -161h-97z" />
    <glyph glyph-name="aacute" unicode="&#xe1;" horiz-adv-x="651" 
d="M458 506h123v-506h-123v76q-56 -87 -173 -87q-110 0 -179 76.5t-69 189.5q0 111 68 186.5t181 75.5q112 0 172 -86v75zM161 254q0 -70 40.5 -116t108.5 -46q65 0 108 42t43 115q0 74 -42.5 119.5t-111.5 45.5q-67 0 -106.5 -46t-39.5 -114zM350 736h133l-130 -161h-96z
" />
    <glyph glyph-name="acircumflex" unicode="&#xe2;" horiz-adv-x="651" 
d="M458 506h123v-506h-123v76q-56 -87 -173 -87q-110 0 -179 76.5t-69 189.5q0 111 68 186.5t181 75.5q112 0 172 -86v75zM161 254q0 -70 40.5 -116t108.5 -46q65 0 108 42t43 115q0 74 -42.5 119.5t-111.5 45.5q-67 0 -106.5 -46t-39.5 -114zM269 736h125l112 -161h-91
l-83 92l-84 -92h-90z" />
    <glyph glyph-name="atilde" unicode="&#xe3;" horiz-adv-x="651" 
d="M458 506h123v-506h-123v76q-56 -87 -173 -87q-110 0 -179 76.5t-69 189.5q0 111 68 186.5t181 75.5q112 0 172 -86v75zM161 254q0 -70 40.5 -116t108.5 -46q65 0 108 42t43 115q0 74 -42.5 119.5t-111.5 45.5q-67 0 -106.5 -46t-39.5 -114zM444 725l59 -18
q-16 -59 -38.5 -86t-62.5 -27q-28 0 -73 18.5t-59 18.5q-19 0 -29 -10t-22 -36l-59 18q16 59 38.5 86t62.5 27q28 0 73 -18.5t59 -18.5q19 0 29 10t22 36z" />
    <glyph glyph-name="adieresis" unicode="&#xe4;" horiz-adv-x="651" 
d="M458 506h123v-506h-123v76q-56 -87 -173 -87q-110 0 -179 76.5t-69 189.5q0 111 68 186.5t181 75.5q112 0 172 -86v75zM161 254q0 -70 40.5 -116t108.5 -46q65 0 108 42t43 115q0 74 -42.5 119.5t-111.5 45.5q-67 0 -106.5 -46t-39.5 -114zM129 656q0 31 21.5 51.5
t53.5 20.5t53.5 -20.5t21.5 -51.5q0 -30 -21.5 -50.5t-53.5 -20.5t-53.5 20.5t-21.5 50.5zM360 656q0 31 21 51.5t53 20.5t54 -20.5t22 -51.5q0 -30 -22 -50.5t-54 -20.5t-53 20.5t-21 50.5z" />
    <glyph glyph-name="aring" unicode="&#xe5;" horiz-adv-x="651" 
d="M458 506h123v-506h-123v76q-56 -87 -173 -87q-110 0 -179 76.5t-69 189.5q0 111 68 186.5t181 75.5q112 0 172 -86v75zM161 254q0 -70 40.5 -116t108.5 -46q65 0 108 42t43 115q0 74 -42.5 119.5t-111.5 45.5q-67 0 -106.5 -46t-39.5 -114zM210 680q0 48 33 79.5t81 31.5
t81.5 -31.5t33.5 -79.5q0 -47 -33.5 -78.5t-81.5 -31.5t-81 31.5t-33 78.5zM269 680q0 -23 16 -38.5t39 -15.5t38.5 15.5t15.5 38.5t-15.5 38t-38.5 15t-39 -15t-16 -38z" />
    <glyph glyph-name="ae" unicode="&#xe6;" horiz-adv-x="931" 
d="M238 314q84 0 147 -22v15q0 53 -35 79t-81 26q-94 0 -159 -52l-46 82q75 75 214 75q130 0 184 -82q68 82 188 82q110 0 182 -71t72 -210h-403q0 -62 45.5 -102.5t124.5 -40.5q45 0 76 15t64 47l70 -69q-88 -97 -216 -97q-151 0 -228 100q-72 -100 -206 -100
q-85 0 -143.5 44t-58.5 122q0 70 56.5 114.5t152.5 44.5zM650 419q-29 0 -55 -8t-51 -31.5t-36 -60.5h269q-24 100 -127 100zM385 219q-68 18 -128 18q-55 0 -79.5 -23t-24.5 -54t25 -52t73 -21q88 0 145 71q-10 37 -11 61z" />
    <glyph glyph-name="ccedilla" unicode="&#xe7;" horiz-adv-x="538" 
d="M35 250q0 116 77 191.5t208 75.5q101 0 195 -68l-57 -88q-56 46 -132 46q-74 0 -120.5 -43t-46.5 -111t47 -111t120 -43q77 0 132 46l57 -87q-85 -63 -181 -69q47 -47 47 -99q0 -60 -41 -87.5t-90 -27.5q-52 0 -89.5 30.5t-53.5 78.5l59 30q27 -56 73 -56q23 0 38 14.5
t15 40.5q0 22 -11.5 45.5t-34.5 38.5q-98 20 -154.5 89t-56.5 164z" />
    <glyph glyph-name="egrave" unicode="&#xe8;" horiz-adv-x="605" 
d="M485 155l70 -69q-87 -97 -229 -97q-132 0 -211.5 75.5t-79.5 186.5q0 113 79 189.5t198 76.5q111 0 188.5 -71.5t77.5 -209.5h-420q0 -62 47.5 -102.5t126.5 -40.5q85 0 153 62zM312 419q-48 0 -88.5 -23t-59.5 -77h288q-13 53 -53 76.5t-87 23.5zM143 736h133l93 -161
h-97z" />
    <glyph glyph-name="eacute" unicode="&#xe9;" horiz-adv-x="605" 
d="M485 155l70 -69q-87 -97 -229 -97q-132 0 -211.5 75.5t-79.5 186.5q0 113 79 189.5t198 76.5q111 0 188.5 -71.5t77.5 -209.5h-420q0 -62 47.5 -102.5t126.5 -40.5q85 0 153 62zM312 419q-48 0 -88.5 -23t-59.5 -77h288q-13 53 -53 76.5t-87 23.5zM339 736h133l-130 -161
h-96z" />
    <glyph glyph-name="ecircumflex" unicode="&#xea;" horiz-adv-x="605" 
d="M485 155l70 -69q-87 -97 -229 -97q-132 0 -211.5 75.5t-79.5 186.5q0 113 79 189.5t198 76.5q111 0 188.5 -71.5t77.5 -209.5h-420q0 -62 47.5 -102.5t126.5 -40.5q85 0 153 62zM312 419q-48 0 -88.5 -23t-59.5 -77h288q-13 53 -53 76.5t-87 23.5zM241 736h125l112 -161
h-91l-83 92l-84 -92h-90z" />
    <glyph glyph-name="edieresis" unicode="&#xeb;" horiz-adv-x="605" 
d="M485 155l70 -69q-87 -97 -229 -97q-132 0 -211.5 75.5t-79.5 186.5q0 113 79 189.5t198 76.5q111 0 188.5 -71.5t77.5 -209.5h-420q0 -62 47.5 -102.5t126.5 -40.5q85 0 153 62zM312 419q-48 0 -88.5 -23t-59.5 -77h288q-13 53 -53 76.5t-87 23.5zM114 656
q0 31 21.5 51.5t53.5 20.5t53.5 -20.5t21.5 -51.5q0 -30 -21.5 -50.5t-53.5 -20.5t-53.5 20.5t-21.5 50.5zM345 656q0 31 21 51.5t53 20.5t54 -20.5t22 -51.5q0 -30 -22 -50.5t-54 -20.5t-53 20.5t-21 50.5z" />
    <glyph glyph-name="igrave" unicode="&#xec;" horiz-adv-x="267" 
d="M195 0h-123v506h123v-506zM-30 736h132l93 -161h-96q-22 28 -65 80.5t-64 80.5z" />
    <glyph glyph-name="iacute" unicode="&#xed;" horiz-adv-x="267" 
d="M195 0h-123v506h123v-506zM165 736h133l-129 -161h-97z" />
    <glyph glyph-name="icircumflex" unicode="&#xee;" horiz-adv-x="267" 
d="M195 0h-123v506h123v-506zM70 736h124l112 -161h-90l-84 92l-83 -92h-90q20 30 57.5 84t53.5 77z" />
    <glyph glyph-name="idieresis" unicode="&#xef;" horiz-adv-x="267" 
d="M195 0h-123v506h123v-506zM-57 656q0 31 21 51.5t53 20.5t53.5 -20.5t21.5 -51.5q0 -30 -21.5 -50.5t-53.5 -20.5t-53 20.5t-21 50.5zM173 656q0 31 21 51.5t53 20.5t54 -20.5t22 -51.5q0 -30 -22 -50.5t-54 -20.5t-53 20.5t-21 50.5z" />
    <glyph glyph-name="eth" unicode="&#xf0;" horiz-adv-x="604" 
d="M283 565l-117 -51l-25 58l90 40q-8 8 -37.5 32t-37.5 29l93 64q32 -25 91 -78l112 49l30 -58l-93 -40q178 -187 178 -365q0 -117 -76.5 -186.5t-184.5 -69.5q-114 0 -192 74.5t-78 181.5q0 105 73.5 171t168.5 66q71 0 96 -23q-37 56 -91 106zM160 245q0 -64 41 -107.5
t101 -43.5q67 0 104 42t37 111q0 64 -37 103t-101 39q-65 0 -105 -40t-40 -104z" />
    <glyph glyph-name="ntilde" unicode="&#xf1;" 
d="M411 725l59 -18q-16 -59 -38.5 -86t-62.5 -27q-28 0 -73 18.5t-59 18.5q-19 0 -29 -10t-22 -36l-59 18q16 59 38.5 86t62.5 27q28 0 73 -18.5t59 -18.5q19 0 29 10t22 36zM70 0v506h123v-85q46 96 164 96q93 0 140 -62t47 -175v-280h-123v279q0 65 -26 99.5t-72 34.5
q-57 0 -93.5 -41.5t-36.5 -118.5v-253h-123z" />
    <glyph glyph-name="ograve" unicode="&#xf2;" horiz-adv-x="619" 
d="M35 253q0 109 81.5 186.5t192.5 77.5t193 -78t82 -186q0 -109 -81.5 -186.5t-193.5 -77.5q-111 0 -192.5 77.5t-81.5 186.5zM159 253q0 -66 43.5 -112.5t106.5 -46.5q64 0 107.5 46.5t43.5 112.5t-43.5 112.5t-107.5 46.5q-63 0 -106.5 -46.5t-43.5 -112.5zM132 736h133
l93 -161h-97z" />
    <glyph glyph-name="oacute" unicode="&#xf3;" horiz-adv-x="619" 
d="M35 253q0 109 81.5 186.5t192.5 77.5t193 -78t82 -186q0 -109 -81.5 -186.5t-193.5 -77.5q-111 0 -192.5 77.5t-81.5 186.5zM159 253q0 -66 43.5 -112.5t106.5 -46.5q64 0 107.5 46.5t43.5 112.5t-43.5 112.5t-107.5 46.5q-63 0 -106.5 -46.5t-43.5 -112.5zM338 736h133
l-130 -161h-96z" />
    <glyph glyph-name="ocircumflex" unicode="&#xf4;" horiz-adv-x="619" 
d="M35 253q0 109 81.5 186.5t192.5 77.5t193 -78t82 -186q0 -109 -81.5 -186.5t-193.5 -77.5q-111 0 -192.5 77.5t-81.5 186.5zM159 253q0 -66 43.5 -112.5t106.5 -46.5q64 0 107.5 46.5t43.5 112.5t-43.5 112.5t-107.5 46.5q-63 0 -106.5 -46.5t-43.5 -112.5zM247 736h125
l112 -161h-91l-83 92l-84 -92h-90z" />
    <glyph glyph-name="otilde" unicode="&#xf5;" horiz-adv-x="619" 
d="M35 253q0 109 81.5 186.5t192.5 77.5t193 -78t82 -186q0 -109 -81.5 -186.5t-193.5 -77.5q-111 0 -192.5 77.5t-81.5 186.5zM159 253q0 -66 43.5 -112.5t106.5 -46.5q64 0 107.5 46.5t43.5 112.5t-43.5 112.5t-107.5 46.5q-63 0 -106.5 -46.5t-43.5 -112.5zM422 725
l59 -18q-16 -59 -38.5 -86t-62.5 -27q-28 0 -73 18.5t-59 18.5q-19 0 -29 -10t-22 -36l-59 18q16 59 38.5 86t62.5 27q28 0 73 -18.5t59 -18.5q19 0 29 10t22 36z" />
    <glyph glyph-name="odieresis" unicode="&#xf6;" horiz-adv-x="619" 
d="M35 253q0 109 81.5 186.5t192.5 77.5t193 -78t82 -186q0 -109 -81.5 -186.5t-193.5 -77.5q-111 0 -192.5 77.5t-81.5 186.5zM159 253q0 -66 43.5 -112.5t106.5 -46.5q64 0 107.5 46.5t43.5 112.5t-43.5 112.5t-107.5 46.5q-63 0 -106.5 -46.5t-43.5 -112.5zM119 656
q0 31 21.5 51.5t53.5 20.5t53.5 -20.5t21.5 -51.5q0 -30 -21.5 -50.5t-53.5 -20.5t-53.5 20.5t-21.5 50.5zM350 656q0 31 21 51.5t53 20.5t54 -20.5t22 -51.5q0 -30 -22 -50.5t-54 -20.5t-53 20.5t-21 50.5z" />
    <glyph glyph-name="divide" unicode="&#xf7;" horiz-adv-x="627" 
d="M230 112q0 34 24 55.5t60 21.5t60 -22t24 -55t-24 -54.5t-60 -21.5t-60 21.5t-24 54.5zM230 504q0 35 24 56.5t60 21.5t60 -21.5t24 -56.5q0 -33 -24 -54.5t-60 -21.5t-60 21.5t-24 54.5zM49 255v104h530v-104h-530z" />
    <glyph glyph-name="oslash" unicode="&#xf8;" horiz-adv-x="618" 
d="M565 485l-51 -58q69 -75 69 -174q0 -109 -81 -186.5t-193 -77.5q-81 0 -146 42l-56 -63l-55 49l54 61q-71 78 -71 175q0 109 81.5 186.5t192.5 77.5q79 0 147 -43l54 61zM158 253q0 -58 25 -88l201 227q-35 20 -75 20q-64 0 -107.5 -46.5t-43.5 -112.5zM460 253
q0 46 -24 86l-200 -225q32 -20 73 -20q64 0 107.5 46.5t43.5 112.5z" />
    <glyph glyph-name="ugrave" unicode="&#xf9;" 
d="M537 506v-506h-123v85q-46 -96 -163 -96q-93 0 -140.5 62t-47.5 175v280h123v-279q0 -130 98 -130q50 0 90 46t40 144v219h123zM152 736h133l93 -161h-96z" />
    <glyph glyph-name="uacute" unicode="&#xfa;" 
d="M537 506v-506h-123v85q-46 -96 -163 -96q-93 0 -140.5 62t-47.5 175v280h123v-279q0 -130 98 -130q50 0 90 46t40 144v219h123zM332 736h133l-130 -161h-96z" />
    <glyph glyph-name="ucircumflex" unicode="&#xfb;" 
d="M537 506v-506h-123v85q-46 -96 -163 -96q-93 0 -140.5 62t-47.5 175v280h123v-279q0 -130 98 -130q50 0 90 46t40 144v219h123zM241 736h124l112 -161h-90l-84 92l-83 -92h-91z" />
    <glyph glyph-name="udieresis" unicode="&#xfc;" 
d="M537 506v-506h-123v85q-46 -96 -163 -96q-93 0 -140.5 62t-47.5 175v280h123v-279q0 -130 98 -130q50 0 90 46t40 144v219h123zM115 656q0 31 21.5 51.5t53.5 20.5t53.5 -20.5t21.5 -51.5q0 -30 -21.5 -50.5t-53.5 -20.5t-53.5 20.5t-21.5 50.5zM346 656q0 31 21 51.5
t53 20.5t54 -20.5t22 -51.5q0 -30 -22 -50.5t-54 -20.5t-53 20.5t-21 50.5z" />
    <glyph glyph-name="yacute" unicode="&#xfd;" horiz-adv-x="574" 
d="M291 159l132 347h138l-314 -735h-121l103 259l-215 476h139zM305 736h133l-130 -161h-96z" />
    <glyph glyph-name="thorn" unicode="&#xfe;" horiz-adv-x="651" 
d="M614 255q0 -113 -68.5 -189.5t-178.5 -76.5q-117 0 -174 87v-305h-123v952h123v-292q63 86 173 86q113 0 180.5 -75.5t67.5 -186.5zM490 254q0 68 -39 114t-106 46q-69 0 -111.5 -45.5t-42.5 -119.5q0 -73 42.5 -115t107.5 -42q68 0 108.5 46t40.5 116z" />
    <glyph glyph-name="ydieresis" unicode="&#xff;" horiz-adv-x="574" 
d="M291 159l132 347h138l-314 -735h-121l103 259l-215 476h139zM95 656q0 31 21.5 51.5t53.5 20.5t53.5 -20.5t21.5 -51.5q0 -30 -21.5 -50.5t-53.5 -20.5t-53.5 20.5t-21.5 50.5zM326 656q0 31 21 51.5t53 20.5t54 -20.5t22 -51.5q0 -30 -22 -50.5t-54 -20.5t-53 20.5
t-21 50.5z" />
    <glyph glyph-name="Amacron" unicode="&#x100;" horiz-adv-x="692" 
d="M198 867h297v-90h-297v90zM141 0h-132l270 700h133l272 -700h-131l-53 137h-308zM463 241l-117 329l-118 -329h235z" />
    <glyph glyph-name="amacron" unicode="&#x101;" horiz-adv-x="651" 
d="M181 693h297v-90h-297v90zM458 506h123v-506h-123v76q-56 -87 -173 -87q-110 0 -179 76.5t-69 189.5q0 111 68 186.5t181 75.5q112 0 172 -86v75zM161 254q0 -70 40.5 -116t108.5 -46q65 0 108 42t43 115q0 74 -42.5 119.5t-111.5 45.5q-67 0 -106.5 -46t-39.5 -114z" />
    <glyph glyph-name="Abreve" unicode="&#x102;" horiz-adv-x="692" 
d="M346 838q61 0 71 71q22 0 75 -7q-5 -51 -31.5 -84.5t-55.5 -45t-59 -11.5q-50 0 -93.5 33.5t-52.5 107.5q52 7 75 7q10 -71 71 -71zM141 0h-132l270 700h133l272 -700h-131l-53 137h-308zM463 241l-117 329l-118 -329h235z" />
    <glyph glyph-name="abreve" unicode="&#x103;" horiz-adv-x="651" 
d="M322 660q64 0 70 76l78 -8q-7 -83 -50 -117.5t-98 -34.5q-25 0 -47.5 7t-45 22.5t-37.5 47t-19 75.5l79 8q6 -76 70 -76zM458 506h123v-506h-123v76q-56 -87 -173 -87q-110 0 -179 76.5t-69 189.5q0 111 68 186.5t181 75.5q112 0 172 -86v75zM161 254q0 -70 40.5 -116
t108.5 -46q65 0 108 42t43 115q0 74 -42.5 119.5t-111.5 45.5q-67 0 -106.5 -46t-39.5 -114z" />
    <glyph glyph-name="Aogonek" unicode="&#x104;" horiz-adv-x="692" 
d="M141 0h-132l270 700h133l272 -700h-11q-60 0 -87.5 -29t-27.5 -61q0 -24 15 -38t37 -14q46 0 73 56q9 -6 29.5 -15t29.5 -14q-16 -48 -53.5 -79t-89.5 -31q-49 0 -90 28.5t-41 87.5q0 29 19 62.5t63 54.5l-50 129h-308zM463 241l-117 329l-118 -329h235z" />
    <glyph glyph-name="aogonek" unicode="&#x105;" horiz-adv-x="650" 
d="M457 506h123v-506q-34 -2 -57.5 -12t-33.5 -25t-14 -27t-4 -23q0 -25 15 -40t38 -15q46 0 73 56q9 -5 29 -14.5t30 -14.5q-16 -48 -53.5 -79t-89.5 -31q-49 0 -90 28.5t-41 87.5q0 27 16.5 59t58.5 56v70q-56 -87 -173 -87q-110 0 -179 76.5t-69 189.5q0 111 68 186.5
t181 75.5q112 0 172 -86v75zM160 254q0 -70 40.5 -116t108.5 -46q65 0 108 42t43 115q0 74 -43 119.5t-111 45.5q-67 0 -106.5 -46t-39.5 -114z" />
    <glyph glyph-name="Cacute" unicode="&#x106;" horiz-adv-x="689" 
d="M413 904h130l-117 -147h-96zM42 350q0 151 105 256t277 105q132 0 241 -82l-51 -96q-87 64 -189 64q-116 0 -184 -70.5t-68 -176.5t68 -176.5t184 -70.5q104 0 189 64l51 -97q-107 -81 -241 -81q-172 0 -277 105t-105 256z" />
    <glyph glyph-name="cacute" unicode="&#x107;" horiz-adv-x="539" 
d="M328 736h133l-129 -161h-97zM35 250q0 116 77 191.5t208 75.5q101 0 195 -68l-57 -88q-56 46 -132 46q-74 0 -120.5 -43t-46.5 -111t47 -111t120 -43q77 0 132 46l57 -87q-92 -69 -195 -69q-129 0 -207 74t-78 187z" />
    <glyph glyph-name="Ccircumflex" unicode="&#x108;" horiz-adv-x="689" 
d="M337 904h124l105 -147h-89l-78 83l-78 -83h-89zM42 350q0 151 105 256t277 105q132 0 241 -82l-51 -96q-87 64 -189 64q-116 0 -184 -70.5t-68 -176.5t68 -176.5t184 -70.5q104 0 189 64l51 -97q-107 -81 -241 -81q-172 0 -277 105t-105 256z" />
    <glyph glyph-name="ccircumflex" unicode="&#x109;" horiz-adv-x="539" 
d="M238 736h124l112 -161h-90l-84 92l-83 -92h-91zM35 250q0 116 77 191.5t208 75.5q101 0 195 -68l-57 -88q-56 46 -132 46q-74 0 -120.5 -43t-46.5 -111t47 -111t120 -43q77 0 132 46l57 -87q-92 -69 -195 -69q-129 0 -207 74t-78 187z" />
    <glyph glyph-name="Cdotaccent" unicode="&#x10a;" horiz-adv-x="689" 
d="M328 829q0 31 21.5 50.5t54.5 19.5t54.5 -19.5t21.5 -50.5q0 -30 -21.5 -49.5t-54.5 -19.5t-54.5 19t-21.5 50zM42 350q0 151 105 256t277 105q132 0 241 -82l-51 -96q-87 64 -189 64q-116 0 -184 -70.5t-68 -176.5t68 -176.5t184 -70.5q104 0 189 64l51 -97
q-107 -81 -241 -81q-172 0 -277 105t-105 256z" />
    <glyph glyph-name="cdotaccent" unicode="&#x10b;" horiz-adv-x="539" 
d="M228 653q0 32 22 53.5t55 21.5t55.5 -21.5t22.5 -53.5q0 -31 -23 -52t-55 -21q-33 0 -55 21t-22 52zM35 250q0 116 77 191.5t208 75.5q101 0 195 -68l-57 -88q-56 46 -132 46q-74 0 -120.5 -43t-46.5 -111t47 -111t120 -43q77 0 132 46l57 -87q-92 -69 -195 -69
q-129 0 -207 74t-78 187z" />
    <glyph glyph-name="Ccaron" unicode="&#x10c;" horiz-adv-x="689" 
d="M465 757h-125l-104 147h89l78 -83l78 83h89zM42 350q0 151 105 256t277 105q132 0 241 -82l-51 -96q-87 64 -189 64q-116 0 -184 -70.5t-68 -176.5t68 -176.5t184 -70.5q104 0 189 64l51 -97q-107 -81 -241 -81q-172 0 -277 105t-105 256z" />
    <glyph glyph-name="ccaron" unicode="&#x10d;" horiz-adv-x="539" 
d="M360 575h-124l-112 161h91l83 -92l84 92h90zM35 250q0 116 77 191.5t208 75.5q101 0 195 -68l-57 -88q-56 46 -132 46q-74 0 -120.5 -43t-46.5 -111t47 -111t120 -43q77 0 132 46l57 -87q-92 -69 -195 -69q-129 0 -207 74t-78 187z" />
    <glyph glyph-name="Dcaron" unicode="&#x10e;" horiz-adv-x="743" 
d="M384 757h-124l-105 147h89l78 -83l78 83h89zM570 350q0 103 -66 175t-166 72h-120v-495h120q100 0 166 72.5t66 175.5zM701 350q0 -146 -103.5 -248t-259.5 -102h-248v699h248q156 0 259.5 -101.5t103.5 -247.5z" />
    <glyph glyph-name="dcaron" unicode="&#x10f;" horiz-adv-x="700" 
d="M657 478l-24 43q75 27 75 80q-12 -3 -21 -3q-26 0 -42.5 18t-16.5 43q0 30 19 49.5t52 19.5q40 0 60 -27t20 -55q0 -128 -122 -168zM160 254q0 -70 40.5 -116t108.5 -46q65 0 107.5 42t42.5 115q0 74 -42.5 119.5t-111.5 45.5q-67 0 -106 -46t-39 -114zM457 723h123v-723
h-123v76q-57 -87 -174 -87q-110 0 -178.5 76.5t-68.5 189.5q0 111 67.5 186.5t180.5 75.5q110 0 173 -86v292z" />
    <glyph glyph-name="Dcroat" unicode="&#x110;" horiz-adv-x="743" 
d="M27 303v89h63v307h248q156 0 259.5 -101.5t103.5 -247.5t-103.5 -248t-259.5 -102h-248v303h-63zM570 350q0 103 -66 175t-166 72h-120v-205h172v-89h-172v-201h120q100 0 166 72.5t66 175.5z" />
    <glyph glyph-name="dcroat" unicode="&#x111;" horiz-adv-x="650" 
d="M315 567v62h142v94h123v-94h75v-62h-75v-567h-123v76q-57 -87 -174 -87q-110 0 -178.5 76.5t-68.5 189.5q0 111 67.5 186.5t180.5 75.5q110 0 173 -86v136h-142zM160 254q0 -70 40.5 -116t108.5 -46q65 0 107.5 42t42.5 115q0 74 -42.5 119.5t-111.5 45.5q-67 0 -106 -46
t-39 -114z" />
    <glyph glyph-name="Emacron" unicode="&#x112;" horiz-adv-x="594" 
d="M545 0h-455v700h455v-103h-327v-203h285v-102h-285v-190h327v-102zM162 867h297v-90h-297v90z" />
    <glyph glyph-name="emacron" unicode="&#x113;" horiz-adv-x="605" 
d="M485 155l70 -69q-87 -97 -229 -97q-132 0 -211.5 75.5t-79.5 186.5q0 113 79 189.5t198 76.5q111 0 188.5 -71.5t77.5 -209.5h-420q0 -62 47.5 -102.5t126.5 -40.5q85 0 153 62zM312 419q-48 0 -88.5 -23t-59.5 -77h288q-13 53 -53 76.5t-87 23.5zM155 693h297v-90h-297
v90z" />
    <glyph glyph-name="Ebreve" unicode="&#x114;" horiz-adv-x="594" 
d="M545 0h-455v700h455v-103h-327v-203h285v-102h-285v-190h327v-102zM310 838q61 0 71 71q23 0 75 -7q-5 -51 -31.5 -84.5t-55.5 -45t-59 -11.5q-49 0 -92.5 33.5t-52.5 107.5q53 7 75 7q10 -71 70 -71z" />
    <glyph glyph-name="ebreve" unicode="&#x115;" horiz-adv-x="605" 
d="M485 155l70 -69q-87 -97 -229 -97q-132 0 -211.5 75.5t-79.5 186.5q0 113 79 189.5t198 76.5q111 0 188.5 -71.5t77.5 -209.5h-420q0 -62 47.5 -102.5t126.5 -40.5q85 0 153 62zM312 419q-48 0 -88.5 -23t-59.5 -77h288q-13 53 -53 76.5t-87 23.5zM304 660q64 0 70 76
l78 -8q-7 -83 -50 -117.5t-98 -34.5q-25 0 -47.5 7t-45 22.5t-37.5 47t-19 75.5l79 8q6 -76 70 -76z" />
    <glyph glyph-name="Edotaccent" unicode="&#x116;" horiz-adv-x="594" 
d="M545 0h-455v700h455v-103h-327v-203h285v-102h-285v-190h327v-102zM235 829q0 31 21.5 50.5t54.5 19.5t54.5 -19.5t21.5 -50.5q0 -30 -21.5 -49.5t-54.5 -19.5t-54.5 19t-21.5 50z" />
    <glyph glyph-name="edotaccent" unicode="&#x117;" horiz-adv-x="605" 
d="M485 155l70 -69q-87 -97 -229 -97q-132 0 -211.5 75.5t-79.5 186.5q0 113 79 189.5t198 76.5q111 0 188.5 -71.5t77.5 -209.5h-420q0 -62 47.5 -102.5t126.5 -40.5q85 0 153 62zM312 419q-48 0 -88.5 -23t-59.5 -77h288q-13 53 -53 76.5t-87 23.5zM227 653q0 32 22 53.5
t55 21.5q32 0 54.5 -21.5t22.5 -53.5q0 -31 -22.5 -52t-54.5 -21q-33 0 -55 21t-22 52z" />
    <glyph glyph-name="Eogonek" unicode="&#x118;" horiz-adv-x="593" 
d="M329 0h-240v700h455v-103h-327v-203h285v-102h-285v-190h327v-102h-76q-39 0 -66 -9.5t-38.5 -25t-15.5 -28t-4 -24.5q0 -26 15 -40.5t39 -14.5q45 0 72 56l60 -29q-17 -48 -54 -79t-89 -31q-49 0 -90 28.5t-41 87.5q0 25 16.5 56.5t56.5 52.5z" />
    <glyph glyph-name="eogonek" unicode="&#x119;" horiz-adv-x="605" 
d="M346 -10q-4 0 -10 -0.5t-10 -0.5q-132 0 -211.5 75.5t-79.5 186.5q0 113 79 189.5t198 76.5q111 0 188.5 -71.5t77.5 -209.5h-420q0 -60 47 -101.5t125 -41.5q87 0 155 62l70 -69q-17 -15 -77 -54q-87 -55 -87 -120q0 -24 15.5 -39t37.5 -15q48 0 73 56l60 -29
q-16 -48 -53.5 -79t-88.5 -31q-50 0 -91 28.5t-41 85.5q0 55 43 101zM312 419q-48 0 -88.5 -23t-59.5 -77h288q-13 53 -53 76.5t-87 23.5z" />
    <glyph glyph-name="Ecaron" unicode="&#x11a;" horiz-adv-x="594" 
d="M545 0h-455v700h455v-103h-327v-203h285v-102h-285v-190h327v-102zM369 757h-125l-104 147h89l78 -83l78 83h89z" />
    <glyph glyph-name="ecaron" unicode="&#x11b;" horiz-adv-x="605" 
d="M485 155l70 -69q-87 -97 -229 -97q-132 0 -211.5 75.5t-79.5 186.5q0 113 79 189.5t198 76.5q111 0 188.5 -71.5t77.5 -209.5h-420q0 -62 47.5 -102.5t126.5 -40.5q85 0 153 62zM312 419q-48 0 -88.5 -23t-59.5 -77h288q-13 53 -53 76.5t-87 23.5zM366 575h-124l-112 161
h91l83 -92l84 92h90z" />
    <glyph glyph-name="Gcircumflex" unicode="&#x11c;" horiz-adv-x="736" 
d="M342 904h124l105 -147h-89l-78 83l-78 -83h-89zM418 596q-112 0 -178.5 -73.5t-66.5 -174.5q0 -102 66.5 -172.5t179.5 -70.5q83 0 147 36v122h-187v102h305v-274q-111 -102 -267 -102q-160 0 -267.5 105t-107.5 255q0 151 106.5 256.5t266.5 105.5q141 0 254 -84
l-58 -96q-95 65 -193 65z" />
    <glyph glyph-name="gcircumflex" unicode="&#x11d;" horiz-adv-x="650" 
d="M253 736h125l112 -161h-91l-83 92l-84 -92h-90zM161 254q0 -70 40.5 -116t108.5 -46q65 0 108 42t43 115q0 74 -42.5 119.5t-111.5 45.5q-67 0 -106.5 -46t-39.5 -114zM83 -168q17 32 49 96q31 -27 75.5 -44t89.5 -17q71 0 116 36t45 113v59q-26 -40 -72.5 -63
t-100.5 -23q-110 0 -179 76.5t-69 189.5q0 111 68 186.5t181 75.5q112 0 172 -86v75h123v-451q0 -151 -71.5 -223t-197.5 -72q-139 0 -229 72z" />
    <glyph glyph-name="Gbreve" unicode="&#x11e;" horiz-adv-x="736" 
d="M392 838q61 0 71 71q23 0 75 -7q-5 -51 -31.5 -84.5t-55.5 -45t-59 -11.5q-49 0 -92.5 33.5t-52.5 107.5q52 7 75 7q10 -71 70 -71zM418 596q-112 0 -178.5 -73.5t-66.5 -174.5q0 -102 66.5 -172.5t179.5 -70.5q83 0 147 36v122h-187v102h305v-274q-111 -102 -267 -102
q-160 0 -267.5 105t-107.5 255q0 151 106.5 256.5t266.5 105.5q141 0 254 -84l-58 -96q-95 65 -193 65z" />
    <glyph glyph-name="gbreve" unicode="&#x11f;" horiz-adv-x="650" 
d="M316 660q64 0 70 76l78 -8q-7 -83 -50 -117.5t-98 -34.5q-25 0 -47.5 7t-45 22.5t-37.5 47t-19 75.5l79 8q6 -76 70 -76zM161 254q0 -70 40.5 -116t108.5 -46q65 0 108 42t43 115q0 74 -42.5 119.5t-111.5 45.5q-67 0 -106.5 -46t-39.5 -114zM83 -168q17 32 49 96
q31 -27 75.5 -44t89.5 -17q71 0 116 36t45 113v59q-26 -40 -72.5 -63t-100.5 -23q-110 0 -179 76.5t-69 189.5q0 111 68 186.5t181 75.5q112 0 172 -86v75h123v-451q0 -151 -71.5 -223t-197.5 -72q-139 0 -229 72z" />
    <glyph glyph-name="Gdotaccent" unicode="&#x120;" horiz-adv-x="736" 
d="M324 829q0 31 21.5 50.5t54.5 19.5t54.5 -19.5t21.5 -50.5q0 -30 -21.5 -49.5t-54.5 -19.5t-54.5 19t-21.5 50zM418 596q-112 0 -178.5 -73.5t-66.5 -174.5q0 -102 66.5 -172.5t179.5 -70.5q83 0 147 36v122h-187v102h305v-274q-111 -102 -267 -102q-160 0 -267.5 105
t-107.5 255q0 151 106.5 256.5t266.5 105.5q141 0 254 -84l-58 -96q-95 65 -193 65z" />
    <glyph glyph-name="gdotaccent" unicode="&#x121;" horiz-adv-x="649" 
d="M222 653q0 32 22 53.5t55 21.5q32 0 54.5 -21.5t22.5 -53.5q0 -31 -22.5 -52t-54.5 -21q-33 0 -55 21t-22 52zM160 254q0 -70 40.5 -116t108.5 -46q65 0 108 42t43 115q0 74 -43 119.5t-111 45.5q-67 0 -106.5 -46t-39.5 -114zM82 -168q17 32 49 96q31 -27 75.5 -44
t89.5 -17q71 0 116 36t45 113v59q-26 -40 -72.5 -63t-100.5 -23q-110 0 -179 76.5t-69 189.5q0 111 68 186.5t181 75.5q112 0 172 -86v75h123v-451q0 -151 -71.5 -223t-197.5 -72q-139 0 -229 72z" />
    <glyph glyph-name="Gcommaaccent" unicode="&#x122;" horiz-adv-x="736" 
d="M371 -303l-23 43q74 27 74 80q-34 -11 -56.5 8t-22.5 50q-1 30 18.5 49.5t52.5 19.5q40 0 59.5 -27t19.5 -55q0 -128 -122 -168zM418 596q-112 0 -178.5 -73.5t-66.5 -174.5q0 -102 66.5 -172.5t179.5 -70.5q83 0 147 36v122h-187v102h305v-274q-111 -102 -267 -102
q-160 0 -267.5 105t-107.5 255q0 151 106.5 256.5t266.5 105.5q141 0 254 -84l-58 -96q-95 65 -193 65z" />
    <glyph glyph-name="gcommaaccent" unicode="&#x123;" horiz-adv-x="650" 
d="M348 825l24 -43q-75 -27 -75 -80q11 3 21 3q26 0 42.5 -18t16.5 -43q0 -30 -19 -49.5t-52 -19.5q-40 0 -60 27t-20 55q0 128 122 168zM161 254q0 -70 40.5 -116t108.5 -46q65 0 108 42t43 115q0 74 -42.5 119.5t-111.5 45.5q-67 0 -106.5 -46t-39.5 -114zM83 -168
q17 32 49 96q31 -27 75.5 -44t89.5 -17q71 0 116 36t45 113v59q-26 -40 -72.5 -63t-100.5 -23q-110 0 -179 76.5t-69 189.5q0 111 68 186.5t181 75.5q112 0 172 -86v75h123v-451q0 -151 -71.5 -223t-197.5 -72q-139 0 -229 72z" />
    <glyph glyph-name="Hcircumflex" unicode="&#x124;" horiz-adv-x="732" 
d="M303 904h125l105 -147h-89l-78 83l-78 -83h-89zM642 0h-128v283h-296v-283h-128v700h128v-315h296v315h128v-700z" />
    <glyph glyph-name="hcircumflex" unicode="&#x125;" 
d="M70 0v723h123v-302q46 96 164 96q93 0 140 -62t47 -175v-280h-123v279q0 65 -26 99.5t-72 34.5q-52 0 -91 -40t-39 -120v-253h-123zM67 893h125l111 -133h-87l-86 69l-87 -69h-86q36 45 110 133z" />
    <glyph glyph-name="Hbar" unicode="&#x126;" horiz-adv-x="733" 
d="M515 475h-297v-90h297v90zM91 0v475h-71v72h71v153h127v-153h297v153h127v-153h72v-72h-72v-475h-127v283h-297v-283h-127z" />
    <glyph glyph-name="hbar" unicode="&#x127;" 
d="M-4 567v62h74v94h123v-94h125v-62h-125v-146q46 96 164 96q93 0 140 -62t47 -175v-280h-123v279q0 65 -26 99.5t-72 34.5q-57 0 -93.5 -41.5t-36.5 -118.5v-253h-123v567h-74z" />
    <glyph glyph-name="Itilde" unicode="&#x128;" horiz-adv-x="308" 
d="M267 904l60 -18q-16 -59 -39 -86t-63 -27q-26 0 -72 18.5t-60 18.5q-19 0 -29.5 -10t-20.5 -36l-60 18q16 59 39 86t63 27q26 0 72 -18.5t60 -18.5q19 0 29.5 10t20.5 36zM218 700v-700h-128v700h128z" />
    <glyph glyph-name="itilde" unicode="&#x129;" horiz-adv-x="267" 
d="M195 0h-123v506h123v-506zM244 725l60 -18q-16 -59 -39 -86t-63 -27q-26 0 -72 18.5t-60 18.5q-19 0 -29.5 -10t-20.5 -36l-59 18q16 59 38.5 86t62.5 27q26 0 72 -18.5t60 -18.5q19 0 29.5 10t20.5 36z" />
    <glyph glyph-name="Imacron" unicode="&#x12a;" horiz-adv-x="308" 
d="M6 867h297v-90h-297v90zM218 700v-700h-128v700h128z" />
    <glyph glyph-name="imacron" unicode="&#x12b;" horiz-adv-x="267" 
d="M195 0h-123v506h123v-506zM-16 693h297v-90h-297v90z" />
    <glyph glyph-name="Ibreve" unicode="&#x12c;" horiz-adv-x="308" 
d="M155 838q61 0 71 71q22 0 75 -7q-5 -51 -31.5 -84.5t-55.5 -45t-59 -11.5q-50 0 -93.5 33.5t-52.5 107.5q53 7 75 7q10 -71 71 -71zM218 700v-700h-128v700h128z" />
    <glyph glyph-name="ibreve" unicode="&#x12d;" horiz-adv-x="267" 
d="M195 0h-123v506h123v-506zM132 660q64 0 70 76l79 -8q-4 -44 -19 -75.5t-37.5 -47t-45 -22.5t-47.5 -7q-55 0 -98 34.5t-50 117.5l78 8q6 -76 70 -76z" />
    <glyph glyph-name="Iogonek" unicode="&#x12e;" horiz-adv-x="308" 
d="M90 8v692h128v-700h-5q-60 0 -87.5 -29t-27.5 -61q0 -24 15 -38t37 -14q46 0 73 56q9 -5 29.5 -14.5t29.5 -14.5q-16 -48 -53.5 -79t-89.5 -31q-49 0 -90 28.5t-41 87.5q0 29 19 62.5t63 54.5z" />
    <glyph glyph-name="iogonek" unicode="&#x12f;" horiz-adv-x="267" 
d="M195 506v-506q-62 0 -90.5 -29t-28.5 -61q0 -24 15 -38t38 -14q46 0 73 56q10 -5 30 -14.5t29 -14.5q-16 -48 -53.5 -79t-89.5 -31q-49 0 -90 28.5t-41 87.5q0 29 19.5 64t65.5 54v497h123zM54 656q0 33 22.5 55.5t57.5 22.5t58.5 -22.5t23.5 -55.5t-23.5 -55t-58.5 -22
t-57.5 22t-22.5 55z" />
    <glyph glyph-name="Idotaccent" unicode="&#x130;" horiz-adv-x="308" 
d="M79 829q0 31 21.5 50.5t54.5 19.5t54.5 -19.5t21.5 -50.5q0 -30 -21.5 -49.5t-54.5 -19.5t-54.5 19t-21.5 50zM218 700v-700h-128v700h128z" />
    <glyph glyph-name="dotlessi" unicode="&#x131;" horiz-adv-x="267" 
d="M195 0h-123v506h123v-506z" />
    <glyph glyph-name="IJ" unicode="&#x132;" horiz-adv-x="971" 
d="M218 700v-700h-128v700h128zM891 700v-387q0 -160 -74.5 -242t-214.5 -82q-70 0 -123 21.5t-83.5 58t-45.5 79.5t-15 90q0 61 27 101h119q-24 -47 -24 -93q0 -56 37 -101.5t107 -45.5q162 0 162 214v387h128z" />
    <glyph glyph-name="ij" unicode="&#x133;" horiz-adv-x="572" 
d="M195 0h-123v506h123v-506zM54 656q0 33 22.5 55.5t57.5 22.5t58.5 -22.5t23.5 -55.5t-23.5 -55t-58.5 -22t-57.5 22t-22.5 55zM377 -84v590h123v-581q0 -84 -48 -124.5t-119 -40.5q-78 0 -118.5 40t-40.5 100q0 26 7 41h103q-4 -11 -4 -29q0 -50 48 -50q23 0 36 15t13 39
zM358 656q0 33 22.5 55.5t57.5 22.5t58.5 -22.5t23.5 -55.5t-23.5 -55t-58.5 -22t-57.5 22t-22.5 55z" />
    <glyph glyph-name="Jcircumflex" unicode="&#x134;" horiz-adv-x="663" 
d="M454 904h124l105 -147h-89l-78 83l-78 -83h-89zM583 700v-387q0 -160 -74.5 -242t-214.5 -82q-70 0 -123 21.5t-83.5 58t-45.5 79.5t-15 90q0 61 27 101h119q-24 -47 -24 -93q0 -56 37 -101.5t107 -45.5q162 0 162 214v387h128z" />
    <glyph glyph-name="jcircumflex" unicode="&#x135;" horiz-adv-x="305" 
d="M110 -84v590h123v-581q0 -84 -48 -124.5t-119 -40.5q-78 0 -118.5 40t-40.5 100q0 26 7 41h103q-4 -11 -4 -29q0 -50 48 -50q23 0 36 15t13 39zM108 736h125l112 -161h-91l-83 92l-84 -92h-90z" />
    <glyph glyph-name="Kcommaaccent" unicode="&#x136;" horiz-adv-x="649" 
d="M299 -303l-24 44q75 26 75 80q-12 -3 -22 -3q-26 0 -42 17t-16 44q0 30 19 49t52 19q40 0 60 -26.5t20 -55.5q0 -126 -122 -168zM217 316v-316h-128v700h128v-332l227 332h133v-16l-238 -337l110 -166q39 -52 57 -67.5t47 -15.5q32 0 62 21q7 -14 46 -90
q-51 -40 -128 -40q-114 0 -195 138z" />
    <glyph glyph-name="kcommaaccent" unicode="&#x137;" horiz-adv-x="569" 
d="M229 -303l-23 43q74 27 74 80q-34 -11 -56.5 8t-22.5 50q-1 30 18.5 49.5t52.5 19.5q40 0 59.5 -27t19.5 -55q0 -128 -122 -168zM192 297l159 209h136v-15l-176 -217l76 -118q22 -32 37.5 -44t41.5 -12q36 0 60 18l44 -85q-47 -44 -121 -44q-53 0 -88.5 24.5t-66.5 67.5
l-102 164v-245h-123v723h123v-426z" />
    <glyph glyph-name="kgreenlandic" unicode="&#x138;" horiz-adv-x="558" 
d="M190 299l178 207h128v-23l-202 -228l92 -118q19 -22 32.5 -31t35.5 -9q24 0 58 25l42 -82q-51 -51 -122 -51q-32 0 -57 11.5t-39.5 25.5t-42.5 47l-102 133v-206h-122v506h121v-207z" />
    <glyph glyph-name="Lacute" unicode="&#x139;" horiz-adv-x="554" 
d="M174 904h130l-117 -147h-96zM218 102h318v-102h-446v700h128v-598z" />
    <glyph glyph-name="lacute" unicode="&#x13a;" horiz-adv-x="267" 
d="M195 0h-123v723h123v-723zM159 904h130l-115 -140h-96z" />
    <glyph glyph-name="Lcommaaccent" unicode="&#x13b;" horiz-adv-x="554" 
d="M262 -303l-23 44q74 25 74 80q-12 -3 -22 -3q-26 0 -41.5 17t-15.5 44q0 30 18.5 49t52.5 19q40 0 59.5 -26.5t19.5 -55.5q0 -126 -122 -168zM218 102h318v-102h-446v700h128v-598z" />
    <glyph glyph-name="lcommaaccent" unicode="&#x13c;" horiz-adv-x="267" 
d="M92 -303l-24 44q75 26 75 80q-12 -3 -22 -3q-26 0 -42 17t-16 44q0 30 19 49t52 19q40 0 60 -26.5t20 -55.5q0 -126 -122 -168zM195 0h-123v723h123v-723z" />
    <glyph glyph-name="Lcaron" unicode="&#x13d;" horiz-adv-x="556" 
d="M378 467l-23 43q74 27 74 80q-12 -3 -21 -3q-26 0 -42 18t-16 43q0 30 18.5 49.5t52.5 19.5q40 0 59.5 -27t19.5 -55q0 -128 -122 -168zM217 102h318v-102h-446v700h128v-598z" />
    <glyph glyph-name="lcaron" unicode="&#x13e;" horiz-adv-x="314" 
d="M271 478l-23 43q74 27 74 80q-12 -3 -21 -3q-26 0 -42 18t-16 43q0 30 18.5 49.5t52.5 19.5q40 0 59.5 -27t19.5 -55q0 -128 -122 -168zM195 0h-123v723h123v-723z" />
    <glyph glyph-name="Ldot" unicode="&#x13f;" horiz-adv-x="561" 
d="M302 318q0 33 23.5 55.5t58.5 22.5t59 -23t24 -55q0 -33 -24 -56t-59 -23t-58.5 23t-23.5 56zM218 102h318v-102h-446v700h128v-598z" />
    <glyph glyph-name="ldot" unicode="&#x140;" horiz-adv-x="375" 
d="M195 0h-123v723h123v-723zM240 308q0 33 23.5 56t58.5 23t59 -23t24 -56t-24 -55.5t-59 -22.5t-58.5 22.5t-23.5 55.5z" />
    <glyph glyph-name="Lslash" unicode="&#x141;" horiz-adv-x="557" 
d="M221 102h318v-102h-446v267l-77 -34v80l77 34v353h128v-296l159 71v-80l-159 -71v-222z" />
    <glyph glyph-name="lslash" unicode="&#x142;" horiz-adv-x="325" 
d="M209 0h-123v254l-72 -33v80l72 32v390h123v-334l96 44v-80l-96 -44v-309z" />
    <glyph glyph-name="Nacute" unicode="&#x143;" horiz-adv-x="751" 
d="M366 904h130l-117 -147h-96zM565 0l-347 472v-472h-128v700h97l346 -469v469h128v-700h-96z" />
    <glyph glyph-name="nacute" unicode="&#x144;" 
d="M321 736h133l-129 -161h-97zM70 0v506h123v-85q46 96 164 96q93 0 140 -62t47 -175v-280h-123v279q0 65 -26 99.5t-72 34.5q-57 0 -93.5 -41.5t-36.5 -118.5v-253h-123z" />
    <glyph glyph-name="Ncommaaccent" unicode="&#x145;" horiz-adv-x="751" 
d="M331 -303l-23 43q74 27 74 80q-34 -11 -56.5 8t-22.5 50q-1 30 18.5 49.5t52.5 19.5q40 0 59.5 -27t19.5 -55q0 -128 -122 -168zM565 0l-347 472v-472h-128v700h97l346 -469v469h128v-700h-96z" />
    <glyph glyph-name="ncommaaccent" unicode="&#x146;" 
d="M259 -303l-23 44q74 25 74 80q-12 -3 -22 -3q-26 0 -41.5 17t-15.5 44q0 30 18.5 49t52.5 19q40 0 59.5 -26.5t19.5 -55.5q0 -126 -122 -168zM70 0v506h123v-85q46 96 164 96q93 0 140 -62t47 -175v-280h-123v279q0 65 -26 99.5t-72 34.5q-57 0 -93.5 -41.5t-36.5 -118.5
v-253h-123z" />
    <glyph glyph-name="Ncaron" unicode="&#x147;" horiz-adv-x="751" 
d="M429 757h-125l-104 147h89l78 -83l78 83h89zM565 0l-347 472v-472h-128v700h97l346 -469v469h128v-700h-96z" />
    <glyph glyph-name="ncaron" unicode="&#x148;" 
d="M364 575h-124l-112 161h91l83 -92l84 92h90zM70 0v506h123v-85q46 96 164 96q93 0 140 -62t47 -175v-280h-123v279q0 65 -26 99.5t-72 34.5q-57 0 -93.5 -41.5t-36.5 -118.5v-253h-123z" />
    <glyph glyph-name="napostrophe" unicode="&#x149;" horiz-adv-x="700" 
d="M47 497l-24 44q74 25 74 80q-12 -3 -21 -3q-26 0 -42 17t-16 44q0 30 19 49t52 19q40 0 59.5 -26.5t19.5 -55.5q0 -125 -121 -168zM175 0v506h123v-85q46 96 164 96q93 0 140 -62t47 -175v-280h-123v279q0 65 -26 99.5t-72 34.5q-57 0 -93.5 -41.5t-36.5 -118.5v-253
h-123z" />
    <glyph glyph-name="Eng" unicode="&#x14a;" horiz-adv-x="749" 
d="M509 86l-292 386v-472h-128v700h97q44 -58 162 -213.5t184 -240.5v454h128v-624q-3 -149 -75.5 -231t-213.5 -85q0 20 -0.5 57.5t-0.5 55.5q69 0 111 40.5t51 117.5v7q1 17 -23 48z" />
    <glyph glyph-name="eng" unicode="&#x14b;" horiz-adv-x="606" 
d="M543 280v-212v-10q0 -140 -69.5 -217.5t-203.5 -80.5v107q150 0 150 207v205q0 65 -26 99.5t-72 34.5q-57 0 -93.5 -41.5t-36.5 -118.5v-253h-123v506h123v-85q46 96 164 96q93 0 140 -62t47 -175z" />
    <glyph glyph-name="Omacron" unicode="&#x14c;" horiz-adv-x="814" 
d="M258 867h297v-90h-297v90zM41 350q0 149 108 255t258 106t258 -106t108 -255t-108 -255t-258 -106t-258 106t-108 255zM171 350q0 -105 69 -175t167 -70t167 70t69 175t-69 175t-167 70t-167 -70t-69 -175z" />
    <glyph glyph-name="omacron" unicode="&#x14d;" horiz-adv-x="619" 
d="M35 253q0 109 81.5 186.5t192.5 77.5t193 -78t82 -186q0 -109 -81.5 -186.5t-193.5 -77.5q-111 0 -192.5 77.5t-81.5 186.5zM159 253q0 -66 43.5 -112.5t106.5 -46.5q64 0 107.5 46.5t43.5 112.5t-43.5 112.5t-107.5 46.5q-63 0 -106.5 -46.5t-43.5 -112.5zM161 693h297
v-90h-297v90z" />
    <glyph glyph-name="Obreve" unicode="&#x14e;" horiz-adv-x="814" 
d="M406 838q61 0 71 71q22 0 75 -7q-5 -51 -31.5 -84.5t-55.5 -45t-59 -11.5q-49 0 -92.5 33.5t-52.5 107.5q52 7 75 7q10 -71 70 -71zM41 350q0 149 108 255t258 106t258 -106t108 -255t-108 -255t-258 -106t-258 106t-108 255zM171 350q0 -105 69 -175t167 -70t167 70
t69 175t-69 175t-167 70t-167 -70t-69 -175z" />
    <glyph glyph-name="obreve" unicode="&#x14f;" horiz-adv-x="619" 
d="M35 253q0 109 81.5 186.5t192.5 77.5t193 -78t82 -186q0 -109 -81.5 -186.5t-193.5 -77.5q-111 0 -192.5 77.5t-81.5 186.5zM159 253q0 -66 43.5 -112.5t106.5 -46.5q64 0 107.5 46.5t43.5 112.5t-43.5 112.5t-107.5 46.5q-63 0 -106.5 -46.5t-43.5 -112.5zM310 660
q64 0 70 76l78 -8q-7 -83 -50 -117.5t-98 -34.5q-25 0 -47.5 7t-45 22.5t-37.5 47t-19 75.5l79 8q6 -76 70 -76z" />
    <glyph glyph-name="Ohungarumlaut" unicode="&#x150;" horiz-adv-x="814" 
d="M358 909h100l-94 -147h-88zM525 909h101l-100 -147h-90zM41 350q0 149 108 255t258 106t258 -106t108 -255t-108 -255t-258 -106t-258 106t-108 255zM171 350q0 -105 69 -175t167 -70t167 70t69 175t-69 175t-167 70t-167 -70t-69 -175z" />
    <glyph glyph-name="ohungarumlaut" unicode="&#x151;" horiz-adv-x="619" 
d="M35 253q0 109 81.5 186.5t192.5 77.5t193 -78t82 -186q0 -109 -81.5 -186.5t-193.5 -77.5q-111 0 -192.5 77.5t-81.5 186.5zM159 253q0 -66 43.5 -112.5t106.5 -46.5q64 0 107.5 46.5t43.5 112.5t-43.5 112.5t-107.5 46.5q-63 0 -106.5 -46.5t-43.5 -112.5zM272 736h100
l-103 -161h-88zM439 736h101l-109 -161h-90z" />
    <glyph glyph-name="OE" unicode="&#x152;" horiz-adv-x="956" 
d="M401 102h64v495h-64q-99 0 -163.5 -66t-64.5 -171q0 -107 65.5 -182.5t162.5 -75.5zM908 0h-507q-151 0 -254.5 105t-103.5 255q0 149 102 244.5t256 95.5h507v-103h-316v-200h273v-103h-273v-192h316v-102z" />
    <glyph glyph-name="oe" unicode="&#x153;" horiz-adv-x="935" 
d="M816 155l70 -69q-87 -97 -229 -97q-112 0 -186 58q-73 -58 -164 -58q-111 0 -192 77.5t-81 186.5t81 186.5t192 77.5q93 0 165 -58q71 58 171 58q112 0 188.5 -71.5t76.5 -209.5h-404q0 -63 40.5 -103t118.5 -40q85 0 153 62zM157 253q0 -66 43.5 -112.5t106.5 -46.5
q53 0 98 38q-25 51 -25 119q0 64 26 121q-40 40 -99 40q-63 0 -106.5 -46.5t-43.5 -112.5zM643 419q-100 0 -135 -100h275q-13 53 -53 76.5t-87 23.5z" />
    <glyph glyph-name="Racute" unicode="&#x154;" horiz-adv-x="695" 
d="M329 904h130l-117 -147h-96zM217 359h154q50 0 79 32.5t29 84.5t-30 85t-78 33h-154v-235zM609 475q0 -78 -42 -135t-115 -76q12 -67 42.5 -115.5t81.5 -48.5q46 0 77 31l45 -88q-62 -54 -140 -54q-58 0 -102.5 29.5t-68.5 75.5t-36 86t-16 77h-118v-257h-128v700h302
q100 0 159 -65.5t59 -159.5z" />
    <glyph glyph-name="racute" unicode="&#x155;" horiz-adv-x="384" 
d="M191 506v-112q11 60 51.5 91.5t86.5 31.5q16 0 42 -7v-121q-27 10 -58 10q-20 0 -38.5 -6.5t-38 -23t-31.5 -51.5t-12 -84v-234h-123v506h121zM170 736h133l-130 -161h-96z" />
    <glyph glyph-name="Rcommaaccent" unicode="&#x156;" horiz-adv-x="695" 
d="M300 -303l-23 44q74 25 74 80q-12 -3 -22 -3q-26 0 -41.5 17t-15.5 44q0 30 18.5 49t52.5 19q40 0 59.5 -26.5t19.5 -55.5q0 -126 -122 -168zM217 359h154q50 0 79 32.5t29 84.5t-30 85t-78 33h-154v-235zM609 475q0 -78 -42 -135t-115 -76q12 -67 42.5 -115.5
t81.5 -48.5q46 0 77 31l45 -88q-62 -54 -140 -54q-58 0 -102.5 29.5t-68.5 75.5t-36 86t-16 77h-118v-257h-128v700h302q100 0 159 -65.5t59 -159.5z" />
    <glyph glyph-name="rcommaaccent" unicode="&#x157;" horiz-adv-x="384" 
d="M92 -303l-24 43q75 27 75 80q-34 -11 -56.5 8t-23.5 50q0 30 19 49.5t52 19.5q40 0 60 -27t20 -55q0 -128 -122 -168zM191 506v-112q11 60 51.5 91.5t86.5 31.5q16 0 42 -7v-121q-27 10 -58 10q-20 0 -38.5 -6.5t-38 -23t-31.5 -51.5t-12 -84v-234h-123v506h121z" />
    <glyph glyph-name="Rcaron" unicode="&#x158;" horiz-adv-x="695" 
d="M371 757h-125l-104 147h89l78 -83l78 83h89zM217 359h154q50 0 79 32.5t29 84.5t-30 85t-78 33h-154v-235zM609 475q0 -78 -42 -135t-115 -76q12 -67 42.5 -115.5t81.5 -48.5q46 0 77 31l45 -88q-62 -54 -140 -54q-58 0 -102.5 29.5t-68.5 75.5t-36 86t-16 77h-118v-257
h-128v700h302q100 0 159 -65.5t59 -159.5z" />
    <glyph glyph-name="rcaron" unicode="&#x159;" horiz-adv-x="384" 
d="M191 506v-112q11 60 51.5 91.5t86.5 31.5q16 0 42 -7v-121q-27 10 -58 10q-20 0 -38.5 -6.5t-38 -23t-31.5 -51.5t-12 -84v-234h-123v506h121zM252 575h-124l-112 161h91l83 -92l84 92h90z" />
    <glyph glyph-name="Sacute" unicode="&#x15a;" horiz-adv-x="585" 
d="M299 904h130l-117 -147h-96zM30 179l116 26q12 -46 50.5 -74.5t94.5 -28.5t91 24t35 65q0 60 -92 93l-90 31q-172 56 -172 197q0 90 67 144.5t165 54.5q87 0 147.5 -42t84.5 -118l-108 -45q-30 91 -124 91q-45 0 -74.5 -21.5t-29.5 -61.5q0 -58 83 -87l90 -33
q94 -30 137 -84.5t43 -113.5q0 -97 -72 -152t-178 -55q-102 0 -176 53t-88 137z" />
    <glyph glyph-name="sacute" unicode="&#x15b;" horiz-adv-x="462" 
d="M253 736h133l-130 -161h-96zM26 120l97 41q9 -36 39.5 -54.5t68.5 -18.5q31 0 53.5 12.5t22.5 40.5q0 31 -55 54l-74 28q-127 47 -127 141q0 69 52.5 111t132.5 42q137 0 177 -113l-99 -36q-16 52 -77 52q-26 0 -46 -14t-20 -39q0 -19 14 -30.5t39 -21.5l75 -27
q73 -23 101 -63t28 -82q0 -72 -57.5 -113t-140.5 -41q-70 0 -127 32t-77 99z" />
    <glyph glyph-name="Scircumflex" unicode="&#x15c;" horiz-adv-x="585" 
d="M226 904h124l105 -147h-89l-78 83l-78 -83h-89zM30 179l116 26q12 -46 50.5 -74.5t94.5 -28.5t91 24t35 65q0 60 -92 93l-90 31q-172 56 -172 197q0 90 67 144.5t165 54.5q87 0 147.5 -42t84.5 -118l-108 -45q-30 91 -124 91q-45 0 -74.5 -21.5t-29.5 -61.5q0 -58 83 -87
l90 -33q94 -30 137 -84.5t43 -113.5q0 -97 -72 -152t-178 -55q-102 0 -176 53t-88 137z" />
    <glyph glyph-name="scircumflex" unicode="&#x15d;" horiz-adv-x="462" 
d="M171 736h125l112 -161h-91l-83 92l-84 -92h-90zM26 120l97 41q9 -36 39.5 -54.5t68.5 -18.5q31 0 53.5 12.5t22.5 40.5q0 31 -55 54l-74 28q-127 47 -127 141q0 69 52.5 111t132.5 42q137 0 177 -113l-99 -36q-16 52 -77 52q-26 0 -46 -14t-20 -39q0 -19 14 -30.5
t39 -21.5l75 -27q73 -23 101 -63t28 -82q0 -72 -57.5 -113t-140.5 -41q-70 0 -127 32t-77 99z" />
    <glyph glyph-name="Scedilla" unicode="&#x15e;" horiz-adv-x="585" 
d="M267 -9h-1q-93 6 -157.5 58t-78.5 130l116 26q12 -46 50.5 -74.5t94.5 -28.5t91 24t35 65q0 60 -92 93l-90 31q-172 56 -172 197q0 90 67 144.5t165 54.5q87 0 147.5 -42t84.5 -118l-108 -45q-30 91 -124 91q-45 0 -74.5 -21.5t-29.5 -61.5q0 -58 83 -87l90 -33
q94 -30 137 -84.5t43 -113.5q0 -83 -54.5 -136.5t-139.5 -66.5q49 -48 49 -103q0 -60 -41 -87.5t-90 -27.5q-52 0 -89.5 30.5t-53.5 78.5l59 30q27 -56 73 -56q23 0 38 14.5t15 40.5q0 18 -10.5 42t-32.5 36z" />
    <glyph glyph-name="scedilla" unicode="&#x15f;" horiz-adv-x="462" 
d="M26 120l97 41q9 -36 39.5 -54.5t68.5 -18.5q31 0 53.5 12.5t22.5 40.5q0 31 -55 54l-74 28q-127 47 -127 141q0 69 52.5 111t132.5 42q137 0 177 -113l-99 -36q-16 52 -77 52q-26 0 -46 -14t-20 -39q0 -19 14 -30.5t39 -21.5l75 -27q73 -23 101 -63t28 -82
q0 -58 -39 -96.5t-101 -51.5q50 -47 50 -104q0 -59 -41 -87.5t-90 -28.5q-52 0 -89 31t-54 79l60 29q27 -56 72 -56q24 0 39 14.5t15 40.5q0 18 -10.5 41t-31.5 36q-63 4 -113 36t-69 94z" />
    <glyph glyph-name="Scaron" unicode="&#x160;" horiz-adv-x="585" 
d="M349 757h-125l-104 147h89l78 -83l78 83h89zM30 179l116 26q12 -46 50.5 -74.5t94.5 -28.5t91 24t35 65q0 60 -92 93l-90 31q-172 56 -172 197q0 90 67 144.5t165 54.5q87 0 147.5 -42t84.5 -118l-108 -45q-30 91 -124 91q-45 0 -74.5 -21.5t-29.5 -61.5q0 -58 83 -87
l90 -33q94 -30 137 -84.5t43 -113.5q0 -97 -72 -152t-178 -55q-102 0 -176 53t-88 137z" />
    <glyph glyph-name="scaron" unicode="&#x161;" horiz-adv-x="462" 
d="M296 575h-125l-111 161h90l84 -92l83 92h91zM26 120l97 41q9 -36 39.5 -54.5t68.5 -18.5q31 0 53.5 12.5t22.5 40.5q0 31 -55 54l-74 28q-127 47 -127 141q0 69 52.5 111t132.5 42q137 0 177 -113l-99 -36q-16 52 -77 52q-26 0 -46 -14t-20 -39q0 -19 14 -30.5t39 -21.5
l75 -27q73 -23 101 -63t28 -82q0 -72 -57.5 -113t-140.5 -41q-70 0 -127 32t-77 99z" />
    <glyph glyph-name="Tcommaaccent" unicode="&#x162;" horiz-adv-x="598" 
d="M253 -303l-24 43q75 27 75 80q-34 -11 -56.5 8t-23.5 50q0 30 19 49.5t52 19.5q40 0 60 -27t20 -55q0 -128 -122 -168zM20 700h558v-103h-216v-597h-128v597h-214v103z" />
    <glyph glyph-name="tcommaaccent" unicode="&#x163;" horiz-adv-x="437" 
d="M198 -303l-23 44q74 25 74 80q-12 -3 -22 -3q-26 0 -41.5 17t-15.5 44q0 30 18.5 49t52.5 19q40 0 59.5 -26.5t19.5 -55.5q0 -126 -122 -168zM222 641v-135h151v-94h-151v-265q0 -55 49 -55q23 0 36.5 14.5t13.5 37.5q0 27 -7 42h101q11 -23 11 -57q0 -60 -41 -100
t-119 -40q-73 0 -120 39.5t-47 135.5v248h-79v94h85l22 135h95z" />
    <glyph glyph-name="Tcaron" unicode="&#x164;" horiz-adv-x="598" 
d="M362 757h-124l-105 147h89l78 -83l78 83h89zM20 700h558v-103h-216v-597h-128v597h-214v103z" />
    <glyph glyph-name="tcaron" unicode="&#x165;" horiz-adv-x="437" 
d="M386 530l-24 43q70 25 70 80q-12 -3 -21 -3q-26 0 -42 18t-16 43q0 30 18.5 49.5t52.5 19.5q40 0 59.5 -27t19.5 -55q0 -129 -117 -168zM222 641v-135h151v-94h-151v-265q0 -55 49 -55q23 0 36.5 14.5t13.5 37.5q0 27 -7 42h101q11 -23 11 -57q0 -60 -41 -100t-119 -40
q-73 0 -120 39.5t-47 135.5v248h-79v94h85l22 135h95z" />
    <glyph glyph-name="Tbar" unicode="&#x166;" horiz-adv-x="612" 
d="M507 350h-138v-350h-128v350h-138v72h138v175h-214v103h558v-103h-216v-175h138v-72z" />
    <glyph glyph-name="tbar" unicode="&#x167;" horiz-adv-x="438" 
d="M223 641v-135h151v-94h-151v-101h116v-66h-116v-98q0 -55 49 -55q23 0 36.5 14.5t13.5 37.5q0 27 -7 42h101q11 -23 11 -57q0 -60 -41 -100t-119 -40q-73 0 -120 39.5t-47 135.5v81h-66v66h66v101h-79v94h85l22 135h95z" />
    <glyph glyph-name="Utilde" unicode="&#x168;" horiz-adv-x="728" 
d="M477 904l60 -18q-16 -59 -39 -86t-63 -27q-26 0 -72 18.5t-60 18.5q-19 0 -29.5 -10t-20.5 -36l-60 18q16 59 39 86t63 27q26 0 72 -18.5t60 -18.5q19 0 29.5 10t20.5 36zM519 700h128v-438q0 -129 -81 -201t-202 -72q-122 0 -202.5 72t-80.5 201v438h128v-438
q0 -78 44 -120.5t111 -42.5q66 0 110.5 42.5t44.5 120.5v438z" />
    <glyph glyph-name="utilde" unicode="&#x169;" 
d="M537 506v-506h-123v85q-46 -96 -163 -96q-93 0 -140.5 62t-47.5 175v280h123v-279q0 -130 98 -130q50 0 90 46t40 144v219h123zM374 591q-29 0 -74 23.5t-58 23.5q-28 0 -35 -52l-64 7q0 2 -0.5 6t-0.5 5q0 52 24.5 85t62.5 33q23 0 68 -22.5t62 -22.5q16 0 22.5 10
t13.5 40l65 -7q0 -3 0.5 -7t0.5 -6q0 -49 -24.5 -82.5t-62.5 -33.5z" />
    <glyph glyph-name="Umacron" unicode="&#x16a;" horiz-adv-x="728" 
d="M215 867h297v-90h-297v90zM519 700h128v-438q0 -129 -81 -201t-202 -72q-122 0 -202.5 72t-80.5 201v438h128v-438q0 -78 44 -120.5t111 -42.5q66 0 110.5 42.5t44.5 120.5v438z" />
    <glyph glyph-name="umacron" unicode="&#x16b;" 
d="M537 506v-506h-123v85q-46 -96 -163 -96q-93 0 -140.5 62t-47.5 175v280h123v-279q0 -130 98 -130q50 0 90 46t40 144v219h123zM157 693h297v-90h-297v90z" />
    <glyph glyph-name="Ubreve" unicode="&#x16c;" horiz-adv-x="728" 
d="M363 838q61 0 71 71q22 0 75 -7q-5 -51 -31.5 -84.5t-55.5 -45t-59 -11.5q-49 0 -92.5 33.5t-52.5 107.5q53 7 75 7q10 -71 70 -71zM519 700h128v-438q0 -129 -81 -201t-202 -72q-122 0 -202.5 72t-80.5 201v438h128v-438q0 -78 44 -120.5t111 -42.5q66 0 110.5 42.5
t44.5 120.5v438z" />
    <glyph glyph-name="ubreve" unicode="&#x16d;" 
d="M537 506v-506h-123v85q-46 -96 -163 -96q-93 0 -140.5 62t-47.5 175v280h123v-279q0 -130 98 -130q50 0 90 46t40 144v219h123zM305 660q64 0 70 76l79 -8q-4 -44 -19 -75.5t-37.5 -47t-45 -22.5t-47.5 -7q-55 0 -98 34.5t-50 117.5l78 8q6 -76 70 -76z" />
    <glyph glyph-name="Uring" unicode="&#x16e;" horiz-adv-x="728" 
d="M250 852q0 47 32.5 76t81.5 29t82 -29t33 -76t-33 -75t-82 -28t-81.5 28t-32.5 75zM309 852q0 -23 15.5 -36t39.5 -13t39 13t15 36t-15 36t-39 13t-39.5 -13t-15.5 -36zM519 700h128v-438q0 -129 -81 -201t-202 -72q-122 0 -202.5 72t-80.5 201v438h128v-438
q0 -78 44 -120.5t111 -42.5q66 0 110.5 42.5t44.5 120.5v438z" />
    <glyph glyph-name="uring" unicode="&#x16f;" 
d="M537 506v-506h-123v85q-46 -96 -163 -96q-93 0 -140.5 62t-47.5 175v280h123v-279q0 -130 98 -130q50 0 90 46t40 144v219h123zM191 680q0 48 33 79.5t81 31.5t81.5 -31.5t33.5 -79.5q0 -47 -33.5 -78.5t-81.5 -31.5t-81 31.5t-33 78.5zM250 680q0 -23 16 -38.5t39 -15.5
t38.5 15.5t15.5 38.5t-15.5 38t-38.5 15t-39 -15t-16 -38z" />
    <glyph glyph-name="Uhungarumlaut" unicode="&#x170;" horiz-adv-x="728" 
d="M297 909h100l-94 -147h-88zM464 909h101l-100 -147h-90zM519 700h128v-438q0 -129 -81 -201t-202 -72q-122 0 -202.5 72t-80.5 201v438h128v-438q0 -78 44 -120.5t111 -42.5q66 0 110.5 42.5t44.5 120.5v438z" />
    <glyph glyph-name="uhungarumlaut" unicode="&#x171;" 
d="M537 506v-506h-123v85q-46 -96 -163 -96q-93 0 -140.5 62t-47.5 175v280h123v-279q0 -130 98 -130q50 0 90 46t40 144v219h123zM244 736h101l-103 -161h-89zM412 736h100l-108 -161h-91z" />
    <glyph glyph-name="Uogonek" unicode="&#x172;" horiz-adv-x="728" 
d="M397 -9q-36 -24 -36 -78q0 -25 15 -40t38 -15q46 0 73 56q10 -5 29.5 -14.5t29.5 -14.5q-16 -48 -53.5 -79t-89.5 -31q-49 0 -90 28.5t-41 87.5t58 100q-109 9 -179 80.5t-70 190.5v438h128v-438q0 -78 44 -120.5t111 -42.5q66 0 110.5 42.5t44.5 120.5v438h128v-438
q0 -119 -70.5 -190.5t-179.5 -80.5z" />
    <glyph glyph-name="uogonek" unicode="&#x173;" 
d="M414 287v219h123v-506q-62 0 -90.5 -29t-28.5 -61q0 -24 15 -38t38 -14q46 0 73 56l59 -30q-16 -48 -53.5 -78.5t-89.5 -30.5q-49 0 -90 27.5t-41 87.5q0 30 19.5 64t65.5 53v78q-46 -96 -163 -96q-93 0 -140.5 62t-47.5 175v280h123v-279q0 -130 98 -130q50 0 90 46
t40 144z" />
    <glyph glyph-name="Wcircumflex" unicode="&#x174;" horiz-adv-x="993" 
d="M434 904h124l105 -147h-89l-78 83l-78 -83h-89zM546 677l143 -458l149 481h129l-219 -700h-104l-147 475l-147 -475h-105l-219 700h129l149 -481l144 458h98z" />
    <glyph glyph-name="wcircumflex" unicode="&#x175;" horiz-adv-x="824" 
d="M350 736h124l112 -161h-90l-84 92l-83 -92h-91zM262 167l103 325h93l104 -325l109 339h133l-182 -506h-110l-100 319l-101 -319h-109l-182 506h132z" />
    <glyph glyph-name="Ycircumflex" unicode="&#x176;" horiz-adv-x="704" 
d="M289 904h124l105 -147h-89l-78 83l-78 -83h-89zM351 400l189 300h143v-13l-267 -400v-287h-128v286l-267 401v13h143z" />
    <glyph glyph-name="ycircumflex" unicode="&#x177;" horiz-adv-x="574" 
d="M291 159l132 347h138l-314 -735h-121l103 259l-215 476h139zM222 736h125l112 -161h-91l-83 92l-84 -92h-90z" />
    <glyph glyph-name="Ydieresis" unicode="&#x178;" horiz-adv-x="704" 
d="M162 826q0 31 21 50t53 19t53 -19t21 -50q0 -30 -21 -48.5t-53 -18.5t-53 18.5t-21 48.5zM393 826q0 31 20.5 50t52.5 19q33 0 54 -19.5t21 -49.5t-21 -48.5t-54 -18.5q-32 0 -52.5 18.5t-20.5 48.5zM351 400l189 300h143v-13l-267 -400v-287h-128v286l-267 401v13h143z
" />
    <glyph glyph-name="Zacute" unicode="&#x179;" horiz-adv-x="657" 
d="M329 904h130l-117 -147h-96zM626 102v-102h-597v88l403 509h-375v103h545v-89l-406 -509h430z" />
    <glyph glyph-name="zacute" unicode="&#x17a;" horiz-adv-x="570" 
d="M296 736h133l-129 -161h-97zM538 98v-98h-508v74l313 335h-295v97h471v-74l-313 -334h332z" />
    <glyph glyph-name="Zdotaccent" unicode="&#x17b;" horiz-adv-x="657" 
d="M249 829q0 31 21.5 50.5t54.5 19.5t54.5 -19.5t21.5 -50.5q0 -30 -21.5 -49.5t-54.5 -19.5t-54.5 19t-21.5 50zM626 102v-102h-597v88l403 509h-375v103h545v-89l-406 -509h430z" />
    <glyph glyph-name="zdotaccent" unicode="&#x17c;" horiz-adv-x="570" 
d="M209 653q0 32 22 53.5t55 21.5t55.5 -21.5t22.5 -53.5q0 -31 -23 -52t-55 -21q-33 0 -55 21t-22 52zM538 98v-98h-508v74l313 335h-295v97h471v-74l-313 -334h332z" />
    <glyph glyph-name="Zcaron" unicode="&#x17d;" horiz-adv-x="657" 
d="M391 757h-124l-105 147h89l78 -83l78 83h89zM626 102v-102h-597v88l403 509h-375v103h545v-89l-406 -509h430z" />
    <glyph glyph-name="zcaron" unicode="&#x17e;" horiz-adv-x="570" 
d="M347 575h-124l-112 161h91l83 -92l84 92h90zM538 98v-98h-508v74l313 335h-295v97h471v-74l-313 -334h332z" />
    <glyph glyph-name="longs" unicode="&#x17f;" horiz-adv-x="319" 
d="M229 559v-559h-125v412h-75v94h75v34q0 56 15 95.5t41.5 59.5t55.5 29t64 9q77 0 116.5 -40t39.5 -99q0 -14 -5 -28h-99q3 8 3 17q0 48 -50 48q-24 0 -40 -18.5t-16 -53.5z" />
    <glyph glyph-name="florin" unicode="&#x192;" horiz-adv-x="422" 
d="M249 314v-361q0 -56 -15 -95.5t-41.5 -59.5t-55.5 -29t-64 -9q-65 0 -100 23l41 89q19 -13 48 -13q32 0 47 23t15 73v359h-75v95h75v120q0 56 15 95.5t41.5 59.5t55.5 29t64 9q65 0 100 -23l-41 -89q-19 13 -48 13q-32 0 -47 -23t-15 -73v-118h123v-95h-123z" />
    <glyph glyph-name="Aringacute" unicode="&#x1fa;" horiz-adv-x="692" 
d="M141 0h-132l270 700h133l272 -700h-131l-53 137h-308zM463 241l-117 329l-118 -329h235zM355 1043h115l-76 -98q67 -25 67 -93q0 -47 -32.5 -74t-82.5 -27t-82 27t-32 74q0 36 19.5 61t52.5 35zM291 852q0 -45 55 -45q54 0 54 45q0 44 -54 44q-55 0 -55 -44z" />
    <glyph glyph-name="aringacute" unicode="&#x1fb;" horiz-adv-x="651" 
d="M331 866h115l-76 -98q67 -25 67 -93q0 -47 -32.5 -74t-82.5 -27t-82 27t-32 74q0 36 19.5 61t52.5 35zM267 675q0 -45 55 -45q54 0 54 45q0 44 -54 44q-55 0 -55 -44zM458 506h123v-506h-123v76q-56 -87 -173 -87q-110 0 -179 76.5t-69 189.5q0 111 68 186.5t181 75.5
q112 0 172 -86v75zM161 254q0 -70 40.5 -116t108.5 -46q65 0 108 42t43 115q0 74 -42.5 119.5t-111.5 45.5q-67 0 -106.5 -46t-39.5 -114z" />
    <glyph glyph-name="AEacute" unicode="&#x1fc;" horiz-adv-x="919" 
d="M-6 0l375 700h501v-103h-304v-214h267v-102h-267v-179h304v-102h-432v277h-163q-128 -243 -146 -277h-135zM324 378h114v204h-10zM564 904h130l-117 -147h-95z" />
    <glyph glyph-name="aeacute" unicode="&#x1fd;" horiz-adv-x="931" 
d="M496 736h133l-129 -161h-97zM238 314q84 0 147 -22v15q0 53 -35 79t-81 26q-94 0 -159 -52l-46 82q75 75 214 75q130 0 184 -82q68 82 188 82q110 0 182 -71t72 -210h-403q0 -62 45.5 -102.5t124.5 -40.5q45 0 76 15t64 47l70 -69q-88 -97 -216 -97q-151 0 -228 100
q-72 -100 -206 -100q-85 0 -143.5 44t-58.5 122q0 70 56.5 114.5t152.5 44.5zM650 419q-29 0 -55 -8t-51 -31.5t-36 -60.5h269q-24 100 -127 100zM385 219q-68 18 -128 18q-55 0 -79.5 -23t-24.5 -54t25 -52t73 -21q88 0 145 71q-10 37 -11 61z" />
    <glyph glyph-name="Oslashacute" unicode="&#x1fe;" horiz-adv-x="814" 
d="M438 904h130l-117 -147h-96zM197 -48l-70 48l48 71q-134 114 -134 279q0 149 108 255t258 106q90 0 171 -43l50 75l70 -48l-51 -75q126 -111 126 -270q0 -149 -108 -255t-258 -106q-85 0 -160 36zM171 350q0 -108 72 -178l268 398q-47 25 -104 25q-98 0 -167 -70
t-69 -175zM643 350q0 97 -64 168l-265 -394q42 -19 93 -19q98 0 167 70t69 175z" />
    <glyph glyph-name="oslashacute" unicode="&#x1ff;" horiz-adv-x="618" 
d="M342 736h133l-129 -161h-97zM565 485l-51 -58q69 -75 69 -174q0 -109 -81 -186.5t-193 -77.5q-81 0 -146 42l-56 -63l-55 49l54 61q-71 78 -71 175q0 109 81.5 186.5t192.5 77.5q79 0 147 -43l54 61zM158 253q0 -58 25 -88l201 227q-35 20 -75 20q-64 0 -107.5 -46.5
t-43.5 -112.5zM460 253q0 46 -24 86l-200 -225q32 -20 73 -20q64 0 107.5 46.5t43.5 112.5z" />
    <glyph glyph-name="Scommaaccent" unicode="&#x218;" horiz-adv-x="585" 
d="M248 -303l-23 43q74 27 74 80q-34 -11 -56.5 8t-22.5 50q-1 30 18.5 49.5t52.5 19.5q40 0 59.5 -27t19.5 -55q0 -128 -122 -168zM30 179l116 26q12 -46 50.5 -74.5t94.5 -28.5t91 24t35 65q0 60 -92 93l-90 31q-172 56 -172 197q0 90 67 144.5t165 54.5q87 0 147.5 -42
t84.5 -118l-108 -45q-30 91 -124 91q-45 0 -74.5 -21.5t-29.5 -61.5q0 -58 83 -87l90 -33q94 -30 137 -84.5t43 -113.5q0 -97 -72 -152t-178 -55q-102 0 -176 53t-88 137z" />
    <glyph glyph-name="scommaaccent" unicode="&#x219;" horiz-adv-x="462" 
d="M184 -303l-24 44q75 26 75 80q-12 -3 -22 -3q-26 0 -42 17t-16 44q0 30 19 49t52 19q40 0 60 -26.5t20 -55.5q0 -126 -122 -168zM26 120l97 41q9 -36 39.5 -54.5t68.5 -18.5q31 0 53.5 12.5t22.5 40.5q0 31 -55 54l-74 28q-127 47 -127 141q0 69 52.5 111t132.5 42
q137 0 177 -113l-99 -36q-16 52 -77 52q-26 0 -46 -14t-20 -39q0 -19 14 -30.5t39 -21.5l75 -27q73 -23 101 -63t28 -82q0 -72 -57.5 -113t-140.5 -41q-70 0 -127 32t-77 99z" />
    <glyph glyph-name="uni021A" unicode="&#x21a;" horiz-adv-x="598" 
d="M20 700h558v-103h-216v-597h-24q57 -46 57 -109q0 -59 -41 -87.5t-90 -28.5q-52 0 -89.5 31t-53.5 79q9 5 29 14.5t30 14.5q27 -56 73 -56q23 0 38 15t15 40q0 53 -47 87h-25v597h-214v103z" />
    <glyph glyph-name="uni021B" unicode="&#x21b;" horiz-adv-x="437" 
d="M218 -7q-119 26 -119 171v248h-79v94h85l22 135h95v-135h151v-94h-151v-265q0 -55 49 -55q23 0 36.5 14.5t13.5 37.5q0 27 -7 42h101q11 -23 11 -57q0 -50 -29 -86.5t-84 -48.5q55 -36 55 -103q0 -58 -39.5 -86.5t-89.5 -28.5q-52 0 -90 30.5t-55 78.5l60 29
q27 -56 72 -56q24 0 39 14.5t15 40.5q0 19 -15.5 45.5t-46.5 34.5z" />
    <glyph glyph-name="circumflex" unicode="&#x2c6;" horiz-adv-x="630" 
d="M252 736h125l112 -161h-91l-83 92l-84 -92h-90z" />
    <glyph glyph-name="caron" unicode="&#x2c7;" horiz-adv-x="623" 
d="M373 575h-124l-112 161h91l83 -92l84 92h90z" />
    <glyph glyph-name="uni02C9" unicode="&#x2c9;" horiz-adv-x="527" 
d="M115 693h297v-90h-297v90z" />
    <glyph glyph-name="breve" unicode="&#x2d8;" horiz-adv-x="474" 
d="M233 660q64 0 70 76l78 -8q-7 -83 -50 -117.5t-98 -34.5q-25 0 -47.5 7t-45 22.5t-37.5 47t-19 75.5l79 8q6 -76 70 -76z" />
    <glyph glyph-name="dotaccent" unicode="&#x2d9;" horiz-adv-x="334" 
d="M90 653q0 32 22 53.5t55 21.5q32 0 54.5 -21.5t22.5 -53.5q0 -31 -22.5 -52t-54.5 -21q-33 0 -55 21t-22 52z" />
    <glyph glyph-name="ring" unicode="&#x2da;" horiz-adv-x="409" 
d="M90 680q0 48 33 79.5t81 31.5t81.5 -31.5t33.5 -79.5q0 -47 -33.5 -78.5t-81.5 -31.5t-81 31.5t-33 78.5zM149 680q0 -23 16 -38.5t39 -15.5t38.5 15.5t15.5 38.5t-15.5 38t-38.5 15t-39 -15t-16 -38z" />
    <glyph glyph-name="ogonek" unicode="&#x2db;" horiz-adv-x="455" 
d="M237 23v-14q-61 -35 -61 -96q0 -26 15 -40.5t38 -14.5q46 0 73 56l59 -30q-16 -48 -53.5 -78.5t-89.5 -30.5q-49 0 -90 27.5t-41 87.5q0 34 21.5 71t69.5 62h59z" />
    <glyph glyph-name="tilde" unicode="&#x2dc;" horiz-adv-x="496" 
d="M360 725l59 -18q-16 -59 -38.5 -86t-62.5 -27q-28 0 -73 18.5t-59 18.5q-19 0 -29 -10t-22 -36l-59 18q16 59 38.5 86t62.5 27q28 0 73 -18.5t59 -18.5q19 0 29 10t22 36z" />
    <glyph glyph-name="hungarumlaut" unicode="&#x2dd;" horiz-adv-x="561" 
d="M192 736h100l-103 -161h-88zM359 736h101l-109 -161h-90z" />
    <glyph glyph-name="uni0394" unicode="&#x394;" horiz-adv-x="769" 
d="M41 0l279 700h139l266 -700h-684zM388 566l-178 -464h348z" />
    <glyph glyph-name="uni03A9" unicode="&#x3a9;" horiz-adv-x="811" 
d="M405 606q-100 0 -163.5 -70t-63.5 -179q0 -91 50 -158.5t137 -95.5v-103h-304v102h140q-63 31 -106.5 105.5t-43.5 159.5q0 145 99 244.5t255 99.5q157 0 256 -99.5t99 -244.5q0 -83 -44 -158.5t-106 -106.5h140v-102h-305v103q86 29 137 97t51 157q0 109 -63.5 179
t-164.5 70z" />
    <glyph glyph-name="uni03BC" unicode="&#x3bc;" horiz-adv-x="614" 
d="M70 -156v662h123v-290q0 -59 26 -91t72 -32q57 0 93.5 41.5t36.5 118.5v253h123v-506h-123v85q-46 -96 -164 -96q-35 0 -69 12v-157h-118z" />
    <glyph glyph-name="pi" unicode="&#x3c0;" horiz-adv-x="678" 
d="M455 409v-256q0 -61 49 -61q23 0 36.5 14.5t13.5 37.5q0 27 -7 42h101q11 -23 11 -57q0 -60 -41 -100t-119 -40q-73 0 -120 39.5t-47 135.5v21v224h-99v-409h-123v409h-81v97h538v-97h-112z" />
    <glyph glyph-name="Wgrave" unicode="&#x1e80;" horiz-adv-x="993" 
d="M339 904h130l83 -147h-96zM546 677l143 -458l149 481h129l-219 -700h-104l-147 475l-147 -475h-105l-219 700h129l149 -481l144 458h98z" />
    <glyph glyph-name="wgrave" unicode="&#x1e81;" horiz-adv-x="824" 
d="M232 736h133l93 -161h-96zM262 167l103 325h93l104 -325l109 339h133l-182 -506h-110l-100 319l-101 -319h-109l-182 506h132z" />
    <glyph glyph-name="Wacute" unicode="&#x1e82;" horiz-adv-x="993" 
d="M521 904h130l-117 -147h-96zM546 677l143 -458l149 481h129l-219 -700h-104l-147 475l-147 -475h-105l-219 700h129l149 -481l144 458h98z" />
    <glyph glyph-name="wacute" unicode="&#x1e83;" horiz-adv-x="824" 
d="M454 736h133l-130 -161h-96zM262 167l103 325h93l104 -325l109 339h133l-182 -506h-110l-100 319l-101 -319h-109l-182 506h132z" />
    <glyph glyph-name="Wdieresis" unicode="&#x1e84;" horiz-adv-x="993" 
d="M307 826q0 31 21 50t53 19t53 -19t21 -50q0 -30 -21 -48.5t-53 -18.5t-53 18.5t-21 48.5zM538 826q0 31 20.5 50t52.5 19q33 0 54 -19.5t21 -49.5t-21 -48.5t-54 -18.5q-32 0 -52.5 18.5t-20.5 48.5zM546 677l143 -458l149 481h129l-219 -700h-104l-147 475l-147 -475
h-105l-219 700h129l149 -481l144 458h98z" />
    <glyph glyph-name="wdieresis" unicode="&#x1e85;" horiz-adv-x="824" 
d="M219 656q0 31 21.5 51.5t53.5 20.5t53.5 -20.5t21.5 -51.5q0 -30 -21.5 -50.5t-53.5 -20.5t-53.5 20.5t-21.5 50.5zM450 656q0 31 21 51.5t53 20.5t54 -20.5t22 -51.5q0 -30 -22 -50.5t-54 -20.5t-53 20.5t-21 50.5zM262 167l103 325h93l104 -325l109 339h133l-182 -506
h-110l-100 319l-101 -319h-109l-182 506h132z" />
    <glyph glyph-name="Ygrave" unicode="&#x1ef2;" horiz-adv-x="704" 
d="M213 904h130l83 -147h-96zM351 400l189 300h143v-13l-267 -400v-287h-128v286l-267 401v13h143z" />
    <glyph glyph-name="ygrave" unicode="&#x1ef3;" horiz-adv-x="574" 
d="M291 159l132 347h138l-314 -735h-121l103 259l-215 476h139zM121 736h133l93 -161h-97z" />
    <glyph glyph-name="thinspace" unicode="&#x2009;" horiz-adv-x="17" 
 />
    <glyph glyph-name="endash" unicode="&#x2013;" horiz-adv-x="578" 
d="M64 255v104h449v-104h-449z" />
    <glyph glyph-name="emdash" unicode="&#x2014;" horiz-adv-x="799" 
d="M64 255v104h670v-104h-670z" />
    <glyph glyph-name="quoteleft" unicode="&#x2018;" horiz-adv-x="252" 
d="M174 722l25 -45q-76 -26 -76 -96q32 6 54.5 -14t22.5 -48q1 -31 -19.5 -51.5t-58.5 -20.5q-41 0 -58.5 29.5t-17.5 59.5q0 66 32.5 116.5t95.5 69.5z" />
    <glyph glyph-name="quoteright" unicode="&#x2019;" horiz-adv-x="250" 
d="M82 447l-26 46q76 26 76 96q-32 -6 -54.5 13.5t-22.5 47.5q-1 31 19.5 52t58.5 21q41 0 58.5 -29.5t17.5 -60.5q0 -66 -32 -116t-95 -70z" />
    <glyph glyph-name="quotesinglbase" unicode="&#x201a;" horiz-adv-x="256" 
d="M76 -134l-25 46q76 26 76 96q-32 -6 -54.5 13.5t-22.5 47.5q-1 31 19.5 52t58.5 21q41 0 58.5 -29.5t17.5 -60.5q0 -66 -32 -116t-96 -70z" />
    <glyph glyph-name="quotedblleft" unicode="&#x201c;" horiz-adv-x="477" 
d="M398 722l26 -45q-76 -26 -76 -96q32 6 54.5 -14t22.5 -48q1 -31 -19.5 -51.5t-58.5 -20.5q-41 0 -58.5 29.5t-17.5 59.5q0 66 32 116.5t95 69.5zM174 722l25 -45q-76 -26 -76 -96q32 6 54.5 -14t22.5 -48q1 -31 -19.5 -51.5t-58.5 -20.5q-41 0 -58.5 29.5t-17.5 59.5
q0 66 32.5 116.5t95.5 69.5z" />
    <glyph glyph-name="quotedblright" unicode="&#x201d;" horiz-adv-x="475" 
d="M82 447l-26 46q75 26 75 96q-32 -6 -54 13.5t-22 47.5q-2 31 18.5 52t58.5 21q40 0 58.5 -29.5t18.5 -60.5q0 -66 -32 -116t-95 -70zM306 447l-25 46q75 26 75 96q-32 -6 -54 13.5t-22 47.5q-2 31 18.5 52t58.5 21q40 0 58.5 -29.5t18.5 -60.5q0 -66 -32 -116t-96 -70z
" />
    <glyph glyph-name="quotedblbase" unicode="&#x201e;" horiz-adv-x="481" 
d="M77 -134l-26 46q76 26 76 96q-32 -6 -54.5 13.5t-22.5 47.5q-1 31 19.5 52t58.5 21q41 0 58.5 -29.5t17.5 -60.5q0 -66 -32 -116t-95 -70zM301 -134l-25 46q76 26 76 96q-32 -6 -54.5 13.5t-22.5 47.5q-1 31 19.5 52t58.5 21q41 0 58.5 -29.5t17.5 -60.5q0 -66 -32 -116
t-96 -70z" />
    <glyph glyph-name="dagger" unicode="&#x2020;" horiz-adv-x="545" 
d="M325 429v-571h-105v571h-188v94h188v240h105v-240h188v-94h-188z" />
    <glyph glyph-name="daggerdbl" unicode="&#x2021;" horiz-adv-x="567" 
d="M524 125h-188v-268h-105v268h-188v94h188v210h-188v94h188v240h105v-240h188v-94h-188v-210h188v-94z" />
    <glyph glyph-name="bullet" unicode="&#x2022;" horiz-adv-x="405" 
d="M75 251q0 53 36.5 90.5t90.5 37.5t91 -37.5t37 -90.5t-37 -90.5t-91 -37.5t-90.5 37t-36.5 91z" />
    <glyph glyph-name="ellipsis" unicode="&#x2026;" horiz-adv-x="851" 
d="M50 68q0 35 24 58t60 23t60 -23t24 -58q0 -34 -24.5 -56.5t-59.5 -22.5q-36 0 -60 22.5t-24 56.5zM342 68q0 35 24 58t59 23q36 0 60.5 -23t24.5 -58q0 -34 -25 -56.5t-60 -22.5t-59 22.5t-24 56.5zM633 68q0 35 24 58t60 23t60 -23t24 -58q0 -34 -24.5 -56.5
t-59.5 -22.5q-36 0 -60 22.5t-24 56.5z" />
    <glyph glyph-name="perthousand" unicode="&#x2030;" horiz-adv-x="1389" 
d="M229 0l389 700h92l-389 -700h-92zM34 528q0 77 54 130t133 53q80 0 133 -52.5t53 -130.5q0 -76 -53 -128.5t-133 -52.5q-79 0 -133 52.5t-54 128.5zM131 528q0 -41 26.5 -68t63.5 -27q39 0 65 26.5t26 68.5t-26 69.5t-65 27.5q-37 0 -63.5 -27.5t-26.5 -69.5zM539 170
q0 77 54 129.5t133 52.5q80 0 133 -52t53 -130q0 -76 -53 -128.5t-133 -52.5q-79 0 -133 52.5t-54 128.5zM636 170q0 -41 26.5 -68t63.5 -27q39 0 65 26.5t26 68.5t-26 69.5t-65 27.5q-37 0 -63.5 -27.5t-26.5 -69.5zM983 170q0 77 54 129.5t133 52.5q80 0 133 -52t53 -130
q0 -76 -53 -128.5t-133 -52.5q-79 0 -133 52.5t-54 128.5zM1080 170q0 -41 26.5 -68t63.5 -27q39 0 65 26.5t26 68.5t-26 69.5t-65 27.5q-37 0 -63.5 -27.5t-26.5 -69.5z" />
    <glyph glyph-name="guilsinglleft" unicode="&#x2039;" horiz-adv-x="348" 
d="M40 288v22l192 221l72 -61l-148 -171l147 -169l-71 -62z" />
    <glyph glyph-name="guilsinglright" unicode="&#x203a;" horiz-adv-x="347" 
d="M308 310v-22l-192 -220l-71 62l147 169l-148 171l72 61z" />
    <glyph glyph-name="fraction" unicode="&#x2044;" horiz-adv-x="150" 
d="M394 735l-547 -774h-92l546 774h93z" />
    <glyph glyph-name="zerosuperior" unicode="&#x2070;" horiz-adv-x="373" 
d="M345 611q0 -78 -43.5 -130.5t-115.5 -52.5q-71 0 -114.5 53t-43.5 130t43.5 130t114.5 53q72 0 115.5 -52.5t43.5 -130.5zM266 611q0 52 -21 83.5t-59 31.5q-36 0 -57.5 -31.5t-21.5 -83.5q0 -50 21.5 -82.5t57.5 -32.5q37 0 58.5 32.5t21.5 82.5z" />
    <glyph glyph-name="foursuperior" unicode="&#x2074;" horiz-adv-x="350" 
d="M96 586h90v103zM183 527h-170v42l183 218h66v-201h71v-59h-71v-90h-79v90z" />
    <glyph glyph-name="fivesuperior" unicode="&#x2075;" horiz-adv-x="324" 
d="M150 493q36 0 53.5 18t17.5 45q0 23 -17.5 41.5t-48.5 18.5q-40 0 -69 -21q-8 3 -48 23l9 168h223v-61h-158l-4 -70q25 16 68 16q53 0 88 -34t35 -81q0 -57 -38.5 -91.5t-108.5 -34.5q-78 0 -127 44l39 49q38 -30 86 -30z" />
    <glyph glyph-name="sixsuperior" unicode="&#x2076;" horiz-adv-x="343" 
d="M190 730q-35 0 -60 -28t-27 -75h2q28 40 88 40q50 0 87 -32t37 -86q0 -52 -39 -86t-99 -34q-71 0 -110.5 47.5t-39.5 126.5q0 81 41.5 135t117.5 54q78 0 114 -47l-46 -42q-23 27 -66 27zM177 610q-30 0 -48 -17t-18 -42q0 -26 18.5 -43t47.5 -17q28 0 46 16t18 43
t-17.5 43.5t-46.5 16.5z" />
    <glyph glyph-name="sevensuperior" unicode="&#x2077;" horiz-adv-x="298" 
d="M22 726v61h263v-45l-157 -305h-85l152 289h-173z" />
    <glyph glyph-name="eightsuperior" unicode="&#x2078;" horiz-adv-x="349" 
d="M176 643q26 0 40.5 13.5t14.5 32.5q0 20 -15.5 31.5t-40.5 11.5q-26 0 -41.5 -11.5t-15.5 -31.5q0 -19 15 -32.5t43 -13.5zM174 594q-34 0 -52.5 -15t-18.5 -37t20 -37.5t52 -15.5q30 0 50.5 15.5t20.5 37.5t-19.5 37.5t-52.5 14.5zM175 429q-64 0 -106 31.5t-42 81.5
q0 25 19.5 48.5t50.5 31.5q-25 9 -39.5 28t-14.5 39q0 45 37 73.5t95 28.5q57 0 94.5 -28.5t37.5 -73.5q0 -20 -15 -39t-40 -28q31 -8 50.5 -31.5t19.5 -48.5q0 -50 -41.5 -81.5t-105.5 -31.5z" />
    <glyph glyph-name="ninesuperior" unicode="&#x2079;" horiz-adv-x="343" 
d="M153 490q35 0 60 28t27 75h-2q-28 -40 -88 -40q-50 0 -87 32t-37 86q0 52 39 86.5t99 34.5q71 0 110.5 -48t39.5 -127q0 -81 -41.5 -134.5t-117.5 -53.5q-78 0 -114 46l46 42q23 -27 66 -27zM166 610q30 0 48 17t18 42q0 26 -18.5 43t-47.5 17q-28 0 -46 -16t-18 -43
t17.5 -43.5t46.5 -16.5z" />
    <glyph glyph-name="parenleftsuperior" unicode="&#x207d;" horiz-adv-x="207" 
d="M109 607q0 -114 68 -220q-8 -5 -22.5 -14t-21.5 -15q-33 33 -66 102t-33 147q0 79 33 147.5t66 101.5l44 -29q-25 -35 -46.5 -94.5t-21.5 -125.5z" />
    <glyph glyph-name="parenrightsuperior" unicode="&#x207e;" horiz-adv-x="207" 
d="M98 607q0 122 -68 220l44 29q33 -33 66 -101.5t33 -147.5q0 -78 -33 -147t-66 -102q-8 6 -22 15t-22 14q68 108 68 220z" />
    <glyph glyph-name="zeroinferior" unicode="&#x2080;" horiz-adv-x="373" 
d="M345 32q0 -78 -43.5 -130.5t-115.5 -52.5q-71 0 -114.5 53t-43.5 130t43.5 130t114.5 53q72 0 115.5 -52.5t43.5 -130.5zM266 32q0 52 -21 83.5t-59 31.5q-36 0 -57.5 -31.5t-21.5 -83.5q0 -50 21.5 -82.5t57.5 -32.5q37 0 58.5 32.5t21.5 82.5z" />
    <glyph glyph-name="oneinferior" unicode="&#x2081;" horiz-adv-x="226" 
d="M28 90l-20 59l133 59h44v-350h-80v265z" />
    <glyph glyph-name="twoinferior" unicode="&#x2082;" horiz-adv-x="330" 
d="M223 -19l-71 -63q19 3 51 3h100v-63h-269l-8 45l145 127q42 35 42 71q0 47 -51 47q-29 0 -42.5 -16t-13.5 -37h-77q0 44 32.5 81.5t100.5 37.5q59 0 93.5 -31.5t34.5 -81.5q0 -64 -67 -120z" />
    <glyph glyph-name="threeinferior" unicode="&#x2083;" horiz-adv-x="327" 
d="M151 -86q30 0 49 17.5t19 41.5q0 26 -19 43t-44 17q-26 0 -45 -10l-30 39l98 85h-145v61h253v-43l-94 -86q48 -5 76.5 -34.5t28.5 -71.5q0 -52 -40 -86.5t-108 -34.5q-81 0 -129 43l40 50q40 -31 90 -31z" />
    <glyph glyph-name="fourinferior" unicode="&#x2084;" horiz-adv-x="352" 
d="M97 7h90v103zM184 -52h-170v42l183 218h66v-201h71v-59h-71v-90h-79v90z" />
    <glyph glyph-name="fiveinferior" unicode="&#x2085;" horiz-adv-x="324" 
d="M150 -86q36 0 53.5 18t17.5 45q0 23 -17.5 41.5t-48.5 18.5q-40 0 -69 -21q-8 3 -48 23l9 168h223v-61h-158l-4 -70q25 16 68 16q53 0 88 -34t35 -81q0 -57 -38.5 -91.5t-108.5 -34.5q-78 0 -127 44l39 49q38 -30 86 -30z" />
    <glyph glyph-name="sixinferior" unicode="&#x2086;" horiz-adv-x="343" 
d="M190 151q-35 0 -60 -28t-27 -75h2q28 40 88 40q50 0 87 -32t37 -86q0 -52 -39 -86t-99 -34q-71 0 -110.5 47.5t-39.5 126.5q0 81 41.5 135t117.5 54q78 0 114 -47l-46 -42q-23 27 -66 27zM177 31q-30 0 -48 -17t-18 -42q0 -26 18.5 -43t47.5 -17q28 0 46 16t18 43
t-17.5 43.5t-46.5 16.5z" />
    <glyph glyph-name="seveninferior" unicode="&#x2087;" horiz-adv-x="293" 
d="M20 147v61h263v-45l-157 -305h-85l152 289h-173z" />
    <glyph glyph-name="eightinferior" unicode="&#x2088;" horiz-adv-x="349" 
d="M176 64q26 0 40.5 13.5t14.5 32.5q0 20 -15.5 31.5t-40.5 11.5q-26 0 -41.5 -11.5t-15.5 -31.5q0 -19 15 -32.5t43 -13.5zM174 15q-34 0 -52.5 -15t-18.5 -37t20 -37.5t52 -15.5q30 0 50.5 15.5t20.5 37.5t-19.5 37.5t-52.5 14.5zM175 -150q-64 0 -106 31.5t-42 81.5
q0 25 19.5 48.5t50.5 31.5q-25 9 -39.5 28t-14.5 39q0 45 37 73.5t95 28.5q57 0 94.5 -28.5t37.5 -73.5q0 -20 -15 -39t-40 -28q31 -8 50.5 -31.5t19.5 -48.5q0 -50 -41.5 -81.5t-105.5 -31.5z" />
    <glyph glyph-name="nineinferior" unicode="&#x2089;" horiz-adv-x="344" 
d="M154 -89q35 0 60 28t27 75h-2q-28 -40 -88 -40q-50 0 -87 32t-37 86q0 52 39 86.5t99 34.5q71 0 110.5 -48t39.5 -127q0 -81 -41.5 -134.5t-117.5 -53.5q-78 0 -114 46l46 42q23 -27 66 -27zM167 31q30 0 48 17t18 42q0 26 -18.5 43t-47.5 17q-28 0 -46 -16t-18 -43
t17.5 -43.5t46.5 -16.5z" />
    <glyph glyph-name="parenleftinferior" unicode="&#x208d;" horiz-adv-x="209" 
d="M109 28q0 -119 69 -220q-8 -5 -22.5 -14.5t-21.5 -14.5q-33 33 -66 102t-33 147q0 79 33 148t66 102l44 -30q-69 -101 -69 -220z" />
    <glyph glyph-name="parenrightinferior" unicode="&#x208e;" horiz-adv-x="209" 
d="M100 28q0 119 -69 220l44 30q33 -33 66 -102t33 -148q0 -78 -33 -147t-66 -102q-7 5 -22 14.5t-22 14.5q69 101 69 220z" />
    <glyph glyph-name="lira" unicode="&#x20a4;" horiz-adv-x="642" 
d="M469 220h-150q0 -28 -13.5 -64t-47.5 -54v-5q48 5 123 5h219v-102h-556v102q51 0 84 11t47 30.5t18.5 36.5t4.5 40h-134v65h124q-3 7 -10.5 27t-11.5 31h-102v65h77q-21 61 -21 104q0 88 68 143.5t169 55.5q58 0 103 -17.5t70.5 -46t38 -61t12.5 -65.5h-118
q0 37 -27.5 60t-76.5 23q-54 0 -84.5 -25.5t-30.5 -70.5q0 -40 20 -100h205v-65h-181q5 -12 12 -32.5t9 -25.5h160v-65z" />
    <glyph glyph-name="rupee" unicode="&#x20a8;" horiz-adv-x="692" 
d="M55 448v69h345q-10 36 -37 57t-65 20h-243v106h587v-69h-162q41 -45 52 -114h110v-69h-108q-7 -69 -48 -118t-107 -66q12 -67 42.5 -115.5t81.5 -48.5q46 0 77 31l45 -88q-62 -54 -140 -54q-58 0 -102.5 29.5t-68.5 75.5t-36 86t-16 77h-207v102h243q42 0 69.5 23.5
t35.5 65.5h-348z" />
    <glyph glyph-name="uni20A9" unicode="&#x20a9;" horiz-adv-x="1044" 
d="M41 443v63h71l-60 194h129l60 -194h179l54 171h98l53 -171h179l60 194h129l-61 -194h71v-63h-91l-19 -60h110v-63h-129l-100 -320h-104l-147 475l-147 -475h-105l-101 320h-128v63h109l-19 60h-91zM260 443l19 -60h103l19 60h-141zM645 443l18 -60h103l18 60h-139z
M298 320l32 -101l32 101h-64zM683 320l32 -101l31 101h-63z" />
    <glyph glyph-name="afii57636" unicode="&#x20aa;" horiz-adv-x="808" 
d="M186 418v-418h-120v538h293q92 0 149 -57t57 -143v-156h-120v156q0 34 -24 57t-62 23h-173zM622 120v418h120v-538h-293q-92 0 -149 57t-57 143v156h120v-156q0 -34 24 -57t62 -23h173z" />
    <glyph glyph-name="Euro" unicode="&#x20ac;" horiz-adv-x="687" 
d="M39 378v71h104q23 119 107.5 190.5t223.5 71.5q97 0 178 -48q-21 -54 -38 -100q-28 17 -66.5 26t-62.5 9q-169 0 -213 -149h306l-25 -71h-294q-1 -9 -1 -28q0 -11 2 -33h273l-25 -70h-233q21 -68 73 -107t131 -39q71 0 135 24v-109q-65 -27 -132 -27q-142 0 -228.5 71
t-109.5 187h-105v70h97q-2 16 -2 29q0 21 1 32h-96z" />
    <glyph glyph-name="uni2113" unicode="&#x2113;" horiz-adv-x="483" 
d="M447 539q0 -133 -61.5 -234.5t-160.5 -137.5q1 -37 16.5 -58t41.5 -21q48 0 48 50v20h97q8 -22 8 -37q0 -59 -41 -95.5t-116 -36.5q-162 0 -178 168h-15q-33 0 -57 5v79q23 -3 42 -3q23 0 29 2v299q0 46 13.5 81.5t33 54t45.5 30.5t46 15t41 3q28 0 53 -6.5t53.5 -24
t45 -56.5t16.5 -97zM345 543q0 43 -18.5 61.5t-41.5 18.5q-61 0 -61 -100v-254q55 33 88 106t33 168z" />
    <glyph glyph-name="afii61352" unicode="&#x2116;" horiz-adv-x="1100" 
d="M731 550q0 68 46.5 114.5t115.5 46.5t115 -46.5t46 -114.5q0 -66 -46 -112.5t-115 -46.5t-115.5 46.5t-46.5 112.5zM810 550q0 -36 23.5 -60.5t59.5 -24.5t59.5 24.5t23.5 60.5q0 38 -23 63t-60 25t-60 -25t-23 -63zM736 264v68h313v-68h-313zM546 0l-346 472v-472h-128
v700h97l345 -469v469h128v-700h-96z" />
    <glyph glyph-name="uni2117" unicode="&#x2117;" horiz-adv-x="798" 
d="M372 358h60q18 0 29 14t11 35t-11 36.5t-29 15.5h-60v-101zM442 290h-70v-125h-85v362h155q54 0 85 -34.5t31 -85.5q0 -52 -31.5 -84.5t-84.5 -32.5zM46 350q0 150 102 255.5t251 105.5t251 -105.5t102 -255.5t-102 -255.5t-251 -105.5t-251 105.5t-102 255.5zM112 350
q0 -124 82.5 -209.5t204.5 -85.5q120 0 203.5 86t83.5 209q0 122 -83.5 208.5t-203.5 86.5q-121 0 -204 -86.5t-83 -208.5z" />
    <glyph glyph-name="trademark" unicode="&#x2122;" horiz-adv-x="890" 
d="M36 723h333v-72h-126v-294h-81v294h-126v72zM822 357h-79l-20 215l-88 -207h-59l-89 207l-19 -215h-81l36 366h75l107 -254l105 254h79z" />
    <glyph glyph-name="Omega" unicode="&#x2126;" horiz-adv-x="815" 
d="M407 606q-100 0 -163.5 -70t-63.5 -179q0 -91 50 -158.5t137 -95.5v-103h-304v102h140q-63 31 -106.5 105.5t-43.5 159.5q0 145 99 244.5t255 99.5q157 0 256 -99.5t99 -244.5q0 -83 -44 -158.5t-106 -106.5h140v-102h-305v103q86 29 137 97t51 157q0 109 -63.5 179
t-164.5 70z" />
    <glyph glyph-name="estimated" unicode="&#x212e;" horiz-adv-x="635" 
d="M598 282h-429v-193q68 -63 152 -63q76 0 122 32.5t88 94.5l31 -19q-43 -68 -98.5 -104.5t-142.5 -36.5q-119 0 -195 84.5t-76 205.5q0 123 75 206.5t200 83.5q124 0 198.5 -84.5t74.5 -206.5zM478 315v163q-68 62 -153 62q-96 0 -156 -62v-163h309z" />
    <glyph glyph-name="arrowleft" unicode="&#x2190;" horiz-adv-x="658" 
d="M568 301v-96h-342l105 -121l-71 -62l-192 220v22l192 221l72 -61l-106 -123h342z" />
    <glyph glyph-name="arrowup" unicode="&#x2191;" horiz-adv-x="581" 
d="M339 9h-96v342l-123 -106l-61 72l221 192h22l220 -192l-62 -71l-121 105v-342z" />
    <glyph glyph-name="arrowright" unicode="&#x2192;" horiz-adv-x="658" 
d="M90 205v96h342l-106 123l72 61l192 -221v-22l-192 -220l-71 62l105 121h-342z" />
    <glyph glyph-name="arrowdown" unicode="&#x2193;" horiz-adv-x="583" 
d="M244 509h96v-342l121 105l62 -71l-220 -192h-22l-221 192l61 72l123 -106v342z" />
    <glyph glyph-name="partialdiff" unicode="&#x2202;" horiz-adv-x="662" 
d="M274 582l-40 96q71 33 149 33q242 0 242 -286q0 -189 -92.5 -312.5t-259.5 -123.5q-117 0 -176.5 60t-59.5 151q0 112 83.5 180.5t194.5 68.5q119 0 185 -72q6 35 6 53q0 174 -141 174q-48 0 -91 -22zM334 346q-82 0 -127 -39t-45 -99q0 -54 35 -82.5t88 -28.5
q70 0 125.5 49t73.5 132q-63 68 -150 68z" />
    <glyph glyph-name="Delta" unicode="&#x2206;" horiz-adv-x="741" 
d="M28 0l279 700h139l266 -700h-684zM375 566l-178 -464h348z" />
    <glyph glyph-name="product" unicode="&#x220f;" horiz-adv-x="738" 
d="M605 601v-743h-125v743h-221v-743h-125v743h-98v99h666v-99h-97z" />
    <glyph glyph-name="summation" unicode="&#x2211;" horiz-adv-x="587" 
d="M36 -68l235 345l-225 348v75h477v-103h-326v-2l207 -315l-216 -318v-2h363v-102h-515v74z" />
    <glyph glyph-name="minus" unicode="&#x2212;" horiz-adv-x="655" 
d="M67 257v104h521v-104h-521z" />
    <glyph glyph-name="uni2219" unicode="&#x2219;" horiz-adv-x="301" 
d="M67 278q0 35 24 58t59 23q36 0 60.5 -23t24.5 -58q0 -34 -25 -56.5t-60 -22.5t-59 22.5t-24 56.5z" />
    <glyph glyph-name="radical" unicode="&#x221a;" horiz-adv-x="560" 
d="M173 433l99 -297l16 -62l15 74l143 615h96l-201 -859h-103l-138 400l-66 -28l-33 78z" />
    <glyph glyph-name="infinity" unicode="&#x221e;" horiz-adv-x="855" 
d="M151 300q0 -37 24.5 -57.5t61.5 -20.5q39 0 85 42l39 36l-40 37q-44 41 -84 41q-37 0 -61.5 -20.5t-24.5 -57.5zM806 300q0 -79 -51.5 -127t-126.5 -48q-84 0 -161 72l-38 36h-2l-36 -36q-79 -72 -164 -72q-77 0 -127.5 47t-50.5 128q0 80 51 127.5t127 47.5
q92 0 164 -72l36 -36h2l38 36q76 71 161 72q76 0 127 -47.5t51 -127.5zM705 299q0 37 -25 58t-60 21q-21 0 -42.5 -11t-35 -23t-48.5 -45l41 -37q46 -40 85 -40q36 0 60.5 20t24.5 57z" />
    <glyph glyph-name="integral" unicode="&#x222b;" horiz-adv-x="524" 
d="M324 560v-594q0 -60 -17 -103t-45 -64t-56 -30t-58 -9q-84 0 -150 53l29 105q54 -47 105 -47q28 0 47.5 20t19.5 66v594q0 60 17 103t45 64t56 30t58 9q85 0 151 -53l-29 -105q-55 47 -107 47q-27 0 -46.5 -20t-19.5 -66z" />
    <glyph glyph-name="approxequal" unicode="&#x2248;" horiz-adv-x="642" 
d="M541 503l35 -83q-45 -66 -132 -66q-43 0 -125.5 26t-115.5 26q-68 0 -103 -41l-33 87q45 64 130 64q47 0 131.5 -26.5t111.5 -26.5q65 0 101 40zM540 249l35 -83q-47 -67 -133 -67q-41 0 -124 26.5t-117 26.5q-67 0 -102 -41l-34 87q45 63 131 63q48 0 132 -26t110 -26
q66 0 102 40z" />
    <glyph glyph-name="notequal" unicode="&#x2260;" horiz-adv-x="600" 
d="M541 149h-293l-69 -129l-69 38l50 91h-100v103h155q32 56 88 163h-243v102h299l66 124l68 -37q-32 -58 -47 -87h95v-102h-151l-87 -163h238v-103z" />
    <glyph glyph-name="lessequal" unicode="&#x2264;" horiz-adv-x="622" 
d="M59 0v95h491v-95h-491zM60 435l477 183h12v-109l-350 -123l350 -123v-109h-12l-477 182v99z" />
    <glyph glyph-name="greaterequal" unicode="&#x2265;" horiz-adv-x="622" 
d="M563 95v-95h-491v95h491zM85 618l477 -183v-99l-477 -182h-12v109l350 123l-350 123v109h12z" />
    <glyph glyph-name="lozenge" unicode="&#x25ca;" horiz-adv-x="591" 
d="M557 341l-218 -341h-87l-218 341l217 360h88zM440 341l-145 236l-144 -237l144 -222z" />
    <glyph glyph-name="commaaccent" unicode="&#xf6c3;" horiz-adv-x="331" 
d="M119 -303l-24 43q75 27 75 80q-34 -11 -56.5 8t-23.5 50q0 30 19 49.5t52 19.5q40 0 60 -27t20 -55q0 -128 -122 -168z" />
    <glyph glyph-name="rupiah" unicode="&#xf6dd;" horiz-adv-x="1330" 
d="M203 359h154q50 0 79 32.5t29 84.5t-30 85t-78 33h-154v-235zM595 475q0 -78 -42 -135t-115 -76q12 -67 42.5 -115.5t81.5 -48.5q46 0 77 31l45 -88q-62 -54 -140 -54q-58 0 -102.5 29.5t-68.5 75.5t-36 86t-16 77h-118v-257h-128v700h302q100 0 159 -65.5t59 -159.5z
M873 -229h-123v735h123v-76q56 87 173 87q111 0 179.5 -76t68.5 -190q0 -111 -68 -186.5t-181 -75.5q-112 0 -172 86v-304zM1170 252q0 70 -40.5 116t-108.5 46q-65 0 -108 -42t-43 -115t43 -119t111 -46q67 0 106.5 46t39.5 114z" />
    <glyph glyph-name="centinferior" unicode="&#xf6df;" horiz-adv-x="301" 
d="M177 211h33l-9 -54q38 -8 75 -34l-31 -50q-17 15 -53 25l-22 -143q41 0 72 27l36 -51q-52 -38 -109 -38q-7 0 -9 1l-7 -43h-35l7 48q-46 13 -73 47t-27 81q0 52 33.5 87t90.5 43l20 3zM102 27q0 -40 35 -62l20 132q-24 -6 -39.5 -25t-15.5 -45z" />
    <glyph glyph-name="centsuperior" unicode="&#xf6e0;" horiz-adv-x="301" 
d="M177 796h33l-9 -54q38 -8 75 -34l-31 -50q-17 15 -53 25l-22 -143q41 0 72 27l36 -51q-52 -38 -109 -38q-7 0 -9 1l-7 -43h-35l7 48q-46 13 -73 47t-27 81q0 52 33.5 87t90.5 43l20 3zM102 612q0 -40 35 -62l20 132q-24 -6 -39.5 -25t-15.5 -45z" />
    <glyph glyph-name="commainferior" unicode="&#xf6e1;" horiz-adv-x="179" 
d="M53 -227l-17 29q22 8 36 23t16 31q-19 -2 -32 10t-13 28q-1 18 11 31t34 13q26 0 37.5 -17.5t11.5 -36.5q0 -38 -22 -68.5t-62 -42.5z" />
    <glyph glyph-name="commasuperior" unicode="&#xf6e2;" horiz-adv-x="179" 
d="M54 352l-17 29q22 8 36 23t16 31q-19 -2 -32 10t-13 28q-1 18 11 31t34 13q26 0 37.5 -17.5t11.5 -36.5q0 -38 -22 -68.5t-62 -42.5z" />
    <glyph glyph-name="dollarinferior" unicode="&#xf6e3;" horiz-adv-x="311" 
d="M146 -182v38q-49 2 -83 28.5t-42 68.5l64 16q5 -21 22 -36t39 -18v87l-21 8q-88 35 -88 100q0 42 30.5 68.5t78.5 29.5v37h27v-37q79 -11 103 -81l-59 -25q-11 34 -44 46v-83q6 -3 20 -7q45 -16 69 -44t24 -55q0 -46 -31.5 -72.5t-81.5 -29.5v-39h-27zM111 111
q0 -24 35 -36v75q-35 -9 -35 -39zM211 -44q0 21 -38 36v-75q38 8 38 39z" />
    <glyph glyph-name="dollarsuperior" unicode="&#xf6e4;" horiz-adv-x="312" 
d="M146 397v38q-49 2 -83 28.5t-42 68.5l64 16q5 -21 22 -36t39 -18v87l-21 8q-88 35 -88 100q0 42 30.5 68.5t78.5 29.5v37h27v-37q79 -11 103 -81l-59 -25q-11 34 -44 46v-83q6 -3 20 -7q45 -16 69 -44t24 -55q0 -46 -31.5 -72.5t-81.5 -29.5v-39h-27zM111 690
q0 -24 35 -36v75q-35 -9 -35 -39zM211 535q0 21 -38 36v-75q38 8 38 39z" />
    <glyph glyph-name="hypheninferior" unicode="&#xf6e5;" horiz-adv-x="288" 
d="M42 -4v63h204v-63h-204z" />
    <glyph glyph-name="hyphensuperior" unicode="&#xf6e6;" horiz-adv-x="288" 
d="M42 575v63h204v-63h-204z" />
    <glyph glyph-name="periodinferior" unicode="&#xf6e7;" horiz-adv-x="180" 
d="M39 -106q0 19 15 32t36 13t36 -13t15 -32t-15 -32t-36 -13t-36 13t-15 32z" />
    <glyph glyph-name="periodsuperior" unicode="&#xf6e8;" horiz-adv-x="178" 
d="M38 473q0 19 15 32t36 13t36 -13t15 -32t-15 -32t-36 -13t-36 13t-15 32z" />
    <glyph glyph-name="apple" unicode="&#xf8ff;" horiz-adv-x="702" 
d="M443 152h75q0 75 -40.5 117.5t-98.5 51.5q34 90 74 165l15 -195h75l-26 334h-73q-66 -123 -94 -203q-28 80 -94 203h-73l-26 -334h75l15 195q28 -51 74 -163q-62 -7 -105.5 -50t-43.5 -121h76q0 52 30 79t68 27t67.5 -27t29.5 -79zM100 0v690h502v-690h-502zM145 82v-39
h8v27l9 -27h7l10 28v-28h8v39h-12l-9 -27l-9 27h-12zM209 83q-19 0 -19 -21q0 -20 19 -20q9 0 14.5 6t5.5 14q0 21 -20 21zM209 49q-10 0 -10 13q0 14 10 14q11 0 11 -14q0 -13 -11 -13zM237 56h-8q0 -14 17 -14q16 0 16 13q0 8 -11 11q-12 3 -12 6q0 4 6 4q7 0 7 -6h9
q0 13 -16 13q-15 0 -15 -12q0 -10 13 -11q11 -3 11 -6q0 -5 -8 -5q-9 0 -9 7zM273 75v-32h9v32h12v7h-33v-7h12zM302 82l-15 -39h9l3 9h14l3 -9h9l-14 39h-9zM311 58h-10l5 14zM326 82v-39h9v15h8q7 0 7 -7t1 -8h9q-2 6 -2 9q0 8 -6 9v1q7 1 7 9q0 11 -12 11h-21zM335 64v11
h9q6 0 6 -5q0 -6 -6 -6h-9zM363 82v-39h17q18 0 18 20q0 19 -18 19h-17zM372 50v25h6q11 0 11 -13q0 -12 -10 -12h-7zM401 82v-39h30v7h-22v10h19v7h-19v8h21v7h-29zM440 56h-9q0 -14 17 -14q16 0 16 13q0 8 -11 11q-12 3 -12 6q0 4 6 4q7 0 8 -6h8q0 13 -16 13
q-15 0 -15 -12q0 -10 13 -11q11 -3 11 -6q0 -5 -8 -5t-8 7zM467 82v-39h8v39h-8zM508 47l1 -4h6v21h-17v-6h9q-1 -9 -9 -9q-11 0 -11 13q0 14 11 14q7 0 8 -7h8q-2 14 -16 14q-20 0 -20 -21q0 -20 20 -20q5 0 10 5zM519 82v-39h8v26l16 -26h9v39h-8v-26l-17 26h-8z" />
    <glyph glyph-name="Euro.dnom" horiz-adv-x="363" 
d="M22 186v35h54q13 60 55.5 97.5t113.5 37.5q50 0 96 -27l-21 -55q-31 18 -73 18q-37 0 -60.5 -20.5t-30.5 -50.5h149l-13 -35h-141v-29h134l-15 -35h-113q10 -30 34 -48t57 -18q41 0 75 14v-62q-36 -16 -73 -16q-75 0 -118 35t-56 95h-54v35h50v29h-50z" />
    <glyph glyph-name="Euro.numr" horiz-adv-x="362" 
d="M22 536v35h54q13 60 55.5 97.5t113.5 37.5q50 0 96 -27l-21 -55q-31 18 -73 18q-37 0 -60.5 -20.5t-30.5 -50.5h149l-13 -35h-141v-29h134l-15 -35h-113q10 -30 34 -48t57 -18q41 0 75 14v-62q-36 -16 -73 -16q-75 0 -118 35t-56 95h-54v35h50v29h-50z" />
    <glyph glyph-name="Euroinferior" horiz-adv-x="362" 
d="M22 44v35h54q13 60 55.5 97.5t113.5 37.5q50 0 96 -27l-21 -55q-31 18 -73 18q-37 0 -60.5 -20.5t-30.5 -50.5h149l-13 -35h-141v-29h134l-15 -35h-113q10 -30 34 -48t57 -18q41 0 75 14v-62q-36 -16 -73 -16q-75 0 -118 35t-56 95h-54v35h50v29h-50z" />
    <glyph glyph-name="Eurosuperior" horiz-adv-x="364" 
d="M22 623v35h54q13 60 55.5 97.5t113.5 37.5q50 0 96 -27l-21 -55q-31 18 -73 18q-37 0 -60.5 -20.5t-30.5 -50.5h149l-13 -35h-141v-29h134l-15 -35h-113q10 -30 34 -48t57 -18q41 0 75 14v-62q-36 -16 -73 -16q-75 0 -118 35t-56 95h-54v35h50v29h-50z" />
    <glyph glyph-name="a.alt" horiz-adv-x="578" 
d="M256 237q-54 0 -79 -24t-25 -56q0 -28 24 -50t70 -22q90 0 147 70v61q-71 21 -137 21zM219 -11q-78 0 -134.5 44t-56.5 122q0 70 56.5 114.5t152.5 44.5q86 0 152 -23v16q0 53 -37 79t-84 26q-94 0 -159 -52l-46 82q75 75 214 75q59 0 104 -15t69.5 -37t40 -53.5
t20 -58.5t4.5 -57v-296h-123v75q-23 -37 -68.5 -61.5t-104.5 -24.5z" />
    <glyph glyph-name="aacute.alt" horiz-adv-x="579" 
d="M318 736h133l-130 -161h-96zM257 237q-54 0 -79 -24t-25 -56q0 -28 24 -50t70 -22q90 0 147 70v61q-71 21 -137 21zM220 -11q-78 0 -134.5 44t-56.5 122q0 70 56.5 114.5t152.5 44.5q86 0 152 -23v16q0 53 -37 79t-84 26q-94 0 -159 -52l-46 82q75 75 214 75
q59 0 104 -15t69.5 -37t40 -53.5t20 -58.5t4.5 -57v-296h-123v75q-23 -37 -68.5 -61.5t-104.5 -24.5z" />
    <glyph glyph-name="abreve.alt" horiz-adv-x="578" 
d="M289 660q64 0 70 76l78 -8q-7 -83 -50 -117.5t-98 -34.5q-25 0 -47.5 7t-45 22.5t-37.5 47t-19 75.5l79 8q6 -76 70 -76zM256 237q-54 0 -79 -24t-25 -56q0 -28 24 -50t70 -22q90 0 147 70v61q-71 21 -137 21zM219 -11q-78 0 -134.5 44t-56.5 122q0 70 56.5 114.5
t152.5 44.5q86 0 152 -23v16q0 53 -37 79t-84 26q-94 0 -159 -52l-46 82q75 75 214 75q59 0 104 -15t69.5 -37t40 -53.5t20 -58.5t4.5 -57v-296h-123v75q-23 -37 -68.5 -61.5t-104.5 -24.5z" />
    <glyph glyph-name="acircumflex.alt" horiz-adv-x="578" 
d="M217 736h125l112 -161h-91l-83 92l-84 -92h-90zM256 237q-54 0 -79 -24t-25 -56q0 -28 24 -50t70 -22q90 0 147 70v61q-71 21 -137 21zM219 -11q-78 0 -134.5 44t-56.5 122q0 70 56.5 114.5t152.5 44.5q86 0 152 -23v16q0 53 -37 79t-84 26q-94 0 -159 -52l-46 82
q75 75 214 75q59 0 104 -15t69.5 -37t40 -53.5t20 -58.5t4.5 -57v-296h-123v75q-23 -37 -68.5 -61.5t-104.5 -24.5z" />
    <glyph glyph-name="acute.case" horiz-adv-x="455" 
d="M192 904h130l-117 -147h-96z" />
    <glyph glyph-name="adieresis.alt" horiz-adv-x="578" 
d="M95 656q0 31 21 51.5t53 20.5t53.5 -20.5t21.5 -51.5q0 -30 -21.5 -50.5t-53.5 -20.5t-53 20.5t-21 50.5zM326 656q0 31 21 51.5t53 20.5t53.5 -20.5t21.5 -51.5q0 -30 -21.5 -50.5t-53.5 -20.5t-53 20.5t-21 50.5zM256 237q-54 0 -79 -24t-25 -56q0 -28 24 -50t70 -22
q90 0 147 70v61q-71 21 -137 21zM219 -11q-78 0 -134.5 44t-56.5 122q0 70 56.5 114.5t152.5 44.5q86 0 152 -23v16q0 53 -37 79t-84 26q-94 0 -159 -52l-46 82q75 75 214 75q59 0 104 -15t69.5 -37t40 -53.5t20 -58.5t4.5 -57v-296h-123v75q-23 -37 -68.5 -61.5
t-104.5 -24.5z" />
    <glyph glyph-name="agrave.alt" horiz-adv-x="578" 
d="M117 736h133l93 -161h-97zM256 237q-54 0 -79 -24t-25 -56q0 -28 24 -50t70 -22q90 0 147 70v61q-71 21 -137 21zM219 -11q-78 0 -134.5 44t-56.5 122q0 70 56.5 114.5t152.5 44.5q86 0 152 -23v16q0 53 -37 79t-84 26q-94 0 -159 -52l-46 82q75 75 214 75q59 0 104 -15
t69.5 -37t40 -53.5t20 -58.5t4.5 -57v-296h-123v75q-23 -37 -68.5 -61.5t-104.5 -24.5z" />
    <glyph glyph-name="amacron.alt" horiz-adv-x="578" 
d="M140 693h297v-90h-297v90zM256 237q-54 0 -79 -24t-25 -56q0 -28 24 -50t70 -22q90 0 147 70v61q-71 21 -137 21zM219 -11q-78 0 -134.5 44t-56.5 122q0 70 56.5 114.5t152.5 44.5q86 0 152 -23v16q0 53 -37 79t-84 26q-94 0 -159 -52l-46 82q75 75 214 75q59 0 104 -15
t69.5 -37t40 -53.5t20 -58.5t4.5 -57v-296h-123v75q-23 -37 -68.5 -61.5t-104.5 -24.5z" />
    <glyph glyph-name="aogonek.alt" horiz-adv-x="578" 
d="M219 -11q-78 0 -134.5 44t-56.5 122q0 70 56.5 114.5t152.5 44.5q86 0 152 -23v16q0 53 -37 79t-84 26q-94 0 -159 -52l-46 82q75 75 214 75q59 0 104 -15t69.5 -37t40 -53.5t20 -58.5t4.5 -57v-296q-34 -3 -57.5 -13.5t-33.5 -24.5t-14 -26t-4 -23q0 -26 15 -40.5
t38 -14.5q46 0 73 56l59 -30q-16 -48 -53.5 -78.5t-89.5 -30.5q-49 0 -90 27.5t-41 87.5q0 27 16.5 59.5t58.5 56.5v69q-23 -37 -68.5 -61.5t-104.5 -24.5zM256 237q-54 0 -79 -24t-25 -56q0 -28 24 -50t70 -22q90 0 147 70v61q-71 21 -137 21z" />
    <glyph glyph-name="aring.alt" horiz-adv-x="578" 
d="M165 680q0 48 33 79.5t81 31.5t81.5 -31.5t33.5 -79.5q0 -47 -33.5 -78.5t-81.5 -31.5t-81 31.5t-33 78.5zM225 680q0 -23 15.5 -38.5t38.5 -15.5t39 15.5t16 38.5t-16 38t-39 15t-38.5 -15t-15.5 -38zM256 237q-54 0 -79 -24t-25 -56q0 -28 24 -50t70 -22q90 0 147 70
v61q-71 21 -137 21zM219 -11q-78 0 -134.5 44t-56.5 122q0 70 56.5 114.5t152.5 44.5q86 0 152 -23v16q0 53 -37 79t-84 26q-94 0 -159 -52l-46 82q75 75 214 75q59 0 104 -15t69.5 -37t40 -53.5t20 -58.5t4.5 -57v-296h-123v75q-23 -37 -68.5 -61.5t-104.5 -24.5z" />
    <glyph glyph-name="aringacute.alt" horiz-adv-x="578" 
d="M293 866h115l-76 -98q67 -25 67 -93q0 -47 -32.5 -74t-82.5 -27t-82 27t-32 74q0 36 19.5 61t52.5 35zM229 675q0 -45 55 -45q54 0 54 45q0 44 -54 44q-55 0 -55 -44zM256 237q-54 0 -79 -24t-25 -56q0 -28 24 -50t70 -22q90 0 147 70v61q-71 21 -137 21zM219 -11
q-78 0 -134.5 44t-56.5 122q0 70 56.5 114.5t152.5 44.5q86 0 152 -23v16q0 53 -37 79t-84 26q-94 0 -159 -52l-46 82q75 75 214 75q59 0 104 -15t69.5 -37t40 -53.5t20 -58.5t4.5 -57v-296h-123v75q-23 -37 -68.5 -61.5t-104.5 -24.5z" />
    <glyph glyph-name="at.case" horiz-adv-x="1025" 
d="M765 156q59 2 93 58t34 171q0 157 -105 258.5t-272 101.5t-277 -114t-110 -283q0 -170 103 -282.5t267 -112.5q119 0 200 40l37 -72q-106 -50 -237 -50q-203 0 -329 135t-126 342q0 206 134 342.5t338 136.5q206 0 334 -123t128 -319q0 -158 -56.5 -231t-155.5 -73
q-129 0 -134 121q-23 -40 -68 -60.5t-94 -20.5q-92 0 -152 66t-60 161q0 96 60 161t156 65q97 0 151 -75v65h91v-350q0 -29 14 -43.5t36 -14.5zM348 348q0 -62 38 -104t100 -42q60 0 98.5 39t38.5 105q0 64 -38.5 105.5t-100.5 41.5q-63 0 -99.5 -41.5t-36.5 -103.5z" />
    <glyph glyph-name="atilde.alt" horiz-adv-x="578" 
d="M454 713q0 -54 -25.5 -87t-74.5 -33q-28 0 -70 21t-58 21q-41 0 -46 -47q-40 8 -60 11q5 121 99 121q27 0 68.5 -20.5t60.5 -20.5q42 0 46 45q20 -3 60 -11zM256 237q-54 0 -79 -24t-25 -56q0 -28 24 -50t70 -22q90 0 147 70v61q-71 21 -137 21zM219 -11q-78 0 -134.5 44
t-56.5 122q0 70 56.5 114.5t152.5 44.5q86 0 152 -23v16q0 53 -37 79t-84 26q-94 0 -159 -52l-46 82q75 75 214 75q59 0 104 -15t69.5 -37t40 -53.5t20 -58.5t4.5 -57v-296h-123v75q-23 -37 -68.5 -61.5t-104.5 -24.5z" />
    <glyph glyph-name="bitcoin" horiz-adv-x="620" 
d="M352 769v-92q90 -8 145 -55.5t55 -117.5q0 -48 -29.5 -87t-84.5 -57q66 -9 106 -55.5t40 -102.5q0 -79 -64 -130t-167 -51v-92h-59v92h-60v-92h-59v92h-106v658h106v90h59v-90h59v90h59zM305 307h-108v-187h152q46 0 75.5 23t29.5 61q0 103 -149 103zM197 397h100
q124 4 124 100q0 39 -29 61t-73 22h-122v-183z" />
    <glyph glyph-name="braceleft.case" horiz-adv-x="364" 
d="M177 348v-6q34 -8 51 -32.5t17 -55.5q0 -34 -29.5 -114t-29.5 -121q0 -71 64 -71h6q56 5 69 6v-81q-72 -7 -90 -7q-69 0 -116.5 36t-47.5 107q0 57 38 163q29 82 29 105q0 8 -7 14.5t-19.5 10.5t-24 6t-25.5 4t-19 3v67l18 3t19 3.5t17.5 4t16.5 5t12 5.5t9 7.5t3 9.5
q0 14 -4 25q-5 21 -34 108.5t-29 134.5q0 71 47 107t117 36q18 0 90 -7v-81q-42 6 -75 6q-64 0 -64 -71q0 -41 29.5 -121t29.5 -114q0 -31 -17 -56t-51 -33v-6z" />
    <glyph glyph-name="braceright.case" horiz-adv-x="364" 
d="M187 342v6v6q-34 8 -51 33t-17 56q0 34 29.5 114t29.5 121q0 71 -64 71q-33 0 -75 -6v81q72 7 90 7q70 0 117 -36t47 -107q0 -47 -29 -134.5t-34 -108.5q-4 -11 -4 -25q0 -5 3 -9.5t9 -7.5t12 -5.5t16.5 -5t17.5 -4t19 -3.5l18 -3v-67q-5 -1 -19 -3t-25.5 -4t-24 -6
t-19.5 -10.5t-7 -14.5q0 -23 29 -105q38 -106 38 -163q0 -71 -47.5 -107t-116.5 -36q-18 0 -90 7v81q13 -1 69 -6h6q64 0 64 71q0 41 -29.5 121t-29.5 114q0 31 17 55.5t51 32.5z" />
    <glyph glyph-name="bracketleft.case" horiz-adv-x="377" 
d="M73 -131v961h269v-97h-153v-767h153v-97h-269z" />
    <glyph glyph-name="bracketright.case" horiz-adv-x="377" 
d="M304 831v-962h-269v97h152v768h-152v97h269z" />
    <glyph glyph-name="breve.case" horiz-adv-x="461" 
d="M230 838q61 0 71 71q23 0 75 -7q-5 -51 -31.5 -84.5t-55.5 -45t-59 -11.5q-49 0 -92.5 33.5t-52.5 107.5q53 7 75 7q10 -71 70 -71z" />
    <glyph glyph-name="bullet.case" horiz-adv-x="401" 
d="M73 350q0 53 36.5 90t90.5 37t91 -37t37 -90q0 -54 -37 -91t-91 -37q-55 0 -91 36.5t-36 91.5z" />
    <glyph glyph-name="caron.case" horiz-adv-x="504" 
d="M314 757h-125l-104 147h89l78 -83l78 83h89z" />
    <glyph glyph-name="cedilla.case" horiz-adv-x="444" 
d="M209 9v14h59q47 -27 69 -63t22 -69q0 -59 -41 -87.5t-90 -28.5q-52 0 -89.5 31t-53.5 79q10 5 30 14.5t29 14.5q27 -56 73 -56q23 0 38 15t15 40q0 61 -61 96z" />
    <glyph glyph-name="cent.case" horiz-adv-x="562" 
d="M44 344q0 113 74 189t200 78l16 89h67l-17 -95q69 -12 138 -62l-57 -88q-43 35 -100 43l-56 -303q8 -3 29 -3q72 0 127 46l57 -87q-89 -68 -194 -68q-20 0 -39 3l-17 -97h-67l20 109q-86 26 -133.5 91.5t-47.5 154.5zM167 347q0 -90 79 -134l51 285q-59 -10 -94.5 -50.5
t-35.5 -100.5z" />
    <glyph glyph-name="cent.dnom" horiz-adv-x="302" 
d="M177 349h33l-9 -54q38 -8 75 -34l-31 -50q-17 15 -53 25l-22 -143q41 0 72 27l36 -51q-52 -38 -109 -38q-7 0 -9 1l-7 -43h-35l7 48q-46 13 -73 47t-27 81q0 52 33.5 87t90.5 43l20 3zM102 165q0 -40 35 -62l20 132q-24 -6 -39.5 -25t-15.5 -45z" />
    <glyph glyph-name="cent.numr" horiz-adv-x="301" 
d="M177 710h33l-9 -54q38 -8 75 -34l-31 -50q-17 15 -53 25l-22 -143q41 0 72 27l36 -51q-52 -38 -109 -38q-7 0 -9 1l-7 -43h-35l7 48q-46 13 -73 47t-27 81q0 52 33.5 87t90.5 43l20 3zM102 526q0 -40 35 -62l20 132q-24 -6 -39.5 -25t-15.5 -45z" />
    <glyph glyph-name="circumflex.case" horiz-adv-x="504" 
d="M189 904h125l105 -147h-89l-78 83l-78 -83h-89z" />
    <glyph glyph-name="comma.dnom" horiz-adv-x="181" 
d="M54 -85l-17 29q22 8 36 23t16 31q-19 -2 -32 10t-13 28q-1 18 11 31t34 13q26 0 37.5 -17.5t11.5 -36.5q0 -38 -22 -68.5t-62 -42.5z" />
    <glyph glyph-name="comma.numr" horiz-adv-x="179" 
d="M53 265l-17 29q22 8 36 23t16 31q-19 -2 -32 10t-13 28q-1 18 11 31t34 13q26 0 37.5 -17.5t11.5 -36.5q0 -38 -22 -68.5t-62 -42.5z" />
    <glyph glyph-name="commaaccent.case" horiz-adv-x="321" 
d="M119 -303l-24 43q75 27 75 80q-34 -11 -56.5 8t-23.5 50q0 30 19 49.5t52 19.5q40 0 60 -27t20 -55q0 -128 -122 -168z" />
    <glyph glyph-name="dieresis.case" horiz-adv-x="519" 
d="M70 826q0 31 21 50t53 19t53 -19t21 -50q0 -30 -21 -48.5t-53 -18.5t-53 18.5t-21 48.5zM301 826q0 31 20.5 50t52.5 19q33 0 54 -19.5t21 -49.5t-21 -48.5t-54 -18.5q-32 0 -52.5 18.5t-20.5 48.5z" />
    <glyph glyph-name="dollar.dnom" horiz-adv-x="311" 
d="M146 -40v38q-49 2 -83 28.5t-42 68.5l64 16q5 -21 22 -36t39 -18v87l-21 8q-88 35 -88 100q0 42 30.5 68.5t78.5 29.5v37h27v-37q79 -11 103 -81l-59 -25q-11 34 -44 46v-83q6 -3 20 -7q45 -16 69 -44t24 -55q0 -46 -31.5 -72.5t-81.5 -29.5v-39h-27zM111 253
q0 -24 35 -36v75q-35 -9 -35 -39zM211 98q0 21 -38 36v-75q38 8 38 39z" />
    <glyph glyph-name="dollar.numr" horiz-adv-x="311" 
d="M146 310v38q-49 2 -83 28.5t-42 68.5l64 16q5 -21 22 -36t39 -18v87l-21 8q-88 35 -88 100q0 42 30.5 68.5t78.5 29.5v37h27v-37q79 -11 103 -81l-59 -25q-11 34 -44 46v-83q6 -3 20 -7q45 -16 69 -44t24 -55q0 -46 -31.5 -72.5t-81.5 -29.5v-39h-27zM111 603
q0 -24 35 -36v75q-35 -9 -35 -39zM211 448q0 21 -38 36v-75q38 8 38 39z" />
    <glyph glyph-name="dotaccent.case" horiz-adv-x="322" 
d="M85 829q0 31 21.5 50.5t54.5 19.5t54.5 -19.5t21.5 -50.5q0 -30 -21.5 -49.5t-54.5 -19.5t-54.5 19t-21.5 50z" />
    <glyph glyph-name="eight.dnom" horiz-adv-x="349" 
d="M176 206q26 0 40.5 13.5t14.5 32.5q0 20 -15.5 31.5t-40.5 11.5q-26 0 -41.5 -11.5t-15.5 -31.5q0 -19 15 -32.5t43 -13.5zM174 157q-34 0 -52.5 -15t-18.5 -37t20 -37.5t52 -15.5q30 0 50.5 15.5t20.5 37.5t-19.5 37.5t-52.5 14.5zM175 -8q-64 0 -106 31.5t-42 81.5
q0 25 19.5 48.5t50.5 31.5q-25 9 -39.5 28t-14.5 39q0 45 37 73.5t95 28.5q57 0 94.5 -28.5t37.5 -73.5q0 -20 -15 -39t-40 -28q31 -8 50.5 -31.5t19.5 -48.5q0 -50 -41.5 -81.5t-105.5 -31.5z" />
    <glyph glyph-name="eight.numr" horiz-adv-x="349" 
d="M176 556q26 0 40.5 13.5t14.5 32.5q0 20 -15.5 31.5t-40.5 11.5q-26 0 -41.5 -11.5t-15.5 -31.5q0 -19 15 -32.5t43 -13.5zM174 507q-34 0 -52.5 -15t-18.5 -37t20 -37.5t52 -15.5q30 0 50.5 15.5t20.5 37.5t-19.5 37.5t-52.5 14.5zM175 342q-64 0 -106 31.5t-42 81.5
q0 25 19.5 48.5t50.5 31.5q-25 9 -39.5 28t-14.5 39q0 45 37 73.5t95 28.5q57 0 94.5 -28.5t37.5 -73.5q0 -20 -15 -39t-40 -28q31 -8 50.5 -31.5t19.5 -48.5q0 -50 -41.5 -81.5t-105.5 -31.5z" />
    <glyph glyph-name="eight.oldstyle" horiz-adv-x="656" 
d="M328 93q69 0 113.5 27t44.5 69q0 40 -41 67.5t-113 27.5h-8q-72 0 -112.5 -27.5t-40.5 -67.5q0 -41 44 -68.5t113 -27.5zM328 -11q-122 0 -201.5 55.5t-79.5 139.5q0 48 32.5 91.5t92.5 62.5q-46 18 -71.5 51.5t-25.5 71.5q0 76 72 127.5t181 51.5t181.5 -51.5
t72.5 -127.5q0 -38 -25.5 -71.5t-71.5 -51.5q58 -19 91 -62.5t33 -91.5q0 -84 -79.5 -139.5t-201.5 -55.5zM328 536q-58 0 -94 -22.5t-36 -56.5q0 -35 33 -62t93 -27h8q60 0 93 27t33 62q0 34 -35.5 56.5t-94.5 22.5z" />
    <glyph glyph-name="eight.taboldstyle" horiz-adv-x="680" 
d="M340 93q69 0 113.5 27t44.5 69q0 40 -41 67.5t-113 27.5h-8q-72 0 -112.5 -27.5t-40.5 -67.5q0 -41 44 -68.5t113 -27.5zM340 -11q-122 0 -201.5 55.5t-79.5 139.5q0 48 32.5 91.5t92.5 62.5q-46 18 -71.5 51.5t-25.5 71.5q0 76 72 127.5t181 51.5t181.5 -51.5
t72.5 -127.5q0 -38 -25.5 -71.5t-71.5 -51.5q58 -19 91 -62.5t33 -91.5q0 -84 -79.5 -139.5t-201.5 -55.5zM340 536q-58 0 -94 -22.5t-36 -56.5q0 -35 33 -62t93 -27h8q60 0 93 27t33 62q0 34 -35.5 56.5t-94.5 22.5z" />
    <glyph glyph-name="eight.tnum" horiz-adv-x="680" 
d="M338 411h4q61 0 94.5 31t33.5 72q0 39 -35.5 65.5t-94.5 26.5t-94 -26.5t-35 -65.5q0 -41 33 -72t94 -31zM344 323h-4q-77 0 -117.5 -33t-40.5 -81t44 -81t114 -33q71 0 115 33t44 81t-40.5 81t-114.5 33zM340 -11q-124 0 -204 61t-80 159q0 51 37 98.5t94 67.5
q-45 18 -73.5 57.5t-28.5 81.5q0 87 71.5 142t183.5 55t183.5 -55t71.5 -142q0 -42 -28 -81.5t-73 -57.5q57 -20 93.5 -67t36.5 -99q0 -98 -79.5 -159t-204.5 -61z" />
    <glyph glyph-name="emdash.case" horiz-adv-x="805" 
d="M68 298v104h670v-104h-670z" />
    <glyph glyph-name="endash.case" horiz-adv-x="584" 
d="M68 298v104h449v-104h-449z" />
    <glyph glyph-name="exclamdown.case" horiz-adv-x="285" 
d="M216 15v-15h-148v15l31 459h86zM59 632q0 34 24 56.5t60 22.5q35 0 59.5 -22.5t24.5 -56.5q0 -35 -24 -58t-60 -23t-60 23t-24 58z" />
    <glyph glyph-name="five.dnom" horiz-adv-x="324" 
d="M150 56q36 0 53.5 18t17.5 45q0 23 -17.5 41.5t-48.5 18.5q-40 0 -69 -21q-8 3 -48 23l9 168h223v-61h-158l-4 -70q25 16 68 16q53 0 88 -34t35 -81q0 -57 -38.5 -91.5t-108.5 -34.5q-78 0 -127 44l39 49q38 -30 86 -30z" />
    <glyph glyph-name="five.numr" horiz-adv-x="322" 
d="M149 407q36 0 53.5 18t17.5 45q0 23 -17.5 41.5t-48.5 18.5q-40 0 -69 -21q-8 3 -48 23l9 168h223v-61h-158l-4 -70q25 16 68 16q53 0 88 -34t35 -81q0 -57 -38.5 -91.5t-108.5 -34.5q-78 0 -127 44l39 49q38 -30 86 -30z" />
    <glyph glyph-name="five.oldstyle" horiz-adv-x="591" 
d="M279 -31q72 0 113.5 34t41.5 86q0 47 -34.5 80t-101.5 33q-89 0 -151 -54q-15 9 -44.5 24t-41.5 22l21 312h423v-100h-319l-9 -150q56 43 143 43q105 0 171 -60t66 -150q0 -97 -71.5 -160.5t-200.5 -63.5q-150 0 -247 86q15 20 65 78q96 -60 176 -60z" />
    <glyph glyph-name="five.taboldstyle" horiz-adv-x="680" 
d="M324 -31q72 0 113.5 34t41.5 86q0 47 -34.5 80t-101.5 33q-89 0 -151 -54q-15 9 -44.5 24t-41.5 22l21 312h423v-100h-319l-9 -150q56 43 143 43q105 0 171 -60t66 -150q0 -97 -71.5 -160.5t-200.5 -63.5q-150 0 -247 86q15 20 65 78q96 -60 176 -60z" />
    <glyph glyph-name="five.tnum" horiz-adv-x="680" 
d="M323 96q78 0 120 40t42 101q0 49 -39 87.5t-108 38.5q-95 0 -153 -51l-85 35l22 353h436v-103h-326l-13 -177h3q58 46 143 46q104 0 173.5 -67.5t69.5 -161.5q0 -112 -75 -180t-208 -68q-159 0 -249 82l65 80q78 -55 182 -55z" />
    <glyph glyph-name="florin.dnom" horiz-adv-x="264" 
d="M170 157v-172q0 -54 -27.5 -76.5t-66.5 -22.5q-32 0 -55 14l23 50q10 -6 22 -6q26 0 26 32v181h-38v42h38v58q0 55 27 77t67 22q31 0 54 -14l-23 -51q-11 6 -24 6q-23 0 -23 -32v-66h60v-42h-60z" />
    <glyph glyph-name="florin.numr" horiz-adv-x="263" 
d="M169 507v-172q0 -54 -27.5 -76.5t-66.5 -22.5q-32 0 -55 14l23 50q10 -6 22 -6q26 0 26 32v181h-38v42h38v58q0 55 27 77t67 22q31 0 54 -14l-23 -51q-11 6 -24 6q-23 0 -23 -32v-66h60v-42h-60z" />
    <glyph glyph-name="florininferior" horiz-adv-x="263" 
d="M169 15v-172q0 -54 -27.5 -76.5t-66.5 -22.5q-32 0 -55 14l23 50q10 -6 22 -6q26 0 26 32v181h-38v42h38v58q0 55 27 77t67 22q31 0 54 -14l-23 -51q-11 6 -24 6q-23 0 -23 -32v-66h60v-42h-60z" />
    <glyph glyph-name="florinsuperior" horiz-adv-x="263" 
d="M169 594v-172q0 -54 -27.5 -76.5t-66.5 -22.5q-32 0 -55 14l23 50q10 -6 22 -6q26 0 26 32v181h-38v42h38v58q0 55 27 77t67 22q31 0 54 -14l-23 -51q-11 6 -24 6q-23 0 -23 -32v-66h60v-42h-60z" />
    <glyph glyph-name="four.dnom" horiz-adv-x="352" 
d="M97 149h90v103zM184 90h-170v42l183 218h66v-201h71v-59h-71v-90h-79v90z" />
    <glyph glyph-name="four.numr" horiz-adv-x="352" 
d="M97 499h90v103zM184 440h-170v42l183 218h66v-201h71v-59h-71v-90h-79v90z" />
    <glyph glyph-name="four.oldstyle" horiz-adv-x="649" 
d="M166 132h197v210zM363 32h-339v77l361 397h100v-374h132v-100h-132v-156h-122v156z" />
    <glyph glyph-name="four.taboldstyle" horiz-adv-x="680" 
d="M181 132h197v210zM378 32h-339v77l361 397h100v-374h132v-100h-132v-156h-122v156z" />
    <glyph glyph-name="four.tnum" horiz-adv-x="680" 
d="M174 285h203v224zM377 181h-349v78l392 441h81v-415h146v-104h-146v-181h-124v181z" />
    <glyph glyph-name="g.alt" horiz-adv-x="602" 
d="M410 320q0 47 -32 73.5t-82 26.5t-85 -27t-35 -72q0 -46 34 -73t87 -27q50 0 81.5 26t31.5 73zM293 -152q71 0 118 18.5t47 51.5q0 16 -15.5 27t-46.5 12l-140 2q-68 0 -94 17q-37 -16 -37 -53q0 -40 53 -57.5t115 -17.5zM468 540h108q11 -16 11 -40q0 -33 -21 -56.5
t-63 -28.5q28 -40 28 -97q0 -92 -71.5 -143t-166.5 -51q-61 0 -113 20q-25 -18 -25 -37q0 -21 24 -31t57 -10q30 0 89 -1t89 -1q47 0 82 -14t52.5 -36.5t25.5 -44t8 -42.5q0 -68 -70.5 -117.5t-217.5 -49.5q-286 0 -286 148q0 38 25 70.5t49 43.5q-30 26 -30 72q0 53 58 94
q-55 52 -55 132q0 53 22 93t58 61.5t75.5 32t80.5 10.5q93 0 155 -39q27 14 27 41q0 6 -5 21z" />
    <glyph glyph-name="gbreve.alt" horiz-adv-x="602" 
d="M299 660q64 0 70 76l79 -8q-4 -44 -19 -75.5t-37.5 -47t-45 -22.5t-47.5 -7q-55 0 -98 34.5t-50 117.5l78 8q6 -76 70 -76zM410 320q0 47 -32 73.5t-82 26.5t-85 -27t-35 -72q0 -46 34 -73t87 -27q50 0 81.5 26t31.5 73zM293 -152q71 0 118 18.5t47 51.5q0 16 -15.5 27
t-46.5 12l-140 2q-68 0 -94 17q-37 -16 -37 -53q0 -40 53 -57.5t115 -17.5zM468 540h108q11 -16 11 -40q0 -33 -21 -56.5t-63 -28.5q28 -40 28 -97q0 -92 -71.5 -143t-166.5 -51q-61 0 -113 20q-25 -18 -25 -37q0 -21 24 -31t57 -10q30 0 89 -1t89 -1q47 0 82 -14
t52.5 -36.5t25.5 -44t8 -42.5q0 -68 -70.5 -117.5t-217.5 -49.5q-286 0 -286 148q0 38 25 70.5t49 43.5q-30 26 -30 72q0 53 58 94q-55 52 -55 132q0 53 22 93t58 61.5t75.5 32t80.5 10.5q93 0 155 -39q27 14 27 41q0 6 -5 21z" />
    <glyph glyph-name="gcircumflex.alt" horiz-adv-x="602" 
d="M237 736h125l112 -161h-91l-83 92l-84 -92h-90zM410 320q0 47 -32 73.5t-82 26.5t-85 -27t-35 -72q0 -46 34 -73t87 -27q50 0 81.5 26t31.5 73zM293 -152q71 0 118 18.5t47 51.5q0 16 -15.5 27t-46.5 12l-140 2q-68 0 -94 17q-37 -16 -37 -53q0 -40 53 -57.5t115 -17.5z
M468 540h108q11 -16 11 -40q0 -33 -21 -56.5t-63 -28.5q28 -40 28 -97q0 -92 -71.5 -143t-166.5 -51q-61 0 -113 20q-25 -18 -25 -37q0 -21 24 -31t57 -10q30 0 89 -1t89 -1q47 0 82 -14t52.5 -36.5t25.5 -44t8 -42.5q0 -68 -70.5 -117.5t-217.5 -49.5q-286 0 -286 148
q0 38 25 70.5t49 43.5q-30 26 -30 72q0 53 58 94q-55 52 -55 132q0 53 22 93t58 61.5t75.5 32t80.5 10.5q93 0 155 -39q27 14 27 41q0 6 -5 21z" />
    <glyph glyph-name="gcommaaccent.alt" horiz-adv-x="602" 
d="M347 825l24 -43q-75 -27 -75 -80q10 3 21 3q26 0 42.5 -18t16.5 -43q0 -30 -19 -49.5t-52 -19.5q-40 0 -60 27t-20 55q0 128 122 168zM410 320q0 47 -32 73.5t-82 26.5t-85 -27t-35 -72q0 -46 34 -73t87 -27q50 0 81.5 26t31.5 73zM293 -152q71 0 118 18.5t47 51.5
q0 16 -15.5 27t-46.5 12l-140 2q-68 0 -94 17q-37 -16 -37 -53q0 -40 53 -57.5t115 -17.5zM468 540h108q11 -16 11 -40q0 -33 -21 -56.5t-63 -28.5q28 -40 28 -97q0 -92 -71.5 -143t-166.5 -51q-61 0 -113 20q-25 -18 -25 -37q0 -21 24 -31t57 -10q30 0 89 -1t89 -1
q47 0 82 -14t52.5 -36.5t25.5 -44t8 -42.5q0 -68 -70.5 -117.5t-217.5 -49.5q-286 0 -286 148q0 38 25 70.5t49 43.5q-30 26 -30 72q0 53 58 94q-55 52 -55 132q0 53 22 93t58 61.5t75.5 32t80.5 10.5q93 0 155 -39q27 14 27 41q0 6 -5 21z" />
    <glyph glyph-name="gdotaccent.alt" horiz-adv-x="602" 
d="M222 653q0 32 22 53.5t55 21.5q32 0 54.5 -21.5t22.5 -53.5q0 -31 -22.5 -52t-54.5 -21q-33 0 -55 21t-22 52zM410 320q0 47 -32 73.5t-82 26.5t-85 -27t-35 -72q0 -46 34 -73t87 -27q50 0 81.5 26t31.5 73zM293 -152q71 0 118 18.5t47 51.5q0 16 -15.5 27t-46.5 12
l-140 2q-68 0 -94 17q-37 -16 -37 -53q0 -40 53 -57.5t115 -17.5zM468 540h108q11 -16 11 -40q0 -33 -21 -56.5t-63 -28.5q28 -40 28 -97q0 -92 -71.5 -143t-166.5 -51q-61 0 -113 20q-25 -18 -25 -37q0 -21 24 -31t57 -10q30 0 89 -1t89 -1q47 0 82 -14t52.5 -36.5
t25.5 -44t8 -42.5q0 -68 -70.5 -117.5t-217.5 -49.5q-286 0 -286 148q0 38 25 70.5t49 43.5q-30 26 -30 72q0 53 58 94q-55 52 -55 132q0 53 22 93t58 61.5t75.5 32t80.5 10.5q93 0 155 -39q27 14 27 41q0 6 -5 21z" />
    <glyph glyph-name="grave.case" horiz-adv-x="455" 
d="M109 904h130l83 -147h-96z" />
    <glyph glyph-name="guillemotleft.case" horiz-adv-x="612" 
d="M290 337v22l193 221l71 -61l-148 -171l148 -169l-71 -62zM47 337v22l192 221l72 -61l-148 -171l147 -169l-71 -62z" />
    <glyph glyph-name="guillemotright.case" horiz-adv-x="612" 
d="M322 360v-22l-193 -220l-71 62l148 169l-148 171l71 61zM565 360v-22l-192 -220l-71 62l147 169l-148 171l72 61z" />
    <glyph glyph-name="guilsinglleft.case" horiz-adv-x="369" 
d="M47 338v22l192 221l72 -61l-148 -171l147 -169l-71 -62z" />
    <glyph glyph-name="guilsinglright.case" horiz-adv-x="368" 
d="M321 360v-22l-192 -220l-71 62l147 169l-148 171l72 61z" />
    <glyph glyph-name="hungarumlaut.case" horiz-adv-x="520" 
d="M167 909h100l-94 -147h-88zM334 909h101l-100 -147h-90z" />
    <glyph glyph-name="hyphen.case" horiz-adv-x="485" 
d="M67 297v105h351v-105h-351z" />
    <glyph glyph-name="hyphen.dnom" horiz-adv-x="288" 
d="M42 138v63h204v-63h-204z" />
    <glyph glyph-name="hyphen.numr" horiz-adv-x="288" 
d="M42 488v63h204v-63h-204z" />
    <glyph glyph-name="macron.case" horiz-adv-x="467" 
d="M85 867h297v-90h-297v90z" />
    <glyph glyph-name="nine.dnom" horiz-adv-x="343" 
d="M153 53q35 0 60 28t27 75h-2q-28 -40 -88 -40q-50 0 -87 32t-37 86q0 52 39 86.5t99 34.5q71 0 110.5 -48t39.5 -127q0 -81 -41.5 -134.5t-117.5 -53.5q-78 0 -114 46l46 42q23 -27 66 -27zM166 173q30 0 48 17t18 42q0 26 -18.5 43t-47.5 17q-28 0 -46 -16t-18 -43
t17.5 -43.5t46.5 -16.5z" />
    <glyph glyph-name="nine.numr" horiz-adv-x="344" 
d="M154 403q35 0 60 28t27 75h-2q-28 -40 -88 -40q-50 0 -87 32t-37 86q0 52 39 86.5t99 34.5q71 0 110.5 -48t39.5 -127q0 -81 -41.5 -134.5t-117.5 -53.5q-78 0 -114 46l46 42q23 -27 66 -27zM167 523q30 0 48 17t18 42q0 26 -18.5 43t-47.5 17q-28 0 -46 -16t-18 -43
t17.5 -43.5t46.5 -16.5z" />
    <glyph glyph-name="nine.oldstyle" horiz-adv-x="626" 
d="M276 -30q78 0 130 55t54 150h-2q-26 -41 -73.5 -64t-102.5 -23q-98 0 -172 59t-74 154q0 93 72.5 154.5t188.5 61.5q133 0 208.5 -85t75.5 -226q0 -148 -78.5 -244t-221.5 -96q-141 0 -219 81l78 69q46 -46 136 -46zM296 183q69 0 109 32.5t40 83.5q0 49 -42 81.5
t-100 32.5q-62 0 -103 -32t-41 -80q0 -55 39 -86.5t98 -31.5z" />
    <glyph glyph-name="nine.taboldstyle" horiz-adv-x="680" 
d="M303 -30q78 0 130 55t54 150h-2q-26 -41 -73.5 -64t-102.5 -23q-98 0 -172 59t-74 154q0 93 72.5 154.5t188.5 61.5q133 0 208.5 -85t75.5 -226q0 -148 -78.5 -244t-221.5 -96q-141 0 -219 81l78 69q46 -46 136 -46zM323 183q69 0 109 32.5t40 83.5q0 49 -42 81.5
t-100 32.5q-62 0 -103 -32t-41 -80q0 -55 39 -86.5t98 -31.5z" />
    <glyph glyph-name="nine.tnum" horiz-adv-x="680" 
d="M304 97q73 0 127 64.5t56 169.5h-2q-23 -45 -71.5 -68.5t-102.5 -23.5q-101 0 -176.5 64.5t-75.5 170.5q0 103 74.5 170t190.5 67q133 0 209.5 -94.5t76.5 -250.5q0 -164 -80 -270.5t-223 -106.5q-68 0 -125.5 24t-93.5 66l78 71q48 -53 138 -53zM327 341q66 0 106.5 37
t40.5 92q0 57 -41.5 95.5t-104.5 38.5q-60 0 -102 -37t-42 -94q0 -60 40 -96t103 -36z" />
    <glyph glyph-name="ogonek.case" horiz-adv-x="444" 
d="M234 23v-14q-61 -35 -61 -96q0 -26 15 -40.5t39 -14.5q45 0 72 56l60 -30q-17 -48 -54 -78.5t-89 -30.5q-49 0 -90 27.5t-41 87.5q0 33 21.5 70.5t68.5 62.5h59z" />
    <glyph glyph-name="one.dnom" horiz-adv-x="226" 
d="M28 232l-20 59l133 59h44v-350h-80v265z" />
    <glyph glyph-name="one.numr" horiz-adv-x="226" 
d="M28 582l-20 59l133 59h44v-350h-80v265z" />
    <glyph glyph-name="one.oldstyle" horiz-adv-x="555" 
d="M69 304l-31 98l262 104h65v-404h165v-102h-457v102h170v264z" />
    <glyph glyph-name="one.taboldstyle" horiz-adv-x="680" 
d="M131 304l-31 98l262 104h65v-404h165v-102h-457v102h170v264z" />
    <glyph glyph-name="one.tnum" horiz-adv-x="680" 
d="M424 102h162v-102h-456v102h170v452l-154 -64l-31 99l242 111h67v-598z" />
    <glyph glyph-name="parenleft.case" horiz-adv-x="338" 
d="M232 846l78 -47q-145 -217 -145 -450q0 -232 145 -450l-78 -46q-36 38 -75 101.5t-75.5 174.5t-36.5 221q0 84 20.5 168t51.5 148t60 108.5t55 71.5z" />
    <glyph glyph-name="parenleft.dnom" horiz-adv-x="209" 
d="M109 168q0 -65 22 -124.5t47 -95.5q-7 -5 -22 -14.5t-22 -14.5q-33 33 -66 102t-33 147q0 79 33 148t66 102l44 -30q-69 -101 -69 -220z" />
    <glyph glyph-name="parenleft.numr" horiz-adv-x="209" 
d="M109 520q0 -114 69 -220q-7 -6 -22 -15t-22 -14q-33 33 -66 102t-33 147q0 79 33 148t66 102l44 -30q-69 -101 -69 -220z" />
    <glyph glyph-name="parenright.case" horiz-adv-x="338" 
d="M28 799l78 47q26 -27 55 -71.5t60 -108.5t51.5 -148t20.5 -168q0 -110 -36.5 -221t-75.5 -174.5t-75 -101.5l-78 46q145 218 145 450q0 233 -145 450z" />
    <glyph glyph-name="parenright.dnom" horiz-adv-x="209" 
d="M100 168q0 119 -69 220l44 30q33 -33 66 -102t33 -148q0 -78 -33 -147t-66 -102q-7 6 -21.5 15t-22.5 14q25 36 47 95.5t22 124.5z" />
    <glyph glyph-name="parenright.numr" horiz-adv-x="209" 
d="M100 520q0 119 -69 220l44 30q33 -33 66 -102t33 -148q0 -78 -33 -147t-66 -102q-7 5 -21.5 14t-22.5 15q69 106 69 220z" />
    <glyph glyph-name="period.dnom" horiz-adv-x="180" 
d="M39 36q0 19 15 32t36 13t36 -13t15 -32t-15 -32t-36 -13t-36 13t-15 32z" />
    <glyph glyph-name="period.numr" horiz-adv-x="180" 
d="M39 386q0 19 15 32t36 13t36 -13t15 -32t-15 -32t-36 -13t-36 13t-15 32z" />
    <glyph glyph-name="periodcentered.case" horiz-adv-x="295" 
d="M64 350q0 34 24 57.5t59 23.5t60 -23.5t25 -57.5t-25 -57t-60 -23t-59 23t-24 57z" />
    <glyph glyph-name="questiondown.case" horiz-adv-x="531" 
d="M234 474h115q0 -60 -10.5 -83.5t-58.5 -53.5q-63 -39 -91 -70.5t-28 -75.5q0 -45 30.5 -71t82.5 -26q46 0 75 22t29 58q0 19 -10 45h118q10 -19 10 -51q0 -30 -12.5 -60t-37.5 -57.5t-70.5 -44.5t-104.5 -17q-103 0 -169.5 54.5t-66.5 144.5q0 71 44.5 122.5t125.5 103.5
q29 18 29 60zM376 631q0 -34 -24 -57.5t-59 -23.5t-60 23.5t-25 57.5t25 57t60 23t59 -23t24 -57z" />
    <glyph glyph-name="ring.case" horiz-adv-x="399" 
d="M85 852q0 47 32.5 76t81.5 29t82 -29t33 -76t-33 -75t-82 -28t-81.5 28t-32.5 75zM144 852q0 -23 15.5 -36t39.5 -13t39 13t15 36t-15 36t-39 13t-39.5 -13t-15.5 -36z" />
    <glyph glyph-name="seven.dnom" horiz-adv-x="292" 
d="M19 289v61h263v-45l-157 -305h-85l152 289h-173z" />
    <glyph glyph-name="seven.numr" horiz-adv-x="292" 
d="M19 639v61h263v-45l-157 -305h-85l152 289h-173z" />
    <glyph glyph-name="seven.oldstyle" horiz-adv-x="545" 
d="M25 405v101h507v-76l-308 -554h-135l300 529h-364z" />
    <glyph glyph-name="seven.taboldstyle" horiz-adv-x="680" 
d="M92 405v101h507v-76l-308 -554h-135l300 529h-364z" />
    <glyph glyph-name="seven.tnum" horiz-adv-x="680" 
d="M92 597v103h513v-80l-334 -620h-139l331 597h-371z" />
    <glyph glyph-name="six.dnom" horiz-adv-x="343" 
d="M190 293q-35 0 -60 -28t-27 -75h2q28 40 88 40q50 0 87 -32t37 -86q0 -52 -39 -86t-99 -34q-71 0 -110.5 47.5t-39.5 126.5q0 81 41.5 135t117.5 54q78 0 114 -47l-46 -42q-23 27 -66 27zM177 173q-30 0 -48 -17t-18 -42q0 -26 18.5 -43t47.5 -17q28 0 46 16t18 43
t-17.5 43.5t-46.5 16.5z" />
    <glyph glyph-name="six.numr" horiz-adv-x="343" 
d="M190 643q-35 0 -60 -28t-27 -75h2q28 40 88 40q50 0 87 -32t37 -86q0 -52 -39 -86t-99 -34q-71 0 -110.5 47.5t-39.5 126.5q0 81 41.5 135t117.5 54q78 0 114 -47l-46 -42q-23 27 -66 27zM177 523q-30 0 -48 -17t-18 -42q0 -26 18.5 -43t47.5 -17q28 0 46 16t18 43
t-17.5 43.5t-46.5 16.5z" />
    <glyph glyph-name="six.oldstyle" horiz-adv-x="639" 
d="M355 535q-78 0 -128.5 -54t-54.5 -150q27 41 74.5 64t102.5 23q99 0 173 -59t74 -155q0 -93 -73 -154t-189 -61q-132 0 -208 85t-76 226q0 147 79.5 243.5t221.5 96.5t218 -82l-77 -69q-48 46 -137 46zM336 323q-69 0 -109 -32.5t-40 -84.5q0 -49 42 -81.5t100 -32.5
q61 0 102.5 33t41.5 80q0 54 -39.5 86t-97.5 32z" />
    <glyph glyph-name="six.taboldstyle" horiz-adv-x="680" 
d="M375 535q-78 0 -128.5 -54t-54.5 -150q27 41 74.5 64t102.5 23q99 0 173 -59t74 -155q0 -93 -73 -154t-189 -61q-132 0 -208 85t-76 226q0 147 79.5 243.5t221.5 96.5t218 -82l-77 -69q-48 46 -137 46zM356 323q-69 0 -109 -32.5t-40 -84.5q0 -49 42 -81.5t100 -32.5
q61 0 102.5 33t41.5 80q0 54 -39.5 86t-97.5 32z" />
    <glyph glyph-name="six.tnum" horiz-adv-x="680" 
d="M375 603q-73 0 -126 -64.5t-57 -169.5h2q23 45 71.5 68.5t102.5 23.5q101 0 176.5 -64.5t75.5 -170.5q0 -103 -74.5 -170t-190.5 -67q-133 0 -209.5 94.5t-76.5 250.5q0 163 80 270t223 107q68 0 125.5 -24t93.5 -66l-78 -71q-48 53 -138 53zM352 359q-66 0 -106.5 -37
t-40.5 -92q0 -57 41.5 -95.5t104.5 -38.5q60 0 102 37t42 94q0 60 -40 96t-103 36z" />
    <glyph glyph-name="sterling.dnom" horiz-adv-x="343" 
d="M252 139h-75q3 -15 3 -30q-2 -35 -27 -53q20 3 54 3h109v-59h-289v59q45 2 60 15.5t15 35.5q0 17 -4 29h-62q0 7 0.5 18t0.5 18h46q-19 36 -19 80q0 46 35 73.5t89 27.5t85.5 -28t31.5 -63q0 -18 -4 -27h-72q0 2 0.5 5t0.5 4q0 17 -12 30t-31 13q-18 0 -31.5 -11
t-13.5 -26q0 -34 20 -78h90v-36z" />
    <glyph glyph-name="sterling.numr" horiz-adv-x="342" 
d="M252 489h-75q3 -15 3 -30q-2 -35 -27 -53q20 3 54 3h109v-59h-289v59q45 2 60 15.5t15 35.5q0 17 -4 29h-62q0 7 0.5 18t0.5 18h46q-19 36 -19 80q0 46 35 73.5t89 27.5t85.5 -28t31.5 -63q0 -18 -4 -27h-72q0 2 0.5 5t0.5 4q0 17 -12 30t-31 13q-18 0 -31.5 -11
t-13.5 -26q0 -34 20 -78h90v-36z" />
    <glyph glyph-name="sterlinginferior" horiz-adv-x="342" 
d="M252 -3h-75q3 -15 3 -30q-2 -35 -27 -53q20 3 54 3h109v-59h-289v59q45 2 60 15.5t15 35.5q0 17 -4 29h-62q0 7 0.5 18t0.5 18h46q-19 36 -19 80q0 46 35 73.5t89 27.5t85.5 -28t31.5 -63q0 -18 -4 -27h-72q0 2 0.5 5t0.5 4q0 17 -12 30t-31 13q-18 0 -31.5 -11
t-13.5 -26q0 -34 20 -78h90v-36z" />
    <glyph glyph-name="sterlingsuperior" horiz-adv-x="343" 
d="M252 576h-75q3 -15 3 -30q-2 -35 -27 -53q20 3 54 3h109v-59h-289v59q45 2 60 15.5t15 35.5q0 17 -4 29h-62q0 6 0.5 18t0.5 18h46q-19 36 -19 80q0 46 35 73.5t89 27.5t85.5 -28t31.5 -63q0 -18 -4 -27h-72q0 1 0.5 4t0.5 5q0 17 -12 30t-31 13q-18 0 -31.5 -11
t-13.5 -26q0 -34 20 -78h90v-36z" />
    <glyph glyph-name="three.dnom" horiz-adv-x="327" 
d="M151 56q30 0 49 17.5t19 41.5q0 26 -19 43t-44 17q-26 0 -45 -10l-30 39l98 85h-145v61h253v-43l-94 -86q48 -5 76.5 -34.5t28.5 -71.5q0 -52 -40 -86.5t-108 -34.5q-81 0 -129 43l40 50q40 -31 90 -31z" />
    <glyph glyph-name="three.numr" horiz-adv-x="326" 
d="M150 406q30 0 49 17.5t19 41.5q0 26 -19 43t-44 17q-26 0 -45 -10l-30 39l98 85h-145v61h253v-43l-94 -86q48 -5 76.5 -34.5t28.5 -71.5q0 -52 -40 -86.5t-108 -34.5q-81 0 -129 43l40 50q40 -31 90 -31z" />
    <glyph glyph-name="three.oldstyle" horiz-adv-x="603" 
d="M276 -33q70 0 115.5 36t45.5 84t-39 82.5t-96 34.5q-59 0 -96 -25l-51 68l198 162h-292v97h477v-68l-196 -156q87 -2 152 -57.5t65 -136.5q0 -93 -76.5 -157.5t-206.5 -64.5q-157 0 -249 79l66 74q83 -52 183 -52z" />
    <glyph glyph-name="three.taboldstyle" horiz-adv-x="680" 
d="M314 -33q70 0 115.5 36t45.5 84t-39 82.5t-96 34.5q-58 0 -96 -25l-51 68l198 162h-292v97h477v-68l-196 -156q87 -2 152 -57.5t65 -136.5q0 -93 -76.5 -157.5t-206.5 -64.5q-157 0 -249 79l66 74q83 -52 183 -52z" />
    <glyph glyph-name="three.tnum" horiz-adv-x="680" 
d="M311 96q73 0 118 42t45 94q0 55 -41 91t-100 36q-57 0 -97 -26l-53 68l215 196h-302v103h481v-75l-201 -177q90 0 156.5 -62t66.5 -153q0 -104 -78.5 -174t-210.5 -70q-159 0 -249 82l66 80q50 -33 91.5 -44t92.5 -11z" />
    <glyph glyph-name="tilde.case" horiz-adv-x="475" 
d="M350 904l59 -18q-16 -59 -38.5 -86t-62.5 -27q-28 0 -73 18.5t-59 18.5q-19 0 -29 -10t-22 -36l-59 18q16 59 38.5 86t62.5 27q28 0 73 -18.5t59 -18.5q19 0 29 10t22 36z" />
    <glyph glyph-name="two.dnom" horiz-adv-x="332" 
d="M224 123l-71 -63q19 3 51 3h100v-63h-269l-8 45l145 127q42 35 42 71q0 47 -51 47q-29 0 -42.5 -16t-13.5 -37h-77q0 44 32.5 81.5t100.5 37.5q59 0 93.5 -31.5t34.5 -81.5q0 -64 -67 -120z" />
    <glyph glyph-name="two.numr" horiz-adv-x="330" 
d="M223 473l-71 -63q19 3 51 3h100v-63h-269l-8 45l145 127q42 35 42 71q0 47 -51 47q-29 0 -42.5 -16t-13.5 -37h-77q0 44 32.5 81.5t100.5 37.5q59 0 93.5 -31.5t34.5 -81.5q0 -64 -67 -120z" />
    <glyph glyph-name="two.oldstyle" 
d="M378 162l-102 -59l-6 -7q42 6 117 6h173v-102h-507l-5 73l292 185q46 29 62.5 49t16.5 44q0 70 -122 70q-58 0 -89.5 -21.5t-31.5 -55.5h-122q0 68 58.5 120.5t187.5 52.5q108 0 175 -42.5t67 -118.5q0 -61 -37.5 -104t-126.5 -90z" />
    <glyph glyph-name="two.taboldstyle" horiz-adv-x="680" 
d="M414 162l-102 -59l-6 -7q42 6 117 6h173v-102h-507l-5 73l292 185q46 29 62.5 49t16.5 44q0 70 -122 70q-58 0 -89.5 -21.5t-31.5 -55.5h-122q0 68 58.5 120.5t187.5 52.5q108 0 175 -42.5t67 -118.5q0 -61 -37.5 -104t-126.5 -90z" />
    <glyph glyph-name="two.tnum" horiz-adv-x="680" 
d="M444 252l-175 -153v-2q38 5 134 5h202v-102h-508l-14 78l279 254q96 81 96 157q0 54 -34.5 84.5t-93.5 30.5q-70 0 -100 -34t-30 -78h-123q0 35 13 70.5t40.5 70t79.5 56.5t120 22q114 0 182 -60t68 -161q0 -73 -36.5 -128t-99.5 -110z" />
    <glyph glyph-name="uni02C9.case" horiz-adv-x="467" 
d="M85 867h297v-89h-297v89z" />
    <glyph glyph-name="y.alt" horiz-adv-x="574" 
d="M291 159l132 347h138l-196 -453q-4 -10 -16.5 -40t-20 -47t-23 -47.5t-30 -49t-37.5 -41.5t-47 -36t-57.5 -22.5t-70.5 -9.5q-77 0 -142 45l41 98q47 -33 103 -33q31 0 57 14t46 41.5t31.5 49.5t25.5 55l-211 476h139z" />
    <glyph glyph-name="yacute.alt" horiz-adv-x="574" 
d="M310 736h133l-130 -161h-96zM291 159l132 347h138l-196 -453q-4 -10 -16.5 -40t-20 -47t-23 -47.5t-30 -49t-37.5 -41.5t-47 -36t-57.5 -22.5t-70.5 -9.5q-77 0 -142 45l41 98q47 -33 103 -33q31 0 57 14t46 41.5t31.5 49.5t25.5 55l-211 476h139z" />
    <glyph glyph-name="ycircumflex.alt" horiz-adv-x="574" 
d="M227 736h125l112 -161h-91l-83 92l-84 -92h-90zM291 159l132 347h138l-196 -453q-4 -10 -16.5 -40t-20 -47t-23 -47.5t-30 -49t-37.5 -41.5t-47 -36t-57.5 -22.5t-70.5 -9.5q-77 0 -142 45l41 98q47 -33 103 -33q31 0 57 14t46 41.5t31.5 49.5t25.5 55l-211 476h139z" />
    <glyph glyph-name="ydieresis.alt" horiz-adv-x="574" 
d="M94 656q0 31 21.5 51.5t53.5 20.5t53.5 -20.5t21.5 -51.5q0 -30 -21.5 -50.5t-53.5 -20.5t-53.5 20.5t-21.5 50.5zM325 656q0 31 21 51.5t53 20.5t54 -20.5t22 -51.5q0 -30 -22 -50.5t-54 -20.5t-53 20.5t-21 50.5zM291 159l132 347h138l-196 -453q-4 -10 -16.5 -40
t-20 -47t-23 -47.5t-30 -49t-37.5 -41.5t-47 -36t-57.5 -22.5t-70.5 -9.5q-77 0 -142 45l41 98q47 -33 103 -33q31 0 57 14t46 41.5t31.5 49.5t25.5 55l-211 476h139z" />
    <glyph glyph-name="yen.dnom" horiz-adv-x="385" 
d="M324 69h-92v-69h-80v69h-92v34h92v29l-3 15h-89v34h67l-108 158v11h87l86 -142l85 142h88v-12l-108 -157h67v-34h-89l-3 -15v-29h92v-34z" />
    <glyph glyph-name="yen.numr" horiz-adv-x="384" 
d="M324 419h-92v-69h-80v69h-92v34h92v29l-3 15h-89v34h67l-108 158v11h87l86 -142l85 142h88v-12l-108 -157h67v-34h-89l-3 -15v-29h92v-34z" />
    <glyph glyph-name="yeninferior" horiz-adv-x="385" 
d="M324 -73h-92v-69h-80v69h-92v34h92v29l-3 15h-89v34h67l-108 158v11h87l86 -142l85 142h88v-12l-108 -157h67v-34h-89l-3 -15v-29h92v-34z" />
    <glyph glyph-name="yensuperior" horiz-adv-x="386" 
d="M325 506h-92v-69h-80v69h-92v34h92v29l-3 15h-89v34h67l-108 158v11h87l86 -142l85 142h88v-12l-108 -157h67v-34h-89l-3 -15v-29h92v-34z" />
    <glyph glyph-name="ygrave.alt" horiz-adv-x="574" 
d="M130 736h133l93 -161h-96zM291 159l132 347h138l-196 -453q-4 -10 -16.5 -40t-20 -47t-23 -47.5t-30 -49t-37.5 -41.5t-47 -36t-57.5 -22.5t-70.5 -9.5q-77 0 -142 45l41 98q47 -33 103 -33q31 0 57 14t46 41.5t31.5 49.5t25.5 55l-211 476h139z" />
    <glyph glyph-name="zero.dnom" horiz-adv-x="373" 
d="M345 174q0 -78 -43.5 -130.5t-115.5 -52.5q-71 0 -114.5 53t-43.5 130t43.5 130t114.5 53q72 0 115.5 -52.5t43.5 -130.5zM266 174q0 52 -21 83.5t-59 31.5q-36 0 -57.5 -31.5t-21.5 -83.5q0 -50 21.5 -82.5t57.5 -32.5q37 0 58.5 32.5t21.5 82.5z" />
    <glyph glyph-name="zero.numr" horiz-adv-x="373" 
d="M345 524q0 -78 -43.5 -130.5t-115.5 -52.5q-71 0 -114.5 53t-43.5 130t43.5 130t114.5 53q72 0 115.5 -52.5t43.5 -130.5zM266 524q0 52 -21 83.5t-59 31.5q-36 0 -57.5 -31.5t-21.5 -83.5q0 -50 21.5 -82.5t57.5 -32.5q37 0 58.5 32.5t21.5 82.5z" />
    <glyph glyph-name="zero.oldstyle" horiz-adv-x="676" 
d="M631 253q0 -113 -80.5 -188.5t-213.5 -75.5t-212.5 75.5t-79.5 188.5t79.5 188.5t212.5 75.5t213.5 -75.5t80.5 -188.5zM508 253q0 68 -47 115t-124 47q-76 0 -122.5 -47t-46.5 -115t46.5 -115t122.5 -47q77 0 124 47t47 115z" />
    <glyph glyph-name="zero.taboldstyle" horiz-adv-x="680" 
d="M633 253q0 -113 -80.5 -188.5t-213.5 -75.5t-212.5 75.5t-79.5 188.5t79.5 188.5t212.5 75.5t213.5 -75.5t80.5 -188.5zM510 253q0 68 -47 115t-124 47q-76 0 -122.5 -47t-46.5 -115t46.5 -115t122.5 -47q77 0 124 47t47 115z" />
    <glyph glyph-name="zero.tnum" horiz-adv-x="680" 
d="M648 350q0 -153 -85 -257t-223 -104q-139 0 -223 103.5t-84 257.5t83.5 257.5t223.5 103.5q139 0 223.5 -103.5t84.5 -257.5zM524 350q0 110 -50 183t-134 73t-133.5 -73t-49.5 -183q0 -109 49.5 -182t133.5 -73t134 73t50 182z" />
    </font>
</defs>
</svg>
